<svg width="15" height="13" viewBox="0 0 15 13" fill="none" xmlns="http://www.w3.org/2000/svg">
<path d="M6.63417 12.7167C6.81606 12.8986 7.06055 13 7.31697 13C7.57041 13 7.82087 12.8956 7.99977 12.7167L13.3578 7.35872C14.1718 6.54472 14.619 5.46239 14.622 4.31445C14.622 3.16353 14.1748 2.08119 13.3608 1.2672C12.5468 0.453211 11.4674 0.00596327 10.3165 0.00596327C9.18647 0.00596327 8.12202 0.438303 7.31399 1.22546C6.50298 0.435321 5.43555 0 4.30252 0C3.15459 0 2.07523 0.447248 1.26124 1.25826C0.447248 2.07225 0 3.15459 0 4.3055C0 5.45344 0.450229 6.53578 1.26422 7.34977L6.63417 12.7167ZM1.78005 1.77706C2.4539 1.10321 3.35138 0.730505 4.3055 0.730505C5.25963 0.730505 6.16009 1.10321 6.83693 1.78005L7.05757 2.00069C7.12615 2.06927 7.21858 2.10803 7.31697 2.10803C7.41238 2.10803 7.5078 2.06927 7.57638 2.00069L7.79105 1.78601C8.46789 1.10917 9.36537 0.736468 10.3225 0.736468C11.2766 0.736468 12.1741 1.10917 12.8479 1.78303C13.5248 2.45986 13.8945 3.35734 13.8945 4.31147C13.8945 5.2656 13.5218 6.16307 12.845 6.83991L7.48394 12.2009C7.39748 12.2874 7.23945 12.2874 7.15 12.2009L1.78303 6.83394C1.10619 6.15711 0.733486 5.25963 0.733486 4.3055C0.733486 3.35138 1.10619 2.4539 1.78005 1.77706Z" fill="#EA7A93"/>
</svg>
