<?xml version="1.0" standalone="no"?>
<!DOCTYPE svg PUBLIC "-//W3C//DTD SVG 1.1//EN" "http://www.w3.org/Graphics/SVG/1.1/DTD/svg11.dtd" >
<svg>
<metadata>
Created by FontForge 20090914 at Thu Dec 15 19:36:04 2022
 By www-data
Copyright (c) 2015, Cadson Demak (info@cadsondemak.com)
</metadata>
<defs>
<font id="Athiti-Light" horiz-adv-x="0" >
  <font-face 
    font-family="Athiti Light"
    font-weight="300"
    font-stretch="normal"
    units-per-em="1000"
    panose-1="0 0 4 0 0 0 0 0 0 0"
    ascent="750"
    descent="-250"
    x-height="466"
    cap-height="612"
    bbox="-493 -437 967 1084"
    underline-thickness="50"
    underline-position="-50"
    unicode-range="U+000D-U+FB02"
  />
<missing-glyph horiz-adv-x="602" 
d="M105 714h392v-714h-392v714zM467 29v656h-333v-656h333z" />
    <glyph glyph-name="fi" unicode="fi" horiz-adv-x="537" 
d="M105 425l-66.001 -0.000976562l6 39h60v63c0 24.667 7.83301 47 23.5 67s34.5 35.667 56.5 47c14.667 3.33301 31.334 6.16602 50.001 8.49902s34.667 3.5 48 3.5c42.667 0 80 -4.66699 112 -14l-12 -38c-28.667 7.33301 -64 11 -106 11
c-34.667 0 -70.667 -4.66699 -108 -14c-7.33301 -13.333 -12.5 -25.666 -15.5 -36.999s-4.5 -24.666 -4.5 -39.999v-57h304v-464h-44v425h-260v-425h-44v425z" />
    <glyph glyph-name="fl" unicode="fl" horiz-adv-x="598" 
d="M434.5 27.5c-13.667 15 -20.501 29.167 -20.501 42.5v356h-265v-426h-44v426h-66l6 40h60v73c0 25.333 7.83301 48 23.5 68s34.5 35.667 56.5 47c32.667 8.66699 71.334 13 116.001 13c54.667 0 107 -8.66699 157 -26v-560c0 -12.667 0.666992 -22 2 -28s4 -12.667 8 -20
h15l67 30l19 -25c-24.667 -23.333 -55 -38 -91 -44c-15.333 7.33301 -29.833 18.5 -43.5 33.5zM413.999 466v146c-34 8.66699 -74.667 13 -122 13s-88.333 -4.33301 -123 -13c-7.33301 -13.333 -12.5 -25.833 -15.5 -37.5s-4.5 -25.167 -4.5 -40.5v-68h265z" />
    <glyph glyph-name="ru_lakkhangyaothai" unicode="&#xe24;&#xe45;" horiz-adv-x="831" 
d="M426 450c-36.667 19.333 -79.333 28.9971 -128 28.9971c-33.333 0 -66.666 -4.5 -99.999 -13.5s-62.333 -21.5 -87 -37.5v-5l65 -85c7.33301 -9.33301 11 -19.666 11 -30.999c0 -3.33301 -0.666992 -9 -2 -17l-36 -200c-2 -8 -3 -15.333 -3 -22
c0 -11.333 3.16699 -19.666 9.5 -24.999s16.833 -8 31.5 -8h56v-30c-23.333 -7.33301 -46 -11 -68 -11c-22.667 0 -40.334 6 -53.001 18s-19 29.333 -19 52c0 4 0.666992 11.333 2 22l38 226l-74 100v34c70.667 50.667 149.334 76 236.001 76c30 0 56.667 -3.66699 80 -11
s42.333 -17.666 57 -30.999c51.333 23.333 103 35 155 35c47.333 0 84.166 -9 110.499 -27s39.5 -43.333 39.5 -76v-605h-46v649c-30.667 10.667 -67.334 16 -110.001 16c-43.333 0 -85.666 -8 -126.999 -24c5.33301 -12 8 -23 8 -33v-608h-46v643z" />
    <glyph glyph-name="lu_lakkhangyaothai" unicode="&#xe26;&#xe45;" horiz-adv-x="823" 
d="M435 450c-36.667 19.333 -79 29.001 -127 29.001c-63.333 0 -120 -17 -170 -51v-5l67 -85c6.66699 -8 10 -18.333 10 -31c0 -7.33301 -0.333008 -13 -1 -17l-38 -225c-4 -24 -11.833 -41.833 -23.5 -53.5s-28.5 -17.5 -50.5 -17.5c-19.333 0 -36.333 3.33301 -51 10v31
h40c15.333 0 25.833 3 31.5 9s9.83398 17 12.501 33l37 235l-75 100v34c34 24.667 68.333 43.5 103 56.5s72.667 19.5 114 19.5c28.667 0 54.334 -3.33301 77.001 -10s41 -15.667 55 -27c24.667 9.33301 48.167 16.666 70.5 21.999s46.5 8 72.5 8
c47.333 0 84.166 -9 110.499 -27s39.5 -43.333 39.5 -76v-605h-46v649c-30.667 10.667 -67.334 16 -110.001 16c-39.333 0 -76.333 -6 -111 -18c6 -12.667 9 -25.667 9 -39v-608h-46v643z" />
    <glyph glyph-name=".notdef" horiz-adv-x="602" 
d="M105 714h392v-714h-392v714zM467 29v656h-333v-656h333z" />
    <glyph glyph-name=".null" horiz-adv-x="500" 
 />
    <glyph glyph-name=".null" horiz-adv-x="500" 
 />
    <glyph glyph-name="nonmarkingreturn" unicode="&#xd;" horiz-adv-x="260" 
 />
    <glyph glyph-name="space" unicode=" " horiz-adv-x="300" 
 />
    <glyph glyph-name="exclam" unicode="!" horiz-adv-x="261" 
d="M106 410v202h48v-202l-6 -237h-35zM105 79h51v-79h-51v79z" />
    <glyph glyph-name="quotedbl" unicode="&#x22;" horiz-adv-x="339" 
d="M121 551c-1.33301 22 -0.667969 42.333 1.99902 61h38c2.66699 -18.667 3.33398 -39 2.00098 -61l-8 -128h-26zM175.998 551c-1.33301 22 -0.667969 42.333 1.99902 61h38c2.66699 -18.667 3.33398 -39 2.00098 -61l-8 -128h-26z" />
    <glyph glyph-name="numbersign" unicode="#" horiz-adv-x="706" 
d="M172 -1l26 189h-109v44h115l23 165h-113v43h118l26 186l47 -2l-25 -184h174l26 186l45 -2l-24 -184h107v-43h-112l-23 -165h110v-44h-116l-26 -192l-47 3l25 189h-174l-26 -192zM426 232l23 165h-175l-23 -165h175z" />
    <glyph glyph-name="dollar" unicode="$" horiz-adv-x="538" 
d="M253 -8c-62 0.666992 -120.002 14.6621 -174.002 41.9951l17 41c27.333 -13.333 54.5 -22.833 81.5 -28.5s57.167 -8.5 90.5 -8.5c44 0 85.333 5 124 15c14 30 21 63 21 99c0 26.667 -4 47.834 -12 63.501s-21.333 28.834 -40 39.501s-45.667 21 -81 31
c-58.667 16.667 -104.167 37.5 -136.5 62.5s-48.5 61.5 -48.5 109.5c0 49.333 13.167 87.833 39.5 115.5s67.5 44.834 123.5 51.501v87h44v-86c57.333 -4 103.333 -16 138 -36v-21c0 -26.667 -4 -53 -12 -79h-30l-6 85c-43.333 6 -79 9 -107 9
c-95.333 0 -143 -40.667 -143 -122c0 -25.333 5.33301 -45.833 16 -61.5s26.834 -28.667 48.501 -39s51.834 -20.833 90.501 -31.5c40.667 -12 72.667 -24.833 96 -38.5s40.333 -30.667 51 -51s16 -46.166 16 -77.499c0 -105.333 -54.333 -161.666 -163 -168.999v-104h-44
v102z" />
    <glyph glyph-name="percent" unicode="%" horiz-adv-x="791" 
d="M196 9l368 599l35 -13l-370 -602zM99 452c0 46.667 9.5 83.333 28.5 110s48.5 40 88.5 40c74 0 111 -47.667 111 -143c0 -46.667 -10.167 -83.5 -30.5 -110.5s-50.5 -40.5 -90.5 -40.5c-71.333 0 -107 48 -107 144zM273 354.999c9.33301 30 14 62.334 14 97.001
c0 41.333 -5.16699 70.666 -15.5 87.999s-30.166 26 -59.499 26c-20.667 0 -40.667 -3 -60 -9c-9.33301 -35.333 -14 -68 -14 -98c0 -42 5.16699 -71.667 15.5 -89s29.166 -26 56.499 -26c24.667 0 45.667 3.66699 63 11zM464 136c0 46.667 9.5 83.333 28.5 110
s48.5 40 88.5 40c74 0 111 -47.667 111 -143c0 -46.667 -10.167 -83.5 -30.5 -110.5s-50.5 -40.5 -90.5 -40.5c-71.333 0 -107 48 -107 144zM638 38.999c9.33301 30 14 62.334 14 97.001c0 41.333 -5.16699 70.666 -15.5 87.999s-30.166 26 -59.499 26
c-20.667 0 -40.667 -3 -60 -9c-9.33301 -35.333 -14 -68 -14 -98c0 -42 5.16699 -71.667 15.5 -89s29.166 -26 56.499 -26c24.667 0 45.667 3.66699 63 11z" />
    <glyph glyph-name="ampersand" unicode="&#x26;" horiz-adv-x="702" 
d="M153 35.5c-37.333 28.333 -56 69.501 -56 123.501c0 46 11 82.5 33 109.5s56.333 49.833 103 68.5v6c-19.333 19.333 -33.833 38.666 -43.5 57.999s-14.5 41.333 -14.5 66c0 43.333 14.167 76.666 42.5 99.999s68.166 35 119.499 35c34.667 0 65.167 -5.16699 91.5 -15.5
s47.166 -23.833 62.499 -40.5v-26c0 -23.333 -3.33301 -44.666 -10 -63.999h-28l-8 81c-30 14.667 -66 22 -108 22c-38.667 0 -67.5 -7.5 -86.5 -22.5s-28.5 -37.833 -28.5 -68.5c0 -26.667 4 -47.667 12 -63s23.667 -34.333 47 -57l179 -174
c6.66699 21.333 11.834 42 15.501 62s7.83398 45.667 12.501 77l46 -11c-10.667 -64.667 -22.667 -116.667 -36 -156l126 -127l-35 -24l-99 101h-6c-9.33301 -32 -20 -58.667 -32 -80c-19.333 -8 -40 -13.833 -62 -17.5s-51 -5.5 -87 -5.5
c-62.667 0 -112.667 14.167 -150 42.5zM369.5 38.501c15.667 1.66699 31.168 5.16895 46.501 10.502c12.667 19.333 22.667 46.666 30 81.999l-184 176c-39.333 -12.667 -69 -30.834 -89 -54.501s-30 -54.834 -30 -93.501c0 -41.333 14.667 -72.166 44 -92.499
s68.666 -30.5 117.999 -30.5c27.333 0 48.833 0.833008 64.5 2.5z" />
    <glyph glyph-name="quotesingle" unicode="'" horiz-adv-x="230" 
d="M94 551c-1.33301 22 -0.667969 42.333 1.99902 61h38c2.66699 -18.667 3.33398 -39 2.00098 -61l-8 -128h-26z" />
    <glyph glyph-name="parenleft" unicode="(" horiz-adv-x="341" 
d="M128.5 -68c-13.667 12.667 -21.834 26.666 -24.501 41.999v663c2.66699 15.333 10.834 29.5 24.501 42.5s30.167 22.833 49.5 29.5c17.333 0 38 -1.33301 62 -4v-43h-88v-713h88v-42c-16 -2.66699 -36.667 -4 -62 -4c-19.333 6.66699 -35.833 16.334 -49.5 29.001z" />
    <glyph glyph-name="parenright" unicode=")" horiz-adv-x="341" 
d="M101 -93v42.001h88v713h-88v43c25.333 2.66699 46.333 4 63 4c19.333 -6.66699 35.666 -16.5 48.999 -29.5s21.333 -27.167 24 -42.5v-663c-2.66699 -15.333 -10.667 -29.333 -24 -42s-29.666 -22.334 -48.999 -29.001c-25.333 0 -46.333 1.33301 -63 4z" />
    <glyph glyph-name="asterisk" unicode="*" horiz-adv-x="496" 
d="M129 349l92 117l-1 4l-131 36l13 42l128 -51l3 3l-8 145h46l-8 -145l3 -3l128 51l13 -42l-131 -36l-1 -4l93 -117l-37 -26l-80 124h-5l-81 -124z" />
    <glyph glyph-name="plus" unicode="+" horiz-adv-x="569" 
d="M264 286h-185v39h185v183h42v-183h184v-39h-184v-200h-42v200z" />
    <glyph glyph-name="comma" unicode="," horiz-adv-x="238" 
d="M92 -90c12 22 20.999 43.668 26.999 65.001s9 46.666 9 75.999h-55v33c14.667 4 27.334 6 38.001 6c37.333 0 56 -20.667 56 -62c0 -45.333 -15 -87 -45 -125z" />
    <glyph glyph-name="hyphen" unicode="-" horiz-adv-x="387" 
d="M68 300h251v-41h-251v41z" />
    <glyph glyph-name="period" unicode="." horiz-adv-x="237" 
d="M86 67h66v-67h-66v67z" />
    <glyph glyph-name="slash" unicode="/" horiz-adv-x="477" 
d="M87 -81l262 740l42 -10l-261 -740z" />
    <glyph glyph-name="zero" unicode="0" horiz-adv-x="631" 
d="M138.5 67.5c-36.333 48.333 -54.501 122.501 -54.501 222.501c0 101.333 17.833 178.666 53.5 231.999s98.5 80 188.5 80c76 0 132 -24.167 168 -72.5s54 -122.833 54 -223.5c0 -102 -17.667 -179.333 -53 -232s-98.333 -79 -189 -79
c-75.333 0 -131.166 24.167 -167.499 72.5zM388.999 45.001c24.667 4 45.667 9.66602 63 16.999c32 70 48 148 48 234c0 63.333 -6 113.833 -18 151.5s-31.333 65.334 -58 83.001s-63 26.5 -109 26.5c-23.333 0 -47.5 -2.16699 -72.5 -6.5s-46.167 -9.83301 -63.5 -16.5
c-32 -70 -48 -147.667 -48 -233c0 -63.333 6 -114 18 -152s31.333 -65.833 58 -83.5s63 -26.5 109 -26.5c24 0 48.333 2 73 6z" />
    <glyph glyph-name="one" unicode="1" horiz-adv-x="384" 
d="M220 541l-10 7l-128 -51l-13 33l143 72c13.333 -1.33301 25.833 -6.33301 37.5 -15s17.5 -17 17.5 -25v-562h-47v541z" />
    <glyph glyph-name="two" unicode="2" horiz-adv-x="571" 
d="M82 62c105.333 72 186.833 138.167 244.5 198.5s86.5 119.833 86.5 178.5c0 44 -10.167 74.833 -30.5 92.5s-53.5 26.5 -99.5 26.5c-45.333 0 -90 -7.33301 -134 -22v-95h-33c-9.33301 30.667 -14 60 -14 88v31c31.333 14 61.333 24.5 90 31.5s60.667 10.5 96 10.5
c58.667 0 102 -13.167 130 -39.5s42 -65.833 42 -118.5c0 -72 -28.667 -139.167 -86 -201.5s-136 -126.5 -236 -192.5v-8h299v75h34c8.66699 -24 13 -51.667 13 -83v-34h-402v62z" />
    <glyph glyph-name="three" unicode="3" horiz-adv-x="535" 
d="M75 17l8.00098 42.001c52 -14 108 -21 168 -21c24 0 44.667 1 62 3s36.666 5 57.999 9c17.333 25.333 26 60.333 26 105c0 41.333 -11 71.666 -33 90.999s-58.667 29 -110 29h-84v43h84c45.333 0 79.333 10.167 102 30.5s34 49.5 34 87.5c0 41.333 -11 72 -33 92
s-55 30 -99 30c-42 0 -86.333 -5.33301 -133 -16v-88h-33c-9.33301 28 -14 54 -14 78v34c33.333 12 64 21 92 27s59.333 9 94 9c114.667 0 172 -53.667 172 -161c0 -35.333 -7.33301 -64 -22 -86s-37.667 -40 -69 -54v-6c37.333 -12.667 63 -30 77 -52s21 -51.333 21 -88
c0 -50 -14.167 -89.333 -42.5 -118s-78.5 -43 -150.5 -43c-56.667 0 -115 7.66699 -175 23z" />
    <glyph glyph-name="four" unicode="4" horiz-adv-x="577" 
d="M375 126h-295l-15 50l302 426h54v-432h86v-44h-86v-126h-46v126zM374 170v208l7 164h-6l-259 -365l2 -7h256z" />
    <glyph glyph-name="five" unicode="5" horiz-adv-x="537" 
d="M170 0c-26.667 4 -55.668 10 -87.001 18l7 44c62 -16 119.333 -24 172 -24c26.667 0 49.334 1.33301 68.001 4s38.334 7.33398 59.001 14.001c16 38 24 81 24 129c0 49.333 -10 83.333 -30 102s-53.333 28 -100 28c-24.667 0 -47.5 -1.83301 -68.5 -5.5
s-43.5 -9.83398 -67.5 -18.501l-46 36l19 275h298v-44h-255l-16 -223c28.667 8.66699 53.667 14.834 75 18.501s44 5.5 68 5.5c55.333 0 97.5 -13.333 126.5 -40s43.5 -69.334 43.5 -128.001c0 -65.333 -15 -114.5 -45 -147.5s-83 -49.5 -159 -49.5
c-30.667 0 -59.334 2 -86.001 6z" />
    <glyph glyph-name="six" unicode="6" horiz-adv-x="532" 
d="M133 60.5c-33.333 40.333 -50 97.168 -50 170.501c0 80 19 149.167 57 207.5s93 111.833 165 160.5l41 -22c-61.333 -42 -108.5 -83.167 -141.5 -123.5s-56.167 -88.833 -69.5 -145.5c55.333 32 111.333 48 168 48c54.667 0 96.167 -14.333 124.5 -43
s42.5 -71.334 42.5 -128.001c0 -53.333 -14 -97.5 -42 -132.5s-76.667 -52.5 -146 -52.5c-66 0 -115.667 20.167 -149 60.5zM346 47.502c16.667 2.33301 33.666 6.16699 50.999 11.5c16.667 36 25 78 25 126c0 44.667 -10.167 77.167 -30.5 97.5s-53.5 30.5 -99.5 30.5
c-54 0 -108 -16 -162 -48c-0.666992 -8 -1 -19.333 -1 -34c0 -64 12.833 -111.167 38.5 -141.5s64.834 -45.5 117.501 -45.5c24 0 44.333 1.16699 61 3.5z" />
    <glyph glyph-name="seven" unicode="7" horiz-adv-x="549" 
d="M199 8c23.333 111.333 53.167 210 89.5 296s82.5 168.667 138.5 248v6h-303v-89h-33c-9.33301 26 -14 56 -14 90v43h399v-58c-61.333 -90 -109.333 -177 -144 -261s-62.667 -177.333 -84 -280z" />
    <glyph glyph-name="eight" unicode="8" horiz-adv-x="578" 
d="M139.5 37.5c-33.667 28.333 -50.5 69.1689 -50.5 122.502c0 36.667 6.83301 65.667 20.5 87s35.167 42.333 64.5 63v7c-23.333 15.333 -40.833 32.166 -52.5 50.499s-17.5 41.833 -17.5 70.5c0 51.333 17 91.5 51 120.5s84.667 43.5 152 43.5
c56 0 98.333 -14.5 127 -43.5s43 -70.5 43 -124.5c0 -30.667 -5.66699 -56.334 -17 -77.001s-28.666 -38.667 -51.999 -54v-6c30 -18 51.167 -37.833 63.5 -59.5s18.5 -48.5 18.5 -80.5c0 -54 -15.333 -94.5 -46 -121.5s-82.334 -40.5 -155.001 -40.5
c-66 0 -115.833 14.167 -149.5 42.5zM416 339.003c10 26.667 15 54.999 15 84.999c0 50.667 -10.667 85.834 -32 105.501s-58 29.5 -110 29.5c-40.667 0 -80 -6.33301 -118 -19c-7.33301 -17.333 -12.666 -33.5 -15.999 -48.5s-5 -30.833 -5 -47.5
c0 -45.333 13.167 -76.833 39.5 -94.5s67.166 -26.5 122.499 -26.5c40 0 74.667 5.33301 104 16zM428 61.002c10 26 15 54.333 15 85c0 34.667 -4.83301 62 -14.5 82s-25.667 34.5 -48 43.5s-53.166 13.5 -92.499 13.5c-44 0 -81.333 -3 -112 -9
c-14.667 -14.667 -25.167 -31.167 -31.5 -49.5s-9.5 -39.833 -9.5 -64.5c0 -46 13.167 -78.167 39.5 -96.5s70.166 -27.5 131.499 -27.5c46 0 86.667 7.66699 122 23z" />
    <glyph glyph-name="nine" unicode="9" horiz-adv-x="534" 
d="M188 23c62 42 108.669 80.665 140.002 115.998s54 79.333 68 132c-26.667 -17.333 -52.334 -30.166 -77.001 -38.499s-53.667 -12.5 -87 -12.5c-51.333 0 -92.333 15.167 -123 45.5s-46 73.5 -46 129.5c0 60.667 15.667 109.834 47 147.501s81.333 56.5 150 56.5
c65.333 0 113.666 -21.167 144.999 -63.5s47 -101.166 47 -176.499c0 -81.333 -18.667 -149.333 -56 -204s-93 -106.334 -167 -155.001zM326.002 275.498c24.667 7.66699 50.001 20.167 76.001 37.5c2 14 3 29.333 3 46c0 65.333 -12.333 114.333 -37 147
s-62.334 49 -113.001 49c-44.667 0 -83.334 -5 -116.001 -15c-10 -24 -17.333 -47.333 -22 -70s-7 -47.667 -7 -75c0 -44 11.167 -76.833 33.5 -98.5s54.5 -32.5 96.5 -32.5c32.667 0 61.334 3.83301 86.001 11.5z" />
    <glyph glyph-name="colon" unicode=":" horiz-adv-x="237" 
d="M86 418h66v-67h-66v67zM86 83h66v-67h-66v67z" />
    <glyph glyph-name="semicolon" unicode=";" horiz-adv-x="266" 
d="M97 418h66v-67h-66v67zM105 -41c12 22 20.999 43.668 26.999 65.001s9 46.666 9 75.999h-55v33c14.667 4 27.334 6 38.001 6c37.333 0 56 -20.667 56 -62c0 -45.333 -15 -87 -45 -125z" />
    <glyph glyph-name="less" unicode="&#x3c;" horiz-adv-x="601" 
d="M84 224v48l400 190l14 -47l-364 -164v-6l364 -163l-14 -47z" />
    <glyph glyph-name="equal" unicode="=" horiz-adv-x="582" 
d="M99 366h384v-42h-384v42zM99 167h384v-42h-384v42z" />
    <glyph glyph-name="greater" unicode="&#x3e;" horiz-adv-x="601" 
d="M104 82l363 163v6l-363 164l13 47l401 -190v-48l-401 -189z" />
    <glyph glyph-name="question" unicode="?" horiz-adv-x="545" 
d="M219 220c0 14 1.99902 25.165 5.99902 33.498s11.333 16.5 22 24.5l158 119v72c0 39.333 -10 67.5 -30 84.5s-53 25.5 -99 25.5c-52 0 -99 -6 -141 -18v-77h-33c-8.66699 24.667 -13 49.667 -13 75v26c20.667 10 48.334 18.833 83.001 26.5s70 11.5 106 11.5
c61.333 0 105.666 -13 132.999 -39s41 -65.667 41 -119c0 -30 -3.66699 -54.167 -11 -72.5s-21.333 -35.5 -42 -51.5l-112 -83c-9.33301 -7.33301 -15.166 -13.666 -17.499 -18.999s-3.5 -14.666 -3.5 -27.999v-57h-47v66zM216.999 78.998h50v-79h-50v79z" />
    <glyph glyph-name="at" unicode="@" horiz-adv-x="813" 
d="M182 26.5c-58.667 57 -87.998 138.167 -87.998 243.5c0 62.667 12.5 119.334 37.5 170.001s62.5 91 112.5 121s111 45 183 45c63.333 0 117.333 -12.333 162 -37s78.167 -58.334 100.5 -101.001s33.5 -90.334 33.5 -143.001c0 -57.333 -12 -105.5 -36 -144.5
s-62 -58.5 -114 -58.5c-19.333 0 -36.333 4 -51 12s-28.667 19.667 -42 35h-6c-14 -17.333 -29.333 -30.333 -46 -39s-36 -13 -58 -13c-31.333 0 -56.333 10.833 -75 32.5s-28 50.5 -28 86.5c0 32.667 5.5 63.667 16.5 93s27.167 53 48.5 71s46.666 27 75.999 27
c33.333 0 61.333 -15.333 84 -46h5l16 34l31 -4l-44 -222c21.333 -20 47.666 -30 78.999 -30c28.667 0 52 3.33301 70 10c22 35.333 33 86.333 33 153c0 74 -21.5 133.833 -64.5 179.5s-106.5 68.5 -190.5 68.5c-63.333 0 -117 -13 -161 -39s-77 -61.667 -99 -107
s-33 -96.666 -33 -153.999c0 -98.667 26.833 -172 80.5 -220s129.167 -72 226.5 -72c42 0 78.167 3.66699 108.5 11s59.5 18.333 87.5 33l16 -30c-54.667 -34 -126.667 -51 -216 -51c-111.333 0 -196.333 28.5 -255 85.5zM459.002 191l28 157
c-11.333 14.667 -22.5 25.334 -33.5 32.001s-24.167 10 -39.5 10c-32 0 -57.333 -14.667 -76 -44s-28 -65.333 -28 -108c0 -28.667 5.66699 -49.834 17 -63.501s29 -20.5 53 -20.5c30 0 56.333 12.333 79 37z" />
    <glyph glyph-name="A" unicode="A" horiz-adv-x="580" 
d="M44 6c64.667 233.333 128.667 435.333 192 606h108c63.333 -170.667 127.333 -372.667 192 -606l-49 -6c-18 70 -38.333 141.667 -61 215h-273c-24.667 -84 -44.667 -155.667 -60 -215zM412 258c-40.667 137.333 -74.001 240.333 -100.001 309h-46
c-12.667 -35.333 -28.667 -82.5 -48 -141.5s-36.666 -114.833 -51.999 -167.5h246z" />
    <glyph glyph-name="B" unicode="B" horiz-adv-x="528" 
d="M86 601c53.333 14 105 21 155 21c135.333 0 203 -55 203 -165c0 -60.667 -27.333 -108.667 -82 -144v-4c74.667 -24.667 112 -71 112 -139c0 -56.667 -16.833 -99.167 -50.5 -127.5s-93.167 -42.5 -178.5 -42.5h-159v601zM338 333c20.667 16.667 35.667 35 45 55
s14 42.667 14 68c0 42 -13.333 72.833 -40 92.5s-66.667 29.5 -120 29.5c-35.333 0 -70.333 -3.66699 -105 -11v-234h206zM240 43c50 0 88.667 4.66699 116 14s46 23 56 41s15 41.333 15 70c0 36 -13 65.167 -39 87.5s-63 33.5 -111 33.5h-145v-246h108z" />
    <glyph glyph-name="C" unicode="C" horiz-adv-x="547" 
d="M123.5 68.5c-42.333 51.667 -63.5 126.5 -63.5 224.5s20.833 177.333 62.5 238s104.834 91 189.501 91c32.667 0 62.667 -3.5 90 -10.5s50.666 -15.833 69.999 -26.5v-38c0 -27.333 -2.66699 -49 -8 -65h-28l-11 84c-33.333 7.33301 -71.333 11 -114 11
c-44 0 -86.333 -6.33301 -127 -19c-51.333 -69.333 -77 -157 -77 -263c0 -87.333 17.167 -152.5 51.5 -195.5s87.166 -64.5 158.499 -64.5c63.333 0 116.333 13.667 159 41l23 -36c-44 -32.667 -105.333 -49 -184 -49c-85.333 0 -149.166 25.833 -191.499 77.5z" />
    <glyph glyph-name="D" unicode="D" horiz-adv-x="564" 
d="M86 605c58 11.333 111.667 17 161 17c92.667 0 160.167 -25.5 202.5 -76.5s63.5 -127.167 63.5 -228.5c0 -96.667 -19 -173.667 -57 -231s-104.667 -86 -200 -86h-170v605zM253 44c30 0 55.6689 1.50098 77.002 4.50098s42.666 7.83301 63.999 14.5
c23.333 26 41.166 60.167 53.499 102.5s18.5 91.166 18.5 146.499c0 92.667 -17.333 160.167 -52 202.5s-91.667 63.5 -171 63.5c-31.333 0 -68 -3 -110 -9v-525h120z" />
    <glyph glyph-name="E" unicode="E" horiz-adv-x="514" 
d="M86 61l-0.000976562 551h355v-44h-308v-238h279v-44h-279v-238c48.667 -9.33301 100.334 -14 155.001 -14s106 5 154 15l11 -42c-47.333 -10.667 -103.333 -16 -168 -16c-132.667 0 -199 23.333 -199 70z" />
    <glyph glyph-name="F" unicode="F" horiz-adv-x="490" 
d="M86 616h364v-44h-317v-243h266v-41h-266v-288h-47v616z" />
    <glyph glyph-name="G" unicode="G" horiz-adv-x="580" 
d="M126 68.5c-44 51.667 -65.9971 126.502 -65.9971 224.502c0 99.333 21.833 179 65.5 239s110.5 90 200.5 90c34.667 0 67.167 -3.5 97.5 -10.5s54.833 -15.833 73.5 -26.5v-38c0 -10.667 -0.833008 -22.334 -2.5 -35.001s-3.83398 -22.667 -6.50098 -30h-28l-11 84
c-32.667 7.33301 -74.667 11 -126 11c-50.667 0 -96.334 -6.33301 -137.001 -19c-52.667 -70.667 -79 -158.334 -79 -263.001c0 -173.333 71.333 -260 214 -260c31.333 0 57.666 2 78.999 6s42.333 10.333 63 19v212h-141v44h153l34 -27v-188c0 -33.333 -17.5 -60 -52.5 -80
s-81.833 -30 -140.5 -30c-82.667 0 -146 25.833 -190 77.5z" />
    <glyph glyph-name="H" unicode="H" horiz-adv-x="586" 
d="M86 612h47v-293h319v293h47v-612h-47v274h-319v-274h-47v612z" />
    <glyph glyph-name="I" unicode="I" horiz-adv-x="225" 
d="M89 612h47v-612h-47v612z" />
    <glyph glyph-name="J" unicode="J" horiz-adv-x="411" 
d="M31 14l13 42c38.667 -14.667 79.667 -22 123 -22c42 0 76.667 7.66699 104 23c6 17.333 9 38 9 62v497h47v-500c0 -83.333 -54.667 -125 -164 -125c-46.667 0 -90.667 7.66699 -132 23z" />
    <glyph glyph-name="K" unicode="K" horiz-adv-x="581" 
d="M471 2.5c-8.66699 5.66699 -15.6689 14.4971 -21.002 26.4971l-81 180c-14 30.667 -29.833 53 -47.5 67s-43.167 21 -76.5 21h-113v-297h-46v612h46v-272h108c34 0 59.333 7.33301 76 22s32.334 36 47.001 64c26 50.667 55 113 87 187l44 -17
c-28 -65.333 -57.333 -126.666 -88 -183.999c-13.333 -25.333 -24.833 -43.666 -34.5 -54.999s-25.5 -22.666 -47.5 -33.999v-6c22 -8.66699 39 -19 51 -31s23.333 -29.333 34 -52l90 -198l49 -8v-27c-13.333 -4.66699 -27.666 -7 -42.999 -7c-14 0 -25.333 2.83301 -34 8.5
z" />
    <glyph glyph-name="L" unicode="L" horiz-adv-x="455" 
d="M86 612h47v-568h288v-44h-335v612z" />
    <glyph glyph-name="M" unicode="M" horiz-adv-x="675" 
d="M107 612h48l179 -372h7l179 372h47l31 -612h-48l-15 319l-6 203l-6 1l-164 -331h-43l-164 331l-6 -1l-6 -203l-16 -319h-47z" />
    <glyph glyph-name="N" unicode="N" horiz-adv-x="610" 
d="M86 612h53l339 -540l6 2l-7 214v324h47v-612h-53l-339 540l-7 -2l8 -214v-324h-47v612z" />
    <glyph glyph-name="O" unicode="O" horiz-adv-x="602" 
d="M116.5 68c-37 51.333 -55.5 127.667 -55.5 229c0 105.333 19 185.833 57 241.5s102.667 83.5 194 83.5c79.333 0 137.333 -25.667 174 -77s55 -128 55 -230c0 -106 -18.833 -186.5 -56.5 -241.5s-102.5 -82.5 -194.5 -82.5c-78.667 0 -136.5 25.667 -173.5 77z
M375.5 42.501c23.667 5 43.167 11.833 58.5 20.5c40 61.333 60 141.666 60 240.999c0 63.333 -6 114.833 -18 154.5s-32.5 69.334 -61.5 89.001s-68.167 29.5 -117.5 29.5c-24 0 -47.833 -2.5 -71.5 -7.5s-43.167 -11.833 -58.5 -20.5
c-39.333 -61.333 -59 -141.666 -59 -240.999c0 -63.333 6.16699 -114.833 18.5 -154.5s32.833 -69.334 61.5 -89.001s67.667 -29.5 117 -29.5c23.333 0 46.833 2.5 70.5 7.5z" />
    <glyph glyph-name="P" unicode="P" horiz-adv-x="509" 
d="M86 598c62.667 16 115.667 24 159 24c149.333 0 224 -67.667 224 -203c0 -70 -16.667 -122 -50 -156s-89.333 -51 -168 -51h-118v-212h-47v598zM244 256c31.333 0 56.999 1.16602 76.999 3.49902s40.667 6.5 62 12.5c25.333 34 38 82 38 144
c0 56.667 -14.667 97.834 -44 123.501s-73.666 38.5 -132.999 38.5c-42.667 0 -79.667 -4.33301 -111 -13v-309h111z" />
    <glyph glyph-name="Q" unicode="Q" horiz-adv-x="606" 
d="M293.5 -131c-26.333 4 -47.8311 8.66699 -64.498 14v37l16 77c-63.333 8.66699 -109.833 38.167 -139.5 88.5s-44.5 121.5 -44.5 213.5c0 105.333 19.167 185.5 57.5 240.5s103.166 82.5 194.499 82.5c79.333 0 137.666 -25.5 174.999 -76.5s56 -127.5 56 -229.5
c0 -104.667 -19 -184.5 -57 -239.5s-102.333 -82.833 -193 -83.5c-8 0 -14 0.333008 -18 1v-82c32.667 -6 62.667 -9 90 -9c47.333 0 89.333 3.66699 126 11l9 -38c-38 -8.66699 -82.667 -13 -134 -13c-22.667 0 -47.167 2 -73.5 6zM376.502 44.5
c23.667 5 43.499 11.833 59.499 20.5c40.667 63.333 61 143.666 61 240.999c0 64.667 -6.16699 116.667 -18.5 156s-32.833 68.333 -61.5 87s-68 28 -118 28c-24 0 -48.167 -2.5 -72.5 -7.5s-44.166 -11.833 -59.499 -20.5c-39.333 -61.333 -59 -141.333 -59 -240
c0 -65.333 6.16699 -117.666 18.5 -156.999s32.833 -68.333 61.5 -87s68 -28 118 -28c23.333 0 46.833 2.5 70.5 7.5z" />
    <glyph glyph-name="R" unicode="R" horiz-adv-x="567" 
d="M461 2.5c-8.66699 5.66699 -15.665 14.5 -20.998 26.5l-63 142c-9.33301 20.667 -17.833 36.834 -25.5 48.501s-19.334 21.167 -35.001 28.5s-36.834 11 -63.501 11h-121v-259h-46v601c57.333 14 109.666 21 156.999 21c71.333 0 123.833 -15 157.5 -45
s50.5 -74.667 50.5 -134c0 -72.667 -33 -128 -99 -166v-7c16 -7.33301 28.333 -16.333 37 -27s18.334 -26.334 29.001 -47.001l71 -160l50 -8v-27c-13.333 -4.66699 -28 -7 -44 -7c-14 0 -25.333 2.83301 -34 8.5zM326.002 303c26.667 17.333 46.333 36.5 59 57.5
s19 47.833 19 80.5c0 48 -13.167 82.833 -39.5 104.5s-68.5 32.5 -126.5 32.5c-36 0 -71.333 -3.66699 -106 -11v-264h194z" />
    <glyph glyph-name="S" unicode="S" horiz-adv-x="511" 
d="M57 32l17 40.998c28 -13.333 56.333 -23 85 -29s59.334 -9 92.001 -9c49.333 0 90.666 9 123.999 27c13.333 23.333 20 53.666 20 90.999c0 36.667 -10.833 64.334 -32.5 83.001s-57.834 34.334 -108.501 47.001c-58.667 14.667 -104.167 34 -136.5 58
s-48.5 60.333 -48.5 109c0 114.667 65 172 195 172c35.333 0 65.333 -3 90 -9s48 -14.667 70 -26v-26c0 -24 -4.33301 -51 -13 -81h-32l-8 90c-42 6 -79.667 9 -113 9c-50.667 0 -87 -10 -109 -30s-33 -50.667 -33 -92c0 -25.333 5.33301 -45.666 16 -60.999
s26.834 -28 48.501 -38s51.5 -19.667 89.5 -29c62.667 -16 107.167 -35.5 133.5 -58.5s39.5 -56.167 39.5 -99.5c0 -120 -65.667 -180 -197 -180c-68.667 0 -131.667 13.667 -189 41z" />
    <glyph glyph-name="T" unicode="T" horiz-adv-x="520" 
d="M237 567h-199v45h444v-45h-198v-567h-47v567z" />
    <glyph glyph-name="U" unicode="U" horiz-adv-x="592" 
d="M134 34.5c-34.667 29 -52.001 73.5 -52.001 133.5v444h47v-432c0 -37.333 5.83301 -66.5 17.5 -87.5s29.834 -35.833 54.501 -44.5s57.334 -13 98.001 -13c64 0 118 9.33301 162 28v549h47v-526c0 -30.667 -19.5 -54.167 -58.5 -70.5s-91.5 -24.5 -157.5 -24.5
c-70.667 0 -123.334 14.5 -158.001 43.5z" />
    <glyph glyph-name="V" unicode="V" horiz-adv-x="575" 
d="M138.5 290c-36.333 109.333 -67.499 216.999 -93.499 322.999l50 5c22.667 -96 51.667 -199 87 -309s67.666 -198 96.999 -264h18c29.333 66.667 61.833 155.167 97.5 265.5s64.5 212.833 86.5 307.5l50 -5c-27.333 -107.333 -59 -215.666 -95 -324.999
s-72.667 -205.333 -110 -288h-76c-38 84 -75.167 180.667 -111.5 290z" />
    <glyph glyph-name="W" unicode="W" horiz-adv-x="820" 
d="M48 610l50 7c33.333 -173.333 78.333 -361.666 135 -564.999h7c26 61.333 53 131 81 209s53.333 154.667 76 230l-24 112l47 7c37.333 -178.667 90.666 -364.667 159.999 -558h7c56 196 101 384.333 135 565l50 -7c-45.333 -210 -97.666 -413.333 -156.999 -610h-61
c-51.333 138.667 -95 273.667 -131 405h-9c-42 -135.333 -93 -270.333 -153 -405h-56c-56 185.333 -108.333 388.666 -157 609.999z" />
    <glyph glyph-name="X" unicode="X" horiz-adv-x="609" 
d="M51 8c57.333 102 123.33 201.332 197.997 297.999c-30 41.333 -61.833 89 -95.5 143s-64.167 106.667 -91.5 158l51 12c48.667 -95.333 106.334 -191.333 173.001 -288h35c69.333 97.333 128.666 193.333 177.999 288l49 -12c-57.333 -106 -120.333 -205.667 -189 -299
c33.333 -44 67.5 -92.833 102.5 -146.5s65.833 -104.834 92.5 -153.501l-49 -14c-25.333 48 -52.666 94.833 -81.999 140.5s-63.666 95.5 -102.999 149.5h-32c-42 -57.333 -77.667 -108.166 -107 -152.499s-56.666 -90.166 -81.999 -137.499z" />
    <glyph glyph-name="Y" unicode="Y" horiz-adv-x="591" 
d="M272 228h-18.999c-86.667 107.333 -160.334 232.666 -221.001 375.999l47 14c26 -65.333 56.333 -128.5 91 -189.5s70.334 -114.833 107.001 -161.5h37c36.667 48 72.5 102.333 107.5 163s65.167 123.334 90.5 188.001l47 -14
c-62.667 -146 -136.334 -271.333 -221.001 -376h-19v-228h-47v228z" />
    <glyph glyph-name="Z" unicode="Z" horiz-adv-x="544" 
d="M61 58l364 501.998v8h-300v-70h-34c-9.33301 26.667 -14 54.334 -14 83.001v31h401v-56l-365 -504v-9h326v75h33c10 -25.333 15 -54.666 15 -87.999v-30h-426v58z" />
    <glyph glyph-name="bracketleft" unicode="[" horiz-adv-x="277" 
d="M86 707h108v-42h-62v-709h62v-41h-108v792z" />
    <glyph glyph-name="backslash" unicode="\" horiz-adv-x="424" 
d="M69 622l42 10l244 -637l-42 -11z" />
    <glyph glyph-name="bracketright" unicode="]" horiz-adv-x="277" 
d="M83 -44h62v709h-62v42h108v-792h-108v41z" />
    <glyph glyph-name="asciicircum" unicode="^" horiz-adv-x="574" 
d="M79 295l184 317h48l184 -317l-42 -19l-163 282h-5l-163 -282z" />
    <glyph glyph-name="underscore" unicode="_" horiz-adv-x="556" 
d="M71 0h414v-33h-414v33z" />
    <glyph glyph-name="grave" unicode="`" horiz-adv-x="301" 
d="M36 892l62 7l84 -141l-32 -6z" />
    <glyph glyph-name="a" unicode="a" horiz-adv-x="459" 
d="M82.5 21.5c-22.333 20.333 -33.499 47.832 -33.499 82.499c0 50 17.5 87.5 52.5 112.5s84.833 37.5 149.5 37.5c32 0 60.667 -1.66699 86 -5v73c0 42.667 -8.66699 72.334 -26 89.001s-46.666 25 -87.999 25c-22.667 0 -51.334 -2 -86.001 -6l-10 -70h-33
c-6 17.333 -9 36.333 -9 57v14c21.333 12 46.333 22.167 75 30.5s57 12.5 85 12.5c44 0 77.833 -12.167 101.5 -36.5s35.5 -59.5 35.5 -105.5v-332h-37l-4 67h-7c-38.667 -50.667 -90.334 -76 -155.001 -76c-42 0 -74.167 10.167 -96.5 30.5zM273.501 50.499
c26.333 14.333 47.832 34.499 64.499 60.499v101c-30 4.66699 -65 7 -105 7c-41.333 0 -78.666 -4 -111.999 -12c-18 -28.667 -27 -60 -27 -94c0 -31.333 7.83301 -53.166 23.5 -65.499s38.834 -18.5 69.501 -18.5c31.333 0 60.166 7.16699 86.499 21.5z" />
    <glyph glyph-name="b" unicode="b" horiz-adv-x="508" 
d="M84 13v654h45v-185l-5 -82h8c26 23.333 52 41.5 78 54.5s54.333 19.5 85 19.5c52.667 0 92.167 -20.167 118.5 -60.5s39.5 -95.5 39.5 -165.5c0 -84.667 -18 -148.667 -54 -192s-90 -65 -162 -65c-48.667 0 -99.667 7.33301 -153 22zM366 82.5
c27.333 34.333 41.001 88.5 41.001 162.5c0 64 -9.83301 111.333 -29.5 142s-50.5 46 -92.5 46c-56 0 -108 -25 -156 -75v-314c36 -8.66699 72.667 -13 110 -13c57.333 0 99.666 17.167 126.999 51.5z" />
    <glyph glyph-name="c" unicode="c" horiz-adv-x="446" 
d="M106 48.5c-32 38.333 -47.998 92.502 -47.998 162.502c0 80.667 15.667 144.667 47 192s80.666 71 147.999 71c50 0 93.667 -12.333 131 -37v-24c0 -30 -3.33301 -53 -10 -69h-28l-6 78c-30 6.66699 -60 10 -90 10c-41.333 0 -77 -6.33301 -107 -19
c-27.333 -53.333 -41 -120 -41 -200c0 -58.667 13 -103.334 39 -134.001s65.333 -46 118 -46c50 0 93 13.667 129 41l24 -32c-20.667 -16.667 -43.334 -29.334 -68.001 -38.001s-53.667 -13 -87 -13c-68.667 0 -119 19.167 -151 57.5z" />
    <glyph glyph-name="d" unicode="d" horiz-adv-x="512" 
d="M59 234c0 67.333 14.333 124.167 43 170.5s72.667 69.5 132 69.5c29.333 0 55.5 -5.5 78.5 -16.5s45.833 -26.833 68.5 -47.5h6l-4 84v173h45v-667h-37l-3 68h-7c-16 -22.667 -36.5 -41.167 -61.5 -55.5s-53.167 -21.5 -84.5 -21.5c-117.333 0 -176 81 -176 243z
M326.5 55.501c23 16.333 41.5 36.832 55.5 61.499v253c-24 22.667 -46.333 38.834 -67 48.501s-44 14.5 -70 14.5c-94 0 -141 -67.333 -141 -202c0 -66.667 10.5 -116.667 31.5 -150s57.167 -50 108.5 -50c32 0 59.5 8.16699 82.5 24.5z" />
    <glyph glyph-name="e" unicode="e" horiz-adv-x="466" 
d="M59 231c0 76 16.1689 135.501 48.502 178.501s80.833 64.5 145.5 64.5c50.667 0 90.667 -15.667 120 -47s44 -75 44 -131c0 -6.66699 -0.666992 -18.667 -2 -36l-44 -46l-268 1c1.33301 -61.333 14.333 -107.333 39 -138s62.667 -46 114 -46
c29.333 0 54.166 2.83301 74.499 8.5s40.833 14.5 61.5 26.5l15 -36c-22.667 -12.667 -45.334 -22.334 -68.001 -29.001s-50.667 -10 -84 -10c-130.667 0 -196 80 -196 240zM371.002 254.001c3.33301 12 4.99902 27.666 4.99902 46.999
c0 40.667 -10.833 72.834 -32.5 96.501s-53.167 35.5 -94.5 35.5c-51.333 0 -87.666 -15.167 -108.999 -45.5s-34 -76.5 -38 -138.5z" />
    <glyph glyph-name="f" unicode="f" horiz-adv-x="319" 
d="M105 426l-65.998 0.000976562l6 40h60v90c0 24 6.83301 45.167 20.5 63.5s30.167 32.833 49.5 43.5c19.333 4.66699 38.666 7 57.999 7c24.667 0 49.667 -4.66699 75 -14l-13 -38c-11.333 4 -21.833 6.66699 -31.5 8s-21.834 2 -36.501 2c-24 0 -46.333 -3 -67 -9
c-7.33301 -20.667 -11 -43.334 -11 -68.001v-85h108l-5 -40h-103v-426h-44v426z" />
    <glyph glyph-name="g" unicode="g" horiz-adv-x="498" 
d="M90 -155l14.001 36.999c20 -9.33301 42 -16.666 66 -21.999s47.667 -8 71 -8c30 0 55.5 2.33301 76.5 7s39.833 12 56.5 22v137l3 60h-8c-40.667 -49.333 -89 -74 -145 -74c-55.333 0 -96.5 20.167 -123.5 60.5s-40.5 94.833 -40.5 163.5c0 164 57.667 246 173 246
c57.333 0 102.666 -26 135.999 -78h6l4 73h38v-531c0 -44 -15.333 -76 -46 -96s-73 -30 -127 -30c-58.667 0 -110 11 -154 33zM372.001 120.999l-0.000976562 232c-38.667 54 -83.667 81 -135 81c-47.333 0 -81.166 -17 -101.499 -51s-30.5 -84.333 -30.5 -151
c0 -62.667 10.333 -109.667 31 -141s52.667 -47 96 -47c54 0 100.667 25.667 140 77z" />
    <glyph glyph-name="h" unicode="h" horiz-adv-x="510" 
d="M85 667h45v-182l-4 -88h6c55.333 51.333 115.666 77 180.999 77c38.667 0 67.834 -7.16699 87.501 -21.5s29.5 -37.5 29.5 -69.5v-383h-45v420c-25.333 8.66699 -52.333 13 -81 13c-32.667 0 -64.5 -6.66699 -95.5 -20s-57.167 -31 -78.5 -53v-360h-45v667z" />
    <glyph glyph-name="i" unicode="i" horiz-adv-x="214" 
d="M84 643h46v-89h-46v89zM85 465h44v-465h-44v465z" />
    <glyph glyph-name="j" unicode="j" horiz-adv-x="255" 
d="M129 643h46v-89h-46v89zM-23 -175l10.001 39c22 -6 45.667 -9 71 -9c22.667 0 43 3 61 9c4 10.667 6.66699 21.5 8 32.5s2 25.167 2 42.5v527h44v-531c0 -38.667 -10 -68.667 -30 -90s-48.667 -32 -86 -32c-28.667 0 -55.334 4 -80.001 12z" />
    <glyph glyph-name="k" unicode="k" horiz-adv-x="480" 
d="M370 25l-48.001 108c-14.667 33.333 -31.5 57.333 -50.5 72s-45.5 22 -79.5 22h-67v-227h-44v667h44v-401h62c35.333 0 62 7.33301 80 22s33.667 36 47 64l53 119l44 -16l-56 -120c-10.667 -23.333 -22.667 -41.5 -36 -54.5s-32 -23.167 -56 -30.5v-6
c25.333 -8 45 -18.5 59 -31.5s26.667 -32.167 38 -57.5l56 -125l39 -6v-25c-14.667 -3.33301 -26.667 -5 -36 -5c-23.333 0 -39.666 10.333 -48.999 31z" />
    <glyph glyph-name="l" unicode="l" horiz-adv-x="263" 
d="M99 27c-13.333 14.667 -20.001 28.666 -20.001 41.999v598h44v-587c0 -12 0.666992 -21.167 2 -27.5s4 -13.166 8 -20.499h15l66 31l20 -25c-25.333 -24 -56 -39 -92 -45c-15.333 8 -29.666 19.333 -42.999 34z" />
    <glyph glyph-name="m" unicode="m" horiz-adv-x="794" 
d="M84 466h37.002l4 -67h7c54.667 50 112.667 75 174 75c35.333 0 62.166 -6 80.499 -18s28.5 -31 30.5 -57h6c55.333 50 113.666 75 174.999 75c40 0 69.167 -7 87.5 -21s27.5 -38 27.5 -72v-381h-44v419c-13.333 4.66699 -25.5 8.16699 -36.5 10.5s-24.5 3.5 -40.5 3.5
c-30.667 0 -61.167 -6 -91.5 -18s-56.833 -29 -79.5 -51v-364h-45v419c-13.333 4.66699 -25.5 8.16699 -36.5 10.5s-24.167 3.5 -39.5 3.5c-31.333 0 -62 -6 -92 -18s-56.333 -29.333 -79 -52v-363h-45v466z" />
    <glyph glyph-name="n" unicode="n" horiz-adv-x="510" 
d="M84 466h37l3 -69h7c55.333 51.333 115.666 77 180.999 77c38.667 0 67.834 -7.16699 87.501 -21.5s29.5 -37.5 29.5 -69.5v-383h-45v420c-25.333 8.66699 -52.333 13 -81 13c-32.667 0 -64.5 -6.66699 -95.5 -20s-57.167 -31 -78.5 -53v-360h-45v466z" />
    <glyph glyph-name="o" unicode="o" horiz-adv-x="498" 
d="M103 53c-30 41.333 -45 99.333 -45 174c0 78.667 15 140.667 45 186s82.333 68 157 68c60 0 105 -21.167 135 -63.5s45 -100.833 45 -175.5c0 -78 -15 -139.333 -45 -184s-82.333 -67 -157 -67c-60 0 -105 20.667 -135 62zM358 55
c11.333 18.667 20.332 43.833 26.999 75.5s10 65.167 10 100.5c0 71.333 -11.5 123.833 -34.5 157.5s-60.5 50.5 -112.5 50.5c-45.333 0 -81.666 -8 -108.999 -24c-11.333 -18.667 -20.333 -44.167 -27 -76.5s-10 -66.5 -10 -102.5c0 -70.667 11.5 -122.5 34.5 -155.5
s60.5 -49.5 112.5 -49.5c44 0 80.333 8 109 24z" />
    <glyph glyph-name="p" unicode="p" horiz-adv-x="519" 
d="M85 466l39 -0.000976562l4 -68h8c26.667 25.333 53 44.333 79 57s54.333 19 85 19c107.333 0 161 -79.667 161 -239c0 -73.333 -14 -131.166 -42 -173.499s-72.333 -63.5 -133 -63.5c-27.333 0 -54.333 5.5 -81 16.5s-50.667 26.5 -72 46.5h-6l3 -85v-163h-45v653z
M382.5 88.499c21 33.667 31.5 83.168 31.5 148.501c0 68 -9.66699 117.833 -29 149.5s-51.666 47.5 -96.999 47.5c-30 0 -58.833 -7.83301 -86.5 -23.5s-51.834 -35.834 -72.501 -60.501v-245c42 -44.667 92 -67 150 -67c48 0 82.5 16.833 103.5 50.5z" />
    <glyph glyph-name="q" unicode="q" horiz-adv-x="508" 
d="M379 -14l4.00098 82h-7c-18.667 -20.667 -40 -37.5 -64 -50.5s-53 -19.5 -87 -19.5c-55.333 0 -97.333 20.333 -126 61s-43 93.667 -43 159c0 84 18 147.833 54 191.5s90 65.5 162 65.5c45.333 0 95.666 -8.33301 150.999 -25v-648h-44v184zM317.001 58
c24.667 13.333 45.3311 30.998 61.998 52.998v310c-36 8.66699 -72.333 13 -109 13c-57.333 0 -99.666 -17.167 -126.999 -51.5s-41 -88.166 -41 -161.499c0 -59.333 11 -104.666 33 -135.999s55 -47 99 -47c30.667 0 58.334 6.66699 83.001 20z" />
    <glyph glyph-name="r" unicode="r" horiz-adv-x="350" 
d="M84 464h35.001l4 -87h7c16 28 37.5 50.5 64.5 67.5s57.5 25.5 91.5 25.5c4.66699 0 10.167 -2.16699 16.5 -6.5s11.166 -8.83301 14.499 -13.5l-6 -32h-39c-34.667 0 -64.167 -7.83301 -88.5 -23.5s-42.5 -37.5 -54.5 -65.5v-329h-45v464z" />
    <glyph glyph-name="s" unicode="s" horiz-adv-x="411" 
d="M53 21l15.002 38c22.667 -10 45 -17.333 67 -22s46 -7 72 -7c34.667 0 66 4.66699 94 14c8.66699 21.333 13 45.333 13 72c0 20.667 -3 36.667 -9 48s-15.833 20.5 -29.5 27.5s-34.5 13.833 -62.5 20.5c-52.667 12 -91.5 27.333 -116.5 46s-37.5 47 -37.5 85
c0 37.333 13 68.5 39 93.5s66.667 37.5 122 37.5c46 0 85 -9 117 -27v-20c0 -20.667 -3.33301 -40.334 -10 -59.001h-27l-7 62c-22.667 4 -48.334 6 -77.001 6c-40.667 0 -69.834 -6.66699 -87.501 -20s-26.5 -34.333 -26.5 -63c0 -19.333 3.66699 -34.666 11 -45.999
s19.5 -21 36.5 -29s42.167 -16.333 75.5 -25c48 -12 82.167 -27.167 102.5 -45.5s30.5 -45.5 30.5 -81.5c0 -38 -12.167 -70 -36.5 -96s-64.5 -39 -120.5 -39c-58 0 -107.333 10 -148 30z" />
    <glyph glyph-name="t" unicode="t" horiz-adv-x="356" 
d="M174 2c-40.667 20.667 -61 49.665 -61 86.998v337h-80l6 40h74v129h44v-129h154l-5 -40h-149v-325c0 -13.333 0.666992 -23.666 2 -30.999s3.66602 -15.666 6.99902 -24.999c20.667 -6 41 -9 61 -9c13.333 0 27.333 1.5 42 4.5s27.334 7.16699 38.001 12.5l13 -38
c-10 -5.33301 -23.167 -10 -39.5 -14s-31.833 -6 -46.5 -6c-22 0 -42 2.33301 -60 7z" />
    <glyph glyph-name="u" unicode="u" horiz-adv-x="504" 
d="M108.5 12.5c-19.667 14.333 -29.499 37.5 -29.499 69.5v384h45v-422c23.333 -8 49.666 -12 78.999 -12c34 0 66 7.16699 96 21.5s55.333 32.833 76 55.5v357h45v-466h-37l-4 71h-6c-28 -26.667 -55.667 -46.667 -83 -60s-58.666 -20 -93.999 -20
c-38.667 0 -67.834 7.16699 -87.501 21.5z" />
    <glyph glyph-name="v" unicode="v" horiz-adv-x="469" 
d="M37 464l45.999 5c50.667 -172.667 99.334 -314.667 146.001 -426h12c44.667 107.333 93.667 249.333 147 426l45 -5c-50.667 -161.333 -106.667 -316 -168 -464h-61c-58 135.333 -113.667 290 -167 464z" />
    <glyph glyph-name="w" unicode="w" horiz-adv-x="699" 
d="M43 464l44 5.00195c42.667 -178.667 82 -320 118 -424h10c48.667 128.667 87.334 238 116.001 328l-20 84l40 6c30.667 -131.333 72 -271.333 124 -420h11c37.333 99.333 81 241.666 131 426.999l43 -5c-30.667 -106.667 -56.834 -194.167 -78.501 -262.5
s-45.167 -135.833 -70.5 -202.5h-60c-35.333 96.667 -69 198 -101 304h-5c-18.667 -58.667 -52 -151.334 -100 -278.001l-10 -26h-54c-54 150 -100 304.667 -138 464z" />
    <glyph glyph-name="x" unicode="x" horiz-adv-x="473" 
d="M39 3c42.667 74.667 92.334 151.668 149.001 231.001c-49.333 68 -98 143.667 -146 227l45 8c40 -75.333 84.333 -147 133 -215h34c49.333 67.333 94.666 139 135.999 215l43 -8c-46 -79.333 -95 -154.333 -147 -225c54 -78 102.667 -155.667 146 -233l-44 -9
c-34 64 -78.667 137.667 -134 221h-35c-55.333 -80.667 -101 -154.334 -137 -221.001z" />
    <glyph glyph-name="y" unicode="y" horiz-adv-x="482" 
d="M62 -168l0.00195312 22c0 16.667 2.66699 35 8 55h33v-49c13.333 -2.66699 29.666 -4 48.999 -4c17.333 0 33.333 2 48 6c19.333 42.667 39.666 96 60.999 160h-68c-32.667 80.667 -60.5 154.667 -83.5 222s-45.833 141 -68.5 221l45 5
c43.333 -158 87.666 -293.667 132.999 -407h57c45.333 140 83.666 275.667 114.999 407l45 -5c-24.667 -104 -53.167 -206.667 -85.5 -308s-65.166 -192.333 -98.499 -273c-19.333 -44.667 -56.666 -67 -111.999 -67c-30.667 0 -56.667 5 -78 15z" />
    <glyph glyph-name="z" unicode="z" horiz-adv-x="436" 
d="M57 52l264 368v7h-210l-5 -60h-31c-6 22.667 -9 44 -9 64v35h302v-54l-264 -365v-8h231l5 64h31c6 -24 9 -45.667 9 -65v-38h-323v52z" />
    <glyph glyph-name="braceleft" unicode="{" horiz-adv-x="403" 
d="M221.5 -77.5c-25 25.667 -37.5 66.167 -37.5 121.5c0 12 0.333008 21.333 1 28l5 86c5.33301 92.667 -34.334 139 -119.001 139v39c84.667 0 124.334 46.333 119.001 139l-5 72c-0.666992 6.66699 -1 16 -1 28c0 55.333 12.5 95.833 37.5 121.5s65.167 40.167 120.5 43.5
v-43c-36 -2 -69.333 -9 -100 -21c-10 -42 -14 -86.333 -12 -133l4 -83c4 -76 -25.667 -123 -89 -141v-6c63.333 -18 93 -64.667 89 -140l-4 -98c-2 -46.667 2 -91 12 -133c32 -11.333 65.333 -18 100 -20v-43c-55.333 3.33301 -95.5 17.833 -120.5 43.5z" />
    <glyph glyph-name="bar" unicode="|" horiz-adv-x="226" 
d="M93 622h41v-762h-41v762z" />
    <glyph glyph-name="braceright" unicode="}" horiz-adv-x="403" 
d="M61 -78c34.667 2 68 8.66699 100 20c10 42 14 86.333 12 133l-4 98c-3.33301 76 26.334 122.667 89.001 140v6c-62.667 17.333 -92.334 64.333 -89.001 141l4 83c2 46.667 -2 91 -12 133c-30.667 12 -64 19 -100 21v43c55.333 -3.33301 95.5 -17.833 120.5 -43.5
s37.5 -66.167 37.5 -121.5c0 -12 -0.333008 -21.333 -1 -28l-5 -72c-5.33301 -92.667 34.334 -139 119.001 -139v-39c-84.667 0 -124.334 -46.333 -119.001 -139l5 -86c0.666992 -6.66699 1 -16 1 -28c0 -55.333 -12.5 -95.833 -37.5 -121.5s-65.167 -40.167 -120.5 -43.5
v43z" />
    <glyph glyph-name="asciitilde" unicode="~" horiz-adv-x="445" 
d="M61 239c4.66699 34 14.5 58.668 29.5 74.001s35.167 23 60.5 23c15.333 0 29.166 -2.83301 41.499 -8.5s26.166 -13.834 41.499 -24.501c11.333 -8 21.333 -14.167 30 -18.5s17.334 -6.5 26.001 -6.5c16 0 28.5 5.16699 37.5 15.5s15.5 25.5 19.5 45.5l37 -6
c-4.66699 -34 -14.334 -58.667 -29.001 -74s-34.667 -23 -60 -23c-15.333 0 -29.166 3 -41.499 9s-26.833 14.333 -43.5 25c-2.66699 1.33301 -8 4.5 -16 9.5s-15.167 8.66699 -21.5 11s-12.166 3.5 -17.499 3.5c-16 0 -28.333 -5.16699 -37 -15.5s-15 -25.5 -19 -45.5z" />
    <glyph glyph-name="uni00A0" unicode="&#xa0;" horiz-adv-x="260" 
 />
    <glyph glyph-name="exclamdown" unicode="&#xa1;" horiz-adv-x="225" 
d="M87 612h51v-80h-51v80zM88 201l7 237h35l6 -236v-202h-48v201z" />
    <glyph glyph-name="cent" unicode="&#xa2;" horiz-adv-x="446" 
d="M227 -8c-110.667 9.33301 -166.001 82.335 -166.001 219.002c0 162 55.667 248.333 167 259v142h41v-142c40.667 -2.66699 78.334 -14.667 113.001 -36v-22c0 -26 -3.33301 -48.333 -10 -67h-28l-6 74c-31.333 6.66699 -61.333 10 -90 10
c-42 0 -77.667 -6.33301 -107 -19c-10.667 -23.333 -19.334 -51.833 -26.001 -85.5s-10 -70.834 -10 -111.501c0 -120.667 50.667 -181 152 -181c48 0 91 14 129 42l23 -33c-19.333 -15.333 -40.166 -27.333 -62.499 -36s-47.833 -13.334 -76.5 -14.001v-135h-43v136z" />
    <glyph glyph-name="sterling" unicode="&#xa3;" horiz-adv-x="539" 
d="M61 5l0.000976562 28.999l66 8v217h-65v39h65v145c0 55.333 15.5 97.333 46.5 126s79.167 43 144.5 43c27.333 0 51.166 -1.66699 71.499 -5s42.5 -9 66.5 -17l-11 -39c-22.667 6 -43.167 10.333 -61.5 13s-39.166 4 -62.499 4c-25.333 0 -48 -1.16699 -68 -3.5
s-41 -6.83301 -63 -13.5c-6.66699 -21.333 -11.167 -40.166 -13.5 -56.499s-3.5 -34.833 -3.5 -55.5v-141h206v-39h-206v-217c39.333 -3.33301 84.333 -5 135 -5c49.333 0 107.666 2.66699 174.999 8v-40c-64.667 -6.66699 -129.667 -10 -195 -10
c-82 0 -157.667 3.33301 -227 10z" />
    <glyph glyph-name="currency" unicode="&#xa4;" horiz-adv-x="562" 
d="M74 108l66 67c-13.333 19.333 -23 37.833 -29 55.5s-9 37.834 -9 60.501s3 42.834 9 60.501s15.667 35.834 29 54.501l-66 68l29 28l67 -65c18 12.667 35.833 22 53.5 28s37.5 9 59.5 9s41.833 -3 59.5 -9s35.5 -15.333 53.5 -28l68 65l28 -28l-65 -68
c13.333 -18.667 22.833 -36.834 28.5 -54.501s8.5 -37.834 8.5 -60.501s-2.83301 -42.834 -8.5 -60.501s-15.167 -36.167 -28.5 -55.5l65 -67l-28 -28l-68 66c-17.333 -12.667 -35 -22.167 -53 -28.5s-38 -9.5 -60 -9.5s-42 3.16699 -60 9.5s-35.667 15.833 -53 28.5
l-67 -66zM385 190c25.333 26 38 59.667 38 101c0 40.667 -12.667 74.334 -38 101.001s-59.333 40 -102 40s-76.667 -13.333 -102 -40s-38 -60.334 -38 -101.001c0 -41.333 12.667 -75 38 -101s59.333 -39 102 -39s76.667 13 102 39z" />
    <glyph glyph-name="yen" unicode="&#xa5;" horiz-adv-x="619" 
d="M286 105l-114.001 0.00195312v37h114v81h-114v37h73c-78 103.333 -144 218 -198 344l46 14c50 -120.667 116 -237.334 198 -350.001h38c82.667 113.333 148.334 230 197.001 350l47 -14c-56.667 -128.667 -122.667 -243.334 -198 -344.001h74v-37h-116v-81h116v-37h-116
v-105h-47v105z" />
    <glyph glyph-name="brokenbar" unicode="&#xa6;" horiz-adv-x="226" 
d="M93 622h41v-318h-41v318zM93 208h41v-318h-41v318z" />
    <glyph glyph-name="section" unicode="&#xa7;" horiz-adv-x="540" 
d="M176 -122c-20.667 3.33301 -44.335 9.00391 -71.002 17.0039l14 39c22.667 -6.66699 43.334 -11.334 62.001 -14.001s41 -4 67 -4c36.667 0 71.667 4 105 12c4.66699 10.667 8.16699 23 10.5 37s3.5 27.333 3.5 40c0 21.333 -4 38 -12 50s-21.667 22.333 -41 31
s-50 19 -92 31c-52 14.667 -89.833 32 -113.5 52s-35.5 47.667 -35.5 83c0 28 6.83301 51.5 20.5 70.5s34.834 36.5 63.501 52.5v6c-17.333 14 -30.5 28.833 -39.5 44.5s-13.5 34.5 -13.5 56.5c0 42 15.333 75.333 46 100s74.667 37 132 37
c49.333 0 92.333 -8.66699 129 -26v-20c0 -23.333 -3.33301 -45 -10 -65h-29l-8 61c-26.667 5.33301 -55 8 -85 8c-42 0 -73.833 -7 -95.5 -21s-32.5 -36.333 -32.5 -67c0 -22.667 5 -41 15 -55s25.5 -25.333 46.5 -34s50.5 -17.334 88.5 -26.001
c40.667 -8.66699 72.5 -17.834 95.5 -27.501s40.5 -22.834 52.5 -39.501s18 -39 18 -67c0 -30.667 -7.5 -56 -22.5 -76s-38.833 -39 -71.5 -57v-6c27.333 -20.667 41 -50 41 -88c0 -41.333 -13.5 -75 -40.5 -101s-69.5 -39 -127.5 -39c-26 0 -49.333 1.66699 -70 5z
M419.999 231.004c0 20 -3.5 35.668 -10.5 47.001s-19.667 21 -38 29s-46.166 16.333 -83.499 25c-38.667 8.66699 -71.334 17.667 -98.001 27c-25.333 -12.667 -43.333 -26.5 -54 -41.5s-16 -34.833 -16 -59.5s8 -43.834 24 -57.501s45.667 -27.167 89 -40.5l115 -36
c48 34 72 69.667 72 107z" />
    <glyph glyph-name="dieresis" unicode="&#xa8;" horiz-adv-x="370" 
d="M83 498c-6 5.33301 -9 13 -9 23s3 17.833 9 23.5s14 8.5 24 8.5s17.833 -2.66699 23.5 -8s8.5 -13.333 8.5 -24c0 -10 -2.83301 -17.667 -8.5 -23s-13.5 -8 -23.5 -8s-18 2.66699 -24 8zM240 498c-6 5.33301 -9 13 -9 23c0 10.667 3 18.667 9 24s14.333 8 25 8
c10 0 17.833 -2.66699 23.5 -8s8.5 -13.333 8.5 -24c0 -10 -2.83301 -17.667 -8.5 -23s-13.5 -8 -23.5 -8c-10.667 0 -19 2.66699 -25 8z" />
    <glyph glyph-name="copyright" unicode="&#xa9;" horiz-adv-x="739" 
d="M210.5 46.5c-45 25 -79.5 60 -103.5 105s-36 97.167 -36 156.5s12 111.5 36 156.5s58.5 80 103.5 105s98.167 37.5 159.5 37.5s114.5 -12.5 159.5 -37.5s79.333 -60 103 -105s35.5 -97.167 35.5 -156.5s-11.833 -111.5 -35.5 -156.5s-58 -80 -103 -105
s-98.167 -37.5 -159.5 -37.5s-114.5 12.5 -159.5 37.5zM515.5 67.5c41 22.333 72.333 54.166 94 95.499s32.5 89.666 32.5 144.999s-10.833 103.666 -32.5 144.999s-53 73.166 -94 95.499s-89.833 33.5 -146.5 33.5c-56 0 -104.5 -11.167 -145.5 -33.5
s-72.333 -54.166 -94 -95.499s-32.5 -89.666 -32.5 -144.999s10.833 -103.666 32.5 -144.999s53 -73.166 94 -95.499s89.5 -33.5 145.5 -33.5c56.667 0 105.5 11.167 146.5 33.5zM261.5 170c-26.333 32 -39.502 75.001 -39.502 129.001c0 54.667 12.5 100 37.5 136
s60.833 54 107.5 54c20.667 0 40.334 -2.33301 59.001 -7s33 -10.334 43 -17.001v-17c0 -18.667 -2.66699 -36 -8 -52h-25l-4 51c-20 3.33301 -42.667 5 -68 5s-47.666 -1.66699 -66.999 -5c-24.667 -42 -37 -91.667 -37 -149c0 -92.667 38 -139 114 -139
c36 0 65.667 6.33301 89 19l15 -33c-28 -15.333 -62.667 -23 -104 -23c-48.667 0 -86.167 16 -112.5 48z" />
    <glyph glyph-name="ordfeminine" unicode="&#xaa;" horiz-adv-x="353" 
d="M77.5 288.5c-15.667 15.667 -23.5 35.832 -23.5 60.499c0 34.667 13.5 61.334 40.5 80.001s63.167 28 108.5 28c17.333 0 35.333 -1.66699 54 -5v60c0 26 -4.83301 43.667 -14.5 53s-28.167 14 -55.5 14c-24 0 -48.333 -2.66699 -73 -8l-6 -41h-23c-4 20 -6 34.667 -6 44
v16c38.667 17.333 78.667 26 120 26c32.667 0 57.167 -8.33301 73.5 -25s24.5 -40.667 24.5 -72v-249h-34l-3 50h-6c-28 -36.667 -64 -55 -108 -55c-30 0 -52.833 7.83301 -68.5 23.5zM211.5 315.998c16.333 9.33301 31.501 23.001 45.501 41.001v59c-22.667 4 -46 6 -70 6
s-50 -2.66699 -78 -8c-9.33301 -16.667 -14 -35.334 -14 -56.001c0 -18.667 4.5 -32.667 13.5 -42s24.5 -14 46.5 -14c21.333 0 40.166 4.66699 56.499 14z" />
    <glyph glyph-name="guillemotleft" unicode="&#xab;" horiz-adv-x="469" 
d="M64 251l130 172l32 -14l-116 -156v-4l116 -156l-32 -14zM224 251l130 172l32 -14l-116 -156v-4l116 -156l-32 -14z" />
    <glyph glyph-name="logicalnot" unicode="&#xac;" horiz-adv-x="447" 
d="M344 292h-283v41h326v-184h-43v143z" />
    <glyph glyph-name="uni00AD" unicode="&#xad;" horiz-adv-x="332" 
d="M68 281h196v-42h-196v42z" />
    <glyph glyph-name="registered" unicode="&#xae;" horiz-adv-x="739" 
d="M210.5 46.5c-45 25 -79.5 60 -103.5 105s-36 97.167 -36 156.5s12 111.5 36 156.5s58.5 80 103.5 105s98.167 37.5 159.5 37.5s114.5 -12.5 159.5 -37.5s79.333 -60 103 -105s35.5 -97.167 35.5 -156.5s-11.833 -111.5 -35.5 -156.5s-58 -80 -103 -105
s-98.167 -37.5 -159.5 -37.5s-114.5 12.5 -159.5 37.5zM515.5 67.5c41 22.333 72.333 54.166 94 95.499s32.5 89.666 32.5 144.999s-10.833 103.666 -32.5 144.999s-53 73.166 -94 95.499s-89.833 33.5 -146.5 33.5c-56 0 -104.5 -11.167 -145.5 -33.5
s-72.333 -54.166 -94 -95.499s-32.5 -89.666 -32.5 -144.999s10.833 -103.666 32.5 -144.999s53 -73.166 94 -95.499s89.5 -33.5 145.5 -33.5c56.667 0 105.5 11.167 146.5 33.5zM455 159l-33.999 75c-8.66699 18 -18.167 31 -28.5 39s-25.833 12 -46.5 12h-51v-149h-37v354
c35.333 8 65.666 12 90.999 12c45.333 0 78.333 -9.16699 99 -27.5s31 -45.5 31 -81.5c0 -49.333 -22.333 -82 -67 -98v-3c17.333 -6.66699 31 -19.667 41 -39l42 -91l23 -5v-19c-10 -3.33301 -19 -5 -27 -5c-15.333 0 -27.333 8.66699 -36 26zM338.001 321
c39.333 0 66.501 5.33301 81.501 16s22.5 28.667 22.5 54c0 27.333 -7 46.833 -21 58.5s-37.333 17.5 -70 17.5c-20.667 0 -39.334 -1.33301 -56.001 -4v-142h43z" />
    <glyph glyph-name="macron" unicode="&#xaf;" horiz-adv-x="392" 
d="M61 586h270v-41h-270v41z" />
    <glyph glyph-name="degree" unicode="&#xb0;" horiz-adv-x="397" 
d="M56 440c0 52.667 14 93.334 42 122.001s69.333 43 124 43c98 0 147 -49.333 147 -148c0 -52.667 -14 -93.334 -42 -122.001s-69.333 -43 -124 -43c-98 0 -147 49.333 -147 148zM306 348c10 32 15 65.667 15 101c0 30 -3.66699 53.167 -11 69.5s-19 27.833 -35 34.5
s-38.333 10 -67 10c-28 0 -58 -4.66699 -90 -14c-10 -32 -15 -65.667 -15 -101c0 -30 3.66699 -53.167 11 -69.5s19 -27.833 35 -34.5s38.333 -10 67 -10c28 0 58 4.66699 90 14z" />
    <glyph glyph-name="plusminus" unicode="&#xb1;" horiz-adv-x="583" 
d="M270 319h-184v39h184v183h43v-183h184v-39h-184v-199h-43v199zM99 38h394v-38h-394v38z" />
    <glyph glyph-name="uni00B2" unicode="&#xb2;" horiz-adv-x="321" 
d="M46 392c120.667 74 181.001 139.667 181.001 197c0 23.333 -5.16699 39.833 -15.5 49.5s-27.5 14.5 -51.5 14.5c-18 0 -38.667 -2 -62 -6v-46h-34c-4.66699 16.667 -7 34.667 -7 54v16c32.667 14 68.667 21 108 21c37.333 0 64.166 -9.16699 80.499 -27.5
s24.5 -42.833 24.5 -73.5c0 -38.667 -16.5 -75.667 -49.5 -111s-76.833 -70 -131.5 -104v-5h147v32h32c5.33301 -14 8 -31 8 -51v-18h-230v58z" />
    <glyph glyph-name="uni00B3" unicode="&#xb3;" horiz-adv-x="307" 
d="M37 342l5.99902 38c32 -8 63.667 -12 95 -12c28 0 51.667 2 71 6c7.33301 15.333 11 33 11 53c0 42 -28 63 -84 63h-36v38h36c49.333 0 74 21.333 74 64c0 21.333 -5.5 37 -16.5 47s-27.5 15 -49.5 15c-20.667 0 -41.667 -1.33301 -63 -4v-37h-33
c-4.66699 16.667 -7 31.667 -7 45v17c32.667 12 67.667 18 105 18c35.333 0 62 -8.66699 80 -26s27 -40.333 27 -69c0 -22.667 -5.33301 -40.667 -16 -54s-27 -24 -49 -32v-3c27.333 -8 46.5 -19 57.5 -33s16.5 -31.333 16.5 -52c0 -28.667 -9.66699 -51.5 -29 -68.5
s-50.666 -25.5 -93.999 -25.5c-36.667 0 -70.667 4 -102 12z" />
    <glyph glyph-name="acute" unicode="&#xb4;" horiz-adv-x="323" 
d="M72 758l84 141l62 -7l-114 -140z" />
    <glyph glyph-name="uni00B5" unicode="&#xb5;" horiz-adv-x="508" 
d="M85 470h45.999v-406c26.667 -18 60 -27 100 -27c32 0 60.167 6.66699 84.5 20s46.166 32.333 65.499 57v356h46v-470h-35l-6 71h-7c-23.333 -26.667 -45.666 -46 -66.999 -58s-49 -18 -83 -18c-35.333 0 -65.666 9.33301 -90.999 28h-7v-236h-46v683z" />
    <glyph glyph-name="paragraph" unicode="&#xb6;" horiz-adv-x="641" 
d="M283 265h-24.001c-59.333 0 -104.666 15 -135.999 45s-47 72.667 -47 128c0 58.667 16 103 48 133s79.667 45 143 45h208v-736h-44v698h-104v-698h-44v385z" />
    <glyph glyph-name="periodcentered" unicode="&#xb7;" horiz-adv-x="340" 
d="M139.5 239c-7.66699 7.33301 -11.5 17.333 -11.5 30s4 22.834 12 30.501s18.333 11.5 31 11.5c13.333 0 23.833 -3.83301 31.5 -11.5s11.5 -17.834 11.5 -30.501s-3.83301 -22.667 -11.5 -30s-18.167 -11 -31.5 -11s-23.833 3.66699 -31.5 11z" />
    <glyph glyph-name="cedilla" unicode="&#xb8;" horiz-adv-x="323" 
d="M96 -200l12.002 32c22 -8 45.667 -12 71 -12c20.667 0 38 2.33301 52 7c4 12 6 24.333 6 37c0 14 -3.66699 24.5 -11 31.5s-19.333 10.5 -36 10.5c-18.667 0 -33.667 -2 -45 -6l-32 31l65 76l30 -6l-52 -69c13.333 6 29.666 9 48.999 9c48.667 0 73 -24.333 73 -73
c0 -56 -34 -84 -102 -84c-28.667 0 -55.334 5.33301 -80.001 16z" />
    <glyph glyph-name="uni00B9" unicode="&#xb9;" horiz-adv-x="222" 
d="M121 645l-4 2.99902l-74 -29l-9 23l80 50c10.667 -0.666992 21.5 -4.16699 32.5 -10.5s16.5 -12.166 16.5 -17.499v-332h-42v313z" />
    <glyph glyph-name="ordmasculine" unicode="&#xba;" horiz-adv-x="372" 
d="M84 307.5c-20.667 28.333 -31 69.168 -31 122.501c0 55.333 11.333 97.5 34 126.5s59 43.5 109 43.5c40.667 0 71.5 -13.833 92.5 -41.5s31.5 -68.834 31.5 -123.501c0 -55.333 -11.333 -97.5 -34 -126.5s-59 -43.5 -109 -43.5c-41.333 0 -72.333 14.167 -93 42.5z
M225 305.502c10.667 1.66699 22 4.50098 34 8.50098c12.667 32 19 69.667 19 113c0 47.333 -7.16699 81.666 -21.5 102.999s-37.833 32 -70.5 32c-15.333 0 -28.333 -0.833008 -39 -2.5s-22 -4.5 -34 -8.5c-12.667 -31.333 -19 -69 -19 -113c0 -46 7.16699 -80 21.5 -102
s37.833 -33 70.5 -33c15.333 0 28.333 0.833008 39 2.5z" />
    <glyph glyph-name="guillemotright" unicode="&#xbb;" horiz-adv-x="450" 
d="M65 93l116 156v4l-116 156l32 14l130 -172l-130 -172zM225 93l116 156v4l-116 156l32 14l130 -172l-130 -172z" />
    <glyph glyph-name="onequarter" unicode="&#xbc;" horiz-adv-x="794" 
d="M164 6l384 613l37 -9l-384 -615zM152 567l-4 2.99902l-73 -29l-9 25l80 50c10.667 -0.666992 21.5 -4.16699 32.5 -10.5s16.5 -12.166 16.5 -17.499v-332h-43v311zM629 70.999h-156l-16 38l171 244h43v-246h55v-36h-55v-71h-42v71zM630 106.999v75
c0 37.333 2.33301 77 7 119h-4l-127 -190l2 -4h122z" />
    <glyph glyph-name="onehalf" unicode="&#xbd;" horiz-adv-x="787" 
d="M164 6l384 613l37 -9l-384 -615zM152 567l-4 2.99902l-73 -29l-9 25l80 50c10.667 -0.666992 21.5 -4.16699 32.5 -10.5s16.5 -12.166 16.5 -17.499v-332h-43v311zM529 57.999c120.667 74 181.001 139.667 181.001 197c0 23.333 -5.16699 39.833 -15.5 49.5
s-27.5 14.5 -51.5 14.5c-18 0 -38.667 -2 -62 -6v-46h-34c-4.66699 16.667 -7 34.667 -7 54v16c33.333 14 69.333 21 108 21c37.333 0 64.166 -9.16699 80.499 -27.5s24.5 -42.833 24.5 -73.5c0 -38.667 -16.5 -75.667 -49.5 -111s-76.833 -70 -131.5 -104v-5h147v32h32
c5.33301 -14 8 -31 8 -51v-18h-230v58z" />
    <glyph glyph-name="threequarters" unicode="&#xbe;" horiz-adv-x="821" 
d="M220 6l384 613l37 -9l-384 -615zM69 261l5.99902 38c32 -8 63.667 -12 95 -12c28 0 51.667 2 71 6c7.33301 15.333 11 33 11 53c0 42 -28 63 -84 63h-36v38h36c49.333 0 74 21.333 74 64c0 21.333 -5.5 37 -16.5 47s-27.5 15 -49.5 15c-20.667 0 -41.667 -1.33301 -63 -4
v-37h-33c-4.66699 16.667 -7 31.667 -7 45v17c32.667 12 67.667 18 105 18c35.333 0 62 -8.66699 80 -26s27 -40.333 27 -69c0 -22.667 -5.33301 -40.667 -16 -54s-27 -24 -49 -32v-3c27.333 -8 46.5 -19 57.5 -33s16.5 -31.333 16.5 -52
c0 -28.667 -9.66699 -51.5 -29 -68.5s-50.666 -25.5 -93.999 -25.5c-36.667 0 -70.667 4 -102 12zM655.999 71h-156l-16 38l171 244h43v-246h55v-36h-55v-71h-42v71zM657.999 107v75c0 37.333 2.33301 77 7 119h-4l-127 -190l2 -4h122z" />
    <glyph glyph-name="questiondown" unicode="&#xbf;" horiz-adv-x="509" 
d="M255 517h50v-79h-50v79zM112 -67c-27.333 26 -40.999 65.6689 -40.999 119.002c0 30 3.66699 54.167 11 72.5s21.333 35.5 42 51.5l112 83c9.33301 7.33301 15.166 13.666 17.499 18.999s3.5 14.666 3.5 27.999v57h47v-66c0 -14 -2 -25.167 -6 -33.5
s-11.333 -16.5 -22 -24.5l-158 -119v-72c0 -39.333 10 -67.5 30 -84.5s53 -25.5 99 -25.5c51.333 0 98.666 6 141.999 18v77h32c8.66699 -26 13 -51 13 -75v-26c-20.667 -10 -48.167 -18.833 -82.5 -26.5s-69.833 -11.5 -106.5 -11.5c-61.333 0 -105.666 13 -132.999 39z
" />
    <glyph glyph-name="Agrave" unicode="&#xc0;" horiz-adv-x="580" 
d="M162 851l62 6l84 -140l-32 -6zM44 6c64.667 233.333 128.667 435.333 192 606h108c63.333 -170.667 127.333 -372.667 192 -606l-49 -6c-18 70 -38.333 141.667 -61 215h-273c-24.667 -84 -44.667 -155.667 -60 -215zM412 258
c-40.667 137.333 -74.001 240.333 -100.001 309h-46c-12.667 -35.333 -28.667 -82.5 -48 -141.5s-36.666 -114.833 -51.999 -167.5h246z" />
    <glyph glyph-name="Aacute" unicode="&#xc1;" horiz-adv-x="580" 
d="M271 713l84 141l62 -7l-114 -139zM44 6c64.667 233.333 128.667 435.333 192 606h108c63.333 -170.667 127.333 -372.667 192 -606l-49 -6c-18 70 -38.333 141.667 -61 215h-273c-24.667 -84 -44.667 -155.667 -60 -215zM412 258
c-40.667 137.333 -74.001 240.333 -100.001 309h-46c-12.667 -35.333 -28.667 -82.5 -48 -141.5s-36.666 -114.833 -51.999 -167.5h246z" />
    <glyph glyph-name="Acircumflex" unicode="&#xc2;" horiz-adv-x="580" 
d="M163 714l102 131h49l101 -131l-30 -7l-93 98h-5l-94 -98zM44 6c64.667 233.333 128.667 435.333 192 606h108c63.333 -170.667 127.333 -372.667 192 -606l-49 -6c-18 70 -38.333 141.667 -61 215h-273c-24.667 -84 -44.667 -155.667 -60 -215zM412 258
c-40.667 137.333 -74.001 240.333 -100.001 309h-46c-12.667 -35.333 -28.667 -82.5 -48 -141.5s-36.666 -114.833 -51.999 -167.5h246z" />
    <glyph glyph-name="Atilde" unicode="&#xc3;" horiz-adv-x="580" 
d="M153 718c1.33301 26.667 8.33301 47.335 21 62.002s30 22 52 22c11.333 0 21.5 -2.5 30.5 -7.5s20.167 -12.167 33.5 -21.5c12 -8.66699 21.5 -14.834 28.5 -18.501s14.5 -5.5 22.5 -5.5c26 0 41.333 18 46 54l31 -10c-1.33301 -26.667 -8.33301 -47.334 -21 -62.001
s-30 -22 -52 -22c-11.333 0 -22 2.5 -32 7.5s-21.333 12.167 -34 21.5c-20 16 -36.333 24 -49 24c-26 0 -41.333 -17.667 -46 -53zM44 6.00098c64.667 233.333 128.667 435.333 192 606h108c63.333 -170.667 127.333 -372.667 192 -606l-49 -6
c-18 70 -38.333 141.667 -61 215h-273c-24.667 -84 -44.667 -155.667 -60 -215zM412 258.001c-40.667 137.333 -74.001 240.333 -100.001 309h-46c-12.667 -35.333 -28.667 -82.5 -48 -141.5s-36.666 -114.833 -51.999 -167.5h246z" />
    <glyph glyph-name="Adieresis" unicode="&#xc4;" horiz-adv-x="580" 
d="M186 717.5c-6 5.66699 -9 13.167 -9 22.5c0 10 3 17.833 9 23.5s14 8.5 24 8.5s17.833 -2.66699 23.5 -8s8.5 -13.333 8.5 -24c0 -9.33301 -2.83301 -16.833 -8.5 -22.5s-13.5 -8.5 -23.5 -8.5s-18 2.83301 -24 8.5zM343 717.5c-6 5.66699 -9 13.167 -9 22.5
c0 10.667 3 18.667 9 24s14.333 8 25 8c10 0 17.833 -2.66699 23.5 -8s8.5 -13.333 8.5 -24c0 -9.33301 -2.83301 -16.833 -8.5 -22.5s-13.5 -8.5 -23.5 -8.5c-10.667 0 -19 2.83301 -25 8.5zM44 6c64.667 233.333 128.667 435.333 192 606h108
c63.333 -170.667 127.333 -372.667 192 -606l-49 -6c-18 70 -38.333 141.667 -61 215h-273c-24.667 -84 -44.667 -155.667 -60 -215zM412 258c-40.667 137.333 -74.001 240.333 -100.001 309h-46c-12.667 -35.333 -28.667 -82.5 -48 -141.5s-36.666 -114.833 -51.999 -167.5
h246z" />
    <glyph glyph-name="Aring" unicode="&#xc5;" horiz-adv-x="580" 
d="M208.5 725.5c-17 13.667 -25.5 33.834 -25.5 60.501c0 25.333 10.5 47.166 31.5 65.499s48.833 27.5 83.5 27.5c64.667 0 97 -27.667 97 -83c0 -25.333 -10 -46.833 -30 -64.5s-48 -26.5 -84 -26.5c-31.333 0 -55.5 6.83301 -72.5 20.5zM350 745c6 18 9 34.333 9 49
c0 35.333 -21.667 53 -65 53c-27.333 0 -49.333 -2.66699 -66 -8c-6 -18 -9 -35 -9 -51c0 -34 21.333 -51 64 -51c28 0 50.333 2.66699 67 8zM44 6c64.667 233.333 128.667 435.333 192 606h108c63.333 -170.667 127.333 -372.667 192 -606l-49 -6
c-18 70 -38.333 141.667 -61 215h-273c-24.667 -84 -44.667 -155.667 -60 -215zM412 258c-40.667 137.333 -74.001 240.333 -100.001 309h-46c-12.667 -35.333 -28.667 -82.5 -48 -141.5s-36.666 -114.833 -51.999 -167.5h246z" />
    <glyph glyph-name="AE" unicode="&#xc6;" horiz-adv-x="922" 
d="M488 60v156h-285c-36 -64.667 -73.667 -136.667 -113 -216l-46 16c111.333 222 221 420.667 329 596h470v-44h-308v-238h279v-44h-279v-238c48.667 -9.33301 100.667 -14 156 -14s106.333 5 153 15l11 -42c-46 -11.333 -101.667 -17 -167 -17
c-133.333 0 -200 23.333 -200 70zM488 260v307h-88c-72 -118 -130.333 -220.333 -175 -307h263z" />
    <glyph glyph-name="Ccedilla" unicode="&#xc7;" horiz-adv-x="547" 
d="M213 -200l12.001 32c22 -8 45.667 -12 71 -12c20.667 0 38 2.33301 52 7c4 8.66699 6 21 6 37c0 14 -3.66699 24.5 -11 31.5s-19 10.5 -35 10.5c-19.333 0 -34.666 -2 -45.999 -6l-31 31l51 61c-74.667 6.66699 -130.334 35.5 -167.001 86.5s-55 122.5 -55 214.5
c0 98 20.833 177.333 62.5 238s104.834 91 189.501 91c32.667 0 62.667 -3.5 90 -10.5s50.666 -15.833 69.999 -26.5v-38c0 -27.333 -2.66699 -49 -8 -65h-28l-11 84c-33.333 7.33301 -71.333 11 -114 11c-44 0 -86.333 -6.33301 -127 -19
c-51.333 -69.333 -77 -157 -77 -263c0 -87.333 17.167 -152.5 51.5 -195.5s87.166 -64.5 158.499 -64.5c63.333 0 116.333 13.667 159 41l23 -36c-42 -30.667 -99 -47 -171 -49h-11l-44 -59c14 6 30.333 9 49 9c48.667 0 73 -24.333 73 -73c0 -56 -33.667 -84 -101 -84
c-29.333 0 -56.333 5.33301 -81 16z" />
    <glyph glyph-name="Egrave" unicode="&#xc8;" horiz-adv-x="520" 
d="M156 847l62 7l84 -141l-32 -5zM86 61l-0.000976562 551h355v-44h-308v-238h279v-44h-279v-238c48.667 -9.33301 100.334 -14 155.001 -14s106 5 154 15l11 -42c-47.333 -10.667 -103.333 -16 -168 -16c-132.667 0 -199 23.333 -199 70z" />
    <glyph glyph-name="Eacute" unicode="&#xc9;" horiz-adv-x="520" 
d="M240 717l84 140l62 -6l-114 -140zM86 61l-0.000976562 551h355v-44h-308v-238h279v-44h-279v-238c48.667 -9.33301 100.334 -14 155.001 -14s106 5 154 15l11 -42c-47.333 -10.667 -103.333 -16 -168 -16c-132.667 0 -199 23.333 -199 70z" />
    <glyph glyph-name="Ecircumflex" unicode="&#xca;" horiz-adv-x="520" 
d="M135 714l102 131h49l101 -131l-30 -7l-93 98h-5l-94 -98zM86 61l-0.000976562 551h355v-44h-308v-238h279v-44h-279v-238c48.667 -9.33301 100.334 -14 155.001 -14s106 5 154 15l11 -42c-47.333 -10.667 -103.333 -16 -168 -16c-132.667 0 -199 23.333 -199 70z" />
    <glyph glyph-name="Edieresis" unicode="&#xcb;" horiz-adv-x="520" 
d="M165 717.5c-6 5.66699 -9 13.167 -9 22.5c0 10 3 17.833 9 23.5s14 8.5 24 8.5s17.833 -2.66699 23.5 -8s8.5 -13.333 8.5 -24c0 -9.33301 -2.83301 -16.833 -8.5 -22.5s-13.5 -8.5 -23.5 -8.5s-18 2.83301 -24 8.5zM322 717.5c-6 5.66699 -9 13.167 -9 22.5
c0 10.667 3 18.667 9 24s14.333 8 25 8c10 0 17.833 -2.66699 23.5 -8s8.5 -13.333 8.5 -24c0 -9.33301 -2.83301 -16.833 -8.5 -22.5s-13.5 -8.5 -23.5 -8.5c-10.667 0 -19 2.83301 -25 8.5zM86 61l-0.000976562 551h355v-44h-308v-238h279v-44h-279v-238
c48.667 -9.33301 100.334 -14 155.001 -14s106 5 154 15l11 -42c-47.333 -10.667 -103.333 -16 -168 -16c-132.667 0 -199 23.333 -199 70z" />
    <glyph glyph-name="Igrave" unicode="&#xcc;" horiz-adv-x="225" 
d="M-10 847l62 7l84 -141l-32 -5zM89 612h47v-612h-47v612z" />
    <glyph glyph-name="Iacute" unicode="&#xcd;" horiz-adv-x="225" 
d="M92 713l84 141l62 -7l-114 -139zM89 612h47v-612h-47v612z" />
    <glyph glyph-name="Icircumflex" unicode="&#xce;" horiz-adv-x="225" 
d="M-14 714l102 131h49l102 -131l-31 -7l-92 98h-6l-93 -98zM89 612h47v-612h-47v612z" />
    <glyph glyph-name="Idieresis" unicode="&#xcf;" horiz-adv-x="225" 
d="M9 717.5c-6 5.66699 -9 13.167 -9 22.5c0 10 3 17.833 9 23.5s14 8.5 24 8.5s17.833 -2.66699 23.5 -8s8.5 -13.333 8.5 -24c0 -9.33301 -2.83301 -16.833 -8.5 -22.5s-13.5 -8.5 -23.5 -8.5s-18 2.83301 -24 8.5zM166 717.5c-6 5.66699 -9 13.167 -9 22.5
c0 10.667 3 18.667 9 24s14.333 8 25 8c10 0 17.833 -2.66699 23.5 -8s8.5 -13.333 8.5 -24c0 -9.33301 -2.83301 -16.833 -8.5 -22.5s-13.5 -8.5 -23.5 -8.5c-10.667 0 -19 2.83301 -25 8.5zM89 612h47v-612h-47v612z" />
    <glyph glyph-name="Eth" unicode="&#xd0;" horiz-adv-x="622" 
d="M144 303h-99.001v40h99v262c58 11.333 111.667 17 161 17c92.667 0 160.167 -25.5 202.5 -76.5s63.5 -127.167 63.5 -228.5c0 -96.667 -19.167 -173.667 -57.5 -231s-105.166 -86 -200.499 -86h-169v303zM310.999 44c30 0 55.6689 1.50098 77.002 4.50098
s42.666 7.83301 63.999 14.5c23.333 26 41.166 60.167 53.499 102.5s18.5 91.166 18.5 146.499c0 92.667 -17.333 160.167 -52 202.5s-91.667 63.5 -171 63.5c-31.333 0 -68 -3 -110 -9v-226h116v-40h-116v-259h120z" />
    <glyph glyph-name="Ntilde" unicode="&#xd1;" horiz-adv-x="610" 
d="M173 719c1.33301 26.667 8.33301 47.335 21 62.002s30 22 52 22c11.333 0 21.5 -2.5 30.5 -7.5s20.167 -12.167 33.5 -21.5c12 -8.66699 21.5 -14.834 28.5 -18.501s14.5 -5.5 22.5 -5.5c26 0 41.333 18 46 54l31 -10c-1.33301 -26.667 -8.33301 -47.334 -21 -62.001
s-30 -22 -52 -22c-11.333 0 -22 2.5 -32 7.5s-21.333 12.167 -34 21.5c-20 16 -36.333 24 -49 24c-26 0 -41.333 -17.667 -46 -53zM86 612.001h53l339 -540l6 2l-7 214v324h47v-612h-53l-339 540l-7 -2l8 -214v-324h-47v612z" />
    <glyph glyph-name="Ograve" unicode="&#xd2;" horiz-adv-x="602" 
d="M195 846l62 7l84 -141l-32 -5zM116.5 68c-37 51.333 -55.5 127.667 -55.5 229c0 105.333 19 185.833 57 241.5s102.667 83.5 194 83.5c79.333 0 137.333 -25.667 174 -77s55 -128 55 -230c0 -106 -18.833 -186.5 -56.5 -241.5s-102.5 -82.5 -194.5 -82.5
c-78.667 0 -136.5 25.667 -173.5 77zM375.5 42.501c23.667 5 43.167 11.833 58.5 20.5c40 61.333 60 141.666 60 240.999c0 63.333 -6 114.833 -18 154.5s-32.5 69.334 -61.5 89.001s-68.167 29.5 -117.5 29.5c-24 0 -47.833 -2.5 -71.5 -7.5s-43.167 -11.833 -58.5 -20.5
c-39.333 -61.333 -59 -141.666 -59 -240.999c0 -63.333 6.16699 -114.833 18.5 -154.5s32.833 -69.334 61.5 -89.001s67.667 -29.5 117 -29.5c23.333 0 46.833 2.5 70.5 7.5z" />
    <glyph glyph-name="Oacute" unicode="&#xd3;" horiz-adv-x="602" 
d="M285 713l84 141l62 -7l-114 -140zM116.5 68c-37 51.333 -55.5 127.667 -55.5 229c0 105.333 19 185.833 57 241.5s102.667 83.5 194 83.5c79.333 0 137.333 -25.667 174 -77s55 -128 55 -230c0 -106 -18.833 -186.5 -56.5 -241.5s-102.5 -82.5 -194.5 -82.5
c-78.667 0 -136.5 25.667 -173.5 77zM375.5 42.501c23.667 5 43.167 11.833 58.5 20.5c40 61.333 60 141.666 60 240.999c0 63.333 -6 114.833 -18 154.5s-32.5 69.334 -61.5 89.001s-68.167 29.5 -117.5 29.5c-24 0 -47.833 -2.5 -71.5 -7.5s-43.167 -11.833 -58.5 -20.5
c-39.333 -61.333 -59 -141.666 -59 -240.999c0 -63.333 6.16699 -114.833 18.5 -154.5s32.833 -69.334 61.5 -89.001s67.667 -29.5 117 -29.5c23.333 0 46.833 2.5 70.5 7.5z" />
    <glyph glyph-name="Ocircumflex" unicode="&#xd4;" horiz-adv-x="602" 
d="M183 714l102 131h49l101 -131l-30 -7l-93 98h-5l-94 -98zM116.5 68c-37 51.333 -55.5 127.667 -55.5 229c0 105.333 19 185.833 57 241.5s102.667 83.5 194 83.5c79.333 0 137.333 -25.667 174 -77s55 -128 55 -230c0 -106 -18.833 -186.5 -56.5 -241.5
s-102.5 -82.5 -194.5 -82.5c-78.667 0 -136.5 25.667 -173.5 77zM375.5 42.501c23.667 5 43.167 11.833 58.5 20.5c40 61.333 60 141.666 60 240.999c0 63.333 -6 114.833 -18 154.5s-32.5 69.334 -61.5 89.001s-68.167 29.5 -117.5 29.5c-24 0 -47.833 -2.5 -71.5 -7.5
s-43.167 -11.833 -58.5 -20.5c-39.333 -61.333 -59 -141.666 -59 -240.999c0 -63.333 6.16699 -114.833 18.5 -154.5s32.833 -69.334 61.5 -89.001s67.667 -29.5 117 -29.5c23.333 0 46.833 2.5 70.5 7.5z" />
    <glyph glyph-name="Otilde" unicode="&#xd5;" horiz-adv-x="602" 
d="M170 715c1.33301 26.667 8.33105 47.502 20.998 62.502s30 22.5 52 22.5c11.333 0 21.5 -2.5 30.5 -7.5s20.167 -12.167 33.5 -21.5c12 -8.66699 21.5 -14.834 28.5 -18.501s14.5 -5.5 22.5 -5.5c26 0 41.333 17.667 46 53l31 -9
c-1.33301 -26.667 -8.33301 -47.5 -21 -62.5s-30 -22.5 -52 -22.5c-11.333 0 -22.166 2.66699 -32.499 8s-21.5 12.666 -33.5 21.999c-10.667 8 -19.667 14 -27 18s-14.666 6 -21.999 6c-26 0 -41.333 -18 -46 -54zM116.498 68.002c-37 51.333 -55.5 127.667 -55.5 229
c0 105.333 19 185.833 57 241.5s102.667 83.5 194 83.5c79.333 0 137.333 -25.667 174 -77s55 -128 55 -230c0 -106 -18.833 -186.5 -56.5 -241.5s-102.5 -82.5 -194.5 -82.5c-78.667 0 -136.5 25.667 -173.5 77zM375.498 42.5029c23.667 5 43.167 11.833 58.5 20.5
c40 61.333 60 141.666 60 240.999c0 63.333 -6 114.833 -18 154.5s-32.5 69.334 -61.5 89.001s-68.167 29.5 -117.5 29.5c-24 0 -47.833 -2.5 -71.5 -7.5s-43.167 -11.833 -58.5 -20.5c-39.333 -61.333 -59 -141.666 -59 -240.999c0 -63.333 6.16699 -114.833 18.5 -154.5
s32.833 -69.334 61.5 -89.001s67.667 -29.5 117 -29.5c23.333 0 46.833 2.5 70.5 7.5z" />
    <glyph glyph-name="Odieresis" unicode="&#xd6;" horiz-adv-x="602" 
d="M199 717.5c-6 5.66699 -9 13.167 -9 22.5c0 10 3 17.833 9 23.5s14 8.5 24 8.5s17.833 -2.66699 23.5 -8s8.5 -13.333 8.5 -24c0 -9.33301 -2.83301 -16.833 -8.5 -22.5s-13.5 -8.5 -23.5 -8.5s-18 2.83301 -24 8.5zM356 717.5c-6 5.66699 -9 13.167 -9 22.5
c0 10.667 3 18.667 9 24s14.333 8 25 8c10 0 17.833 -2.66699 23.5 -8s8.5 -13.333 8.5 -24c0 -9.33301 -2.83301 -16.833 -8.5 -22.5s-13.5 -8.5 -23.5 -8.5c-10.667 0 -19 2.83301 -25 8.5zM116.5 68c-37 51.333 -55.5 127.667 -55.5 229c0 105.333 19 185.833 57 241.5
s102.667 83.5 194 83.5c79.333 0 137.333 -25.667 174 -77s55 -128 55 -230c0 -106 -18.833 -186.5 -56.5 -241.5s-102.5 -82.5 -194.5 -82.5c-78.667 0 -136.5 25.667 -173.5 77zM375.5 42.501c23.667 5 43.167 11.833 58.5 20.5c40 61.333 60 141.666 60 240.999
c0 63.333 -6 114.833 -18 154.5s-32.5 69.334 -61.5 89.001s-68.167 29.5 -117.5 29.5c-24 0 -47.833 -2.5 -71.5 -7.5s-43.167 -11.833 -58.5 -20.5c-39.333 -61.333 -59 -141.666 -59 -240.999c0 -63.333 6.16699 -114.833 18.5 -154.5s32.833 -69.334 61.5 -89.001
s67.667 -29.5 117 -29.5c23.333 0 46.833 2.5 70.5 7.5z" />
    <glyph glyph-name="multiply" unicode="&#xd7;" horiz-adv-x="473" 
d="M62 168l146 140l-147 139l30 28l146 -144l146 144l30 -28l-148 -139l147 -140l-29 -27l-146 144l-146 -144z" />
    <glyph glyph-name="Oslash" unicode="&#xd8;" horiz-adv-x="608" 
d="M110 -58l41.999 91.001c-58.667 47.333 -88 135.333 -88 264c0 105.333 19 185.833 57 241.5s102.667 83.5 194 83.5c38.667 0 71.667 -6.33301 99 -19l34 74l40 -10l-38 -83c32.667 -23.333 56.5 -57.333 71.5 -102s22.5 -100.334 22.5 -167.001
c0 -106 -18.833 -186.667 -56.5 -242s-102.5 -83 -194.5 -83c-39.333 0 -74.666 7.33301 -105.999 22l-37 -81zM393.999 560.001c-26 11.333 -57.333 16.999 -94 16.999c-24 0 -47.833 -2.5 -71.5 -7.5s-43.167 -11.833 -58.5 -20.5
c-39.333 -61.333 -59 -141.666 -59 -240.999c0 -56 4.83301 -102.833 14.5 -140.5s25.5 -67.167 47.5 -88.5zM378.499 42.5c23 5 42.5 11.833 58.5 20.5c19.333 30 34.333 65.333 45 106s16 85.667 16 135c0 58.667 -5.33301 107.167 -16 145.5s-28.334 67.833 -53.001 88.5
l-222 -483c24.667 -13.333 58.334 -20 101.001 -20c24 0 47.5 2.5 70.5 7.5z" />
    <glyph glyph-name="Ugrave" unicode="&#xd9;" horiz-adv-x="592" 
d="M181 846l62 7l84 -141l-32 -5zM134 34.5c-34.667 29 -52.001 73.5 -52.001 133.5v444h47v-432c0 -37.333 5.83301 -66.5 17.5 -87.5s29.834 -35.833 54.501 -44.5s57.334 -13 98.001 -13c64 0 118 9.33301 162 28v549h47v-526c0 -30.667 -19.5 -54.167 -58.5 -70.5
s-91.5 -24.5 -157.5 -24.5c-70.667 0 -123.334 14.5 -158.001 43.5z" />
    <glyph glyph-name="Uacute" unicode="&#xda;" horiz-adv-x="592" 
d="M268 712l84 141l62 -7l-114 -139zM134 34.5c-34.667 29 -52.001 73.5 -52.001 133.5v444h47v-432c0 -37.333 5.83301 -66.5 17.5 -87.5s29.834 -35.833 54.501 -44.5s57.334 -13 98.001 -13c64 0 118 9.33301 162 28v549h47v-526c0 -30.667 -19.5 -54.167 -58.5 -70.5
s-91.5 -24.5 -157.5 -24.5c-70.667 0 -123.334 14.5 -158.001 43.5z" />
    <glyph glyph-name="Ucircumflex" unicode="&#xdb;" horiz-adv-x="592" 
d="M171 714l102 131h49l101 -131l-30 -7l-93 98h-5l-94 -98zM134 34.5c-34.667 29 -52.001 73.5 -52.001 133.5v444h47v-432c0 -37.333 5.83301 -66.5 17.5 -87.5s29.834 -35.833 54.501 -44.5s57.334 -13 98.001 -13c64 0 118 9.33301 162 28v549h47v-526
c0 -30.667 -19.5 -54.167 -58.5 -70.5s-91.5 -24.5 -157.5 -24.5c-70.667 0 -123.334 14.5 -158.001 43.5z" />
    <glyph glyph-name="Udieresis" unicode="&#xdc;" horiz-adv-x="592" 
d="M195 717.5c-6 5.66699 -9 13.167 -9 22.5c0 10 3 17.833 9 23.5s14 8.5 24 8.5s17.833 -2.66699 23.5 -8s8.5 -13.333 8.5 -24c0 -9.33301 -2.83301 -16.833 -8.5 -22.5s-13.5 -8.5 -23.5 -8.5s-18 2.83301 -24 8.5zM352 717.5c-6 5.66699 -9 13.167 -9 22.5
c0 10.667 3 18.667 9 24s14.333 8 25 8c10 0 17.833 -2.66699 23.5 -8s8.5 -13.333 8.5 -24c0 -9.33301 -2.83301 -16.833 -8.5 -22.5s-13.5 -8.5 -23.5 -8.5c-10.667 0 -19 2.83301 -25 8.5zM134 34.5c-34.667 29 -52.001 73.5 -52.001 133.5v444h47v-432
c0 -37.333 5.83301 -66.5 17.5 -87.5s29.834 -35.833 54.501 -44.5s57.334 -13 98.001 -13c64 0 118 9.33301 162 28v549h47v-526c0 -30.667 -19.5 -54.167 -58.5 -70.5s-91.5 -24.5 -157.5 -24.5c-70.667 0 -123.334 14.5 -158.001 43.5z" />
    <glyph glyph-name="Yacute" unicode="&#xdd;" horiz-adv-x="591" 
d="M268 713l84 141l62 -7l-114 -140zM272 228h-18.999c-86.667 107.333 -160.334 232.666 -221.001 375.999l47 14c26 -65.333 56.333 -128.5 91 -189.5s70.334 -114.833 107.001 -161.5h37c36.667 48 72.5 102.333 107.5 163s65.167 123.334 90.5 188.001l47 -14
c-62.667 -146 -136.334 -271.333 -221.001 -376h-19v-228h-47v228z" />
    <glyph glyph-name="Thorn" unicode="&#xde;" horiz-adv-x="475" 
d="M86 616l47 0.000976562v-128h116c57.333 0 100.833 -14 130.5 -42s44.5 -69 44.5 -123c0 -54.667 -14.833 -96.334 -44.5 -125.001s-73.167 -43 -130.5 -43h-116v-155h-47v616zM245 198.001c48 0 82 10.167 102 30.5s30 51.833 30 94.5c0 42 -10 72.667 -30 92
s-54 29 -102 29h-112v-246h112z" />
    <glyph glyph-name="germandbls" unicode="&#xdf;" horiz-adv-x="535" 
d="M216 2l7.99902 40.999c25.333 -6 49 -9 71 -9c39.333 0 69 3.33301 89 10c18.667 38.667 28 81.667 28 129c0 48 -13.333 85.167 -40 111.5s-68.667 41.5 -126 45.5v44c42.667 0 74.834 11 96.501 33s32.5 52.667 32.5 92c0 78 -42.333 117 -127 117
c-40 0 -79.667 -5 -119 -15v-601h-46v532c0 44 15.333 76.333 46 97s73.667 31 129 31c51.333 0 91.333 -14 120 -42s43 -66.333 43 -115c0 -40 -8.33301 -71 -25 -93s-43.667 -39.667 -81 -53v-6c51.333 -12.667 88 -33.667 110 -63s33 -67.333 33 -114
c0 -57.333 -13 -102.166 -39 -134.499s-67.333 -48.5 -124 -48.5c-26 0 -52.333 3.66699 -79 11z" />
    <glyph glyph-name="agrave" unicode="&#xe0;" horiz-adv-x="459" 
d="M134 702l62 7l84 -141l-32 -5zM82.5 21.5c-22.333 20.333 -33.499 47.832 -33.499 82.499c0 50 17.5 87.5 52.5 112.5s84.833 37.5 149.5 37.5c32 0 60.667 -1.66699 86 -5v73c0 42.667 -8.66699 72.334 -26 89.001s-46.666 25 -87.999 25
c-22.667 0 -51.334 -2 -86.001 -6l-10 -70h-33c-6 17.333 -9 36.333 -9 57v14c21.333 12 46.333 22.167 75 30.5s57 12.5 85 12.5c44 0 77.833 -12.167 101.5 -36.5s35.5 -59.5 35.5 -105.5v-332h-37l-4 67h-7c-38.667 -50.667 -90.334 -76 -155.001 -76
c-42 0 -74.167 10.167 -96.5 30.5zM273.501 50.499c26.333 14.333 47.832 34.499 64.499 60.499v101c-30 4.66699 -65 7 -105 7c-41.333 0 -78.666 -4 -111.999 -12c-18 -28.667 -27 -60 -27 -94c0 -31.333 7.83301 -53.166 23.5 -65.499s38.834 -18.5 69.501 -18.5
c31.333 0 60.166 7.16699 86.499 21.5z" />
    <glyph glyph-name="aacute" unicode="&#xe1;" horiz-adv-x="459" 
d="M223 568l84 141l62 -7l-114 -139zM82.5 21.5c-22.333 20.333 -33.499 47.832 -33.499 82.499c0 50 17.5 87.5 52.5 112.5s84.833 37.5 149.5 37.5c32 0 60.667 -1.66699 86 -5v73c0 42.667 -8.66699 72.334 -26 89.001s-46.666 25 -87.999 25
c-22.667 0 -51.334 -2 -86.001 -6l-10 -70h-33c-6 17.333 -9 36.333 -9 57v14c21.333 12 46.333 22.167 75 30.5s57 12.5 85 12.5c44 0 77.833 -12.167 101.5 -36.5s35.5 -59.5 35.5 -105.5v-332h-37l-4 67h-7c-38.667 -50.667 -90.334 -76 -155.001 -76
c-42 0 -74.167 10.167 -96.5 30.5zM273.501 50.499c26.333 14.333 47.832 34.499 64.499 60.499v101c-30 4.66699 -65 7 -105 7c-41.333 0 -78.666 -4 -111.999 -12c-18 -28.667 -27 -60 -27 -94c0 -31.333 7.83301 -53.166 23.5 -65.499s38.834 -18.5 69.501 -18.5
c31.333 0 60.166 7.16699 86.499 21.5z" />
    <glyph glyph-name="acircumflex" unicode="&#xe2;" horiz-adv-x="459" 
d="M112 569l102 131h49l101 -131l-30 -7l-93 98h-5l-94 -98zM82.5 21.5c-22.333 20.333 -33.499 47.832 -33.499 82.499c0 50 17.5 87.5 52.5 112.5s84.833 37.5 149.5 37.5c32 0 60.667 -1.66699 86 -5v73c0 42.667 -8.66699 72.334 -26 89.001s-46.666 25 -87.999 25
c-22.667 0 -51.334 -2 -86.001 -6l-10 -70h-33c-6 17.333 -9 36.333 -9 57v14c21.333 12 46.333 22.167 75 30.5s57 12.5 85 12.5c44 0 77.833 -12.167 101.5 -36.5s35.5 -59.5 35.5 -105.5v-332h-37l-4 67h-7c-38.667 -50.667 -90.334 -76 -155.001 -76
c-42 0 -74.167 10.167 -96.5 30.5zM273.501 50.499c26.333 14.333 47.832 34.499 64.499 60.499v101c-30 4.66699 -65 7 -105 7c-41.333 0 -78.666 -4 -111.999 -12c-18 -28.667 -27 -60 -27 -94c0 -31.333 7.83301 -53.166 23.5 -65.499s38.834 -18.5 69.501 -18.5
c31.333 0 60.166 7.16699 86.499 21.5z" />
    <glyph glyph-name="atilde" unicode="&#xe3;" horiz-adv-x="459" 
d="M108 570c1.33301 26.667 8.33301 47.335 21 62.002s30 22 52 22c11.333 0 21.5 -2.5 30.5 -7.5s20.167 -12.167 33.5 -21.5c12 -8.66699 21.5 -14.834 28.5 -18.501s14.5 -5.5 22.5 -5.5c26 0 41.333 18 46 54l31 -10c-1.33301 -26.667 -8.33301 -47.334 -21 -62.001
s-30 -22 -52 -22c-11.333 0 -22 2.5 -32 7.5s-21.333 12.167 -34 21.5c-20 16 -36.333 24 -49 24c-26 0 -41.333 -18 -46 -54zM82.5 21.501c-22.333 20.333 -33.499 47.832 -33.499 82.499c0 50 17.5 87.5 52.5 112.5s84.833 37.5 149.5 37.5c32 0 60.667 -1.66699 86 -5v73
c0 42.667 -8.66699 72.334 -26 89.001s-46.666 25 -87.999 25c-22.667 0 -51.334 -2 -86.001 -6l-10 -70h-33c-6 17.333 -9 36.333 -9 57v14c21.333 12 46.333 22.167 75 30.5s57 12.5 85 12.5c44 0 77.833 -12.167 101.5 -36.5s35.5 -59.5 35.5 -105.5v-332h-37l-4 67h-7
c-38.667 -50.667 -90.334 -76 -155.001 -76c-42 0 -74.167 10.167 -96.5 30.5zM273.501 50.5c26.333 14.333 47.832 34.499 64.499 60.499v101c-30 4.66699 -65 7 -105 7c-41.333 0 -78.666 -4 -111.999 -12c-18 -28.667 -27 -60 -27 -94
c0 -31.333 7.83301 -53.166 23.5 -65.499s38.834 -18.5 69.501 -18.5c31.333 0 60.166 7.16699 86.499 21.5z" />
    <glyph glyph-name="adieresis" unicode="&#xe4;" horiz-adv-x="459" 
d="M137 569c-6 5.33301 -9 13 -9 23s3 17.833 9 23.5s14 8.5 24 8.5s17.833 -2.66699 23.5 -8s8.5 -13.333 8.5 -24c0 -10 -2.83301 -17.667 -8.5 -23s-13.5 -8 -23.5 -8s-18 2.66699 -24 8zM294 569c-6 5.33301 -9 13 -9 23c0 10.667 3 18.667 9 24s14.333 8 25 8
c10 0 17.833 -2.66699 23.5 -8s8.5 -13.333 8.5 -24c0 -10 -2.83301 -17.667 -8.5 -23s-13.5 -8 -23.5 -8c-10.667 0 -19 2.66699 -25 8zM82.5 21.5c-22.333 20.333 -33.499 47.832 -33.499 82.499c0 50 17.5 87.5 52.5 112.5s84.833 37.5 149.5 37.5
c32 0 60.667 -1.66699 86 -5v73c0 42.667 -8.66699 72.334 -26 89.001s-46.666 25 -87.999 25c-22.667 0 -51.334 -2 -86.001 -6l-10 -70h-33c-6 17.333 -9 36.333 -9 57v14c21.333 12 46.333 22.167 75 30.5s57 12.5 85 12.5c44 0 77.833 -12.167 101.5 -36.5
s35.5 -59.5 35.5 -105.5v-332h-37l-4 67h-7c-38.667 -50.667 -90.334 -76 -155.001 -76c-42 0 -74.167 10.167 -96.5 30.5zM273.501 50.499c26.333 14.333 47.832 34.499 64.499 60.499v101c-30 4.66699 -65 7 -105 7c-41.333 0 -78.666 -4 -111.999 -12
c-18 -28.667 -27 -60 -27 -94c0 -31.333 7.83301 -53.166 23.5 -65.499s38.834 -18.5 69.501 -18.5c31.333 0 60.166 7.16699 86.499 21.5z" />
    <glyph glyph-name="aring" unicode="&#xe5;" horiz-adv-x="459" 
d="M166.5 581.5c-17 13.667 -25.5 33.834 -25.5 60.501c0 25.333 10.5 47.166 31.5 65.499s48.833 27.5 83.5 27.5c64.667 0 97 -27.667 97 -83c0 -26 -10 -47.667 -30 -65s-48 -26 -84 -26c-31.333 0 -55.5 6.83301 -72.5 20.5zM308 601c6 17.333 9 33.667 9 49
c0 35.333 -21.667 53 -65 53c-24.667 0 -46.667 -2.66699 -66 -8c-6 -18 -9 -35 -9 -51c0 -16.667 5.33301 -29.5 16 -38.5s26.667 -13.5 48 -13.5c26 0 48.333 3 67 9zM82.5 21.501c-22.333 20.333 -33.499 47.832 -33.499 82.499c0 50 17.5 87.5 52.5 112.5
s84.833 37.5 149.5 37.5c32 0 60.667 -1.66699 86 -5v73c0 42.667 -8.66699 72.334 -26 89.001s-46.666 25 -87.999 25c-22.667 0 -51.334 -2 -86.001 -6l-10 -70h-33c-6 17.333 -9 36.333 -9 57v14c21.333 12 46.333 22.167 75 30.5s57 12.5 85 12.5
c44 0 77.833 -12.167 101.5 -36.5s35.5 -59.5 35.5 -105.5v-332h-37l-4 67h-7c-38.667 -50.667 -90.334 -76 -155.001 -76c-42 0 -74.167 10.167 -96.5 30.5zM273.501 50.5c26.333 14.333 47.832 34.499 64.499 60.499v101c-30 4.66699 -65 7 -105 7
c-41.333 0 -78.666 -4 -111.999 -12c-18 -28.667 -27 -60 -27 -94c0 -31.333 7.83301 -53.166 23.5 -65.499s38.834 -18.5 69.501 -18.5c31.333 0 60.166 7.16699 86.499 21.5z" />
    <glyph glyph-name="ae" unicode="&#xe6;" horiz-adv-x="750" 
d="M83 21.5c-22.667 20.333 -33.999 47.834 -33.999 82.501c0 50 17.167 87.5 51.5 112.5s83.833 37.5 148.5 37.5c36.667 0 68.334 -1.66699 95.001 -5v73c0 41.333 -10 70.666 -30 87.999s-51 26 -93 26c-21.333 0 -49.333 -2 -84 -6l-10 -70h-33
c-6 17.333 -9 36.333 -9 57v14c21.333 12 46.166 22.167 74.499 30.5s56.166 12.5 83.499 12.5c34 0 62.833 -7.83301 86.5 -23.5s39.834 -38.167 48.501 -67.5c30.667 60.667 83.667 91 159 91c50.667 0 90.834 -15.833 120.501 -47.5s44.5 -75.5 44.5 -131.5
c0 -7.33301 -0.666992 -19 -2 -35l-44 -46l-267 1c2 -60.667 15 -105.667 39 -135s61.333 -44 112 -44c29.333 0 54.166 2.83301 74.499 8.5s40.833 14.5 61.5 26.5l16 -36c-24 -13.333 -47.333 -23.333 -70 -30s-50.334 -10 -83.001 -10c-79.333 0 -134 29.333 -164 88
c-28 -32 -56 -55.333 -84 -70s-65 -22 -111 -22c-42 0 -74.333 10.167 -97 30.5zM655.001 254.001c4 14 6 29.666 6 46.999c0 40.667 -10.833 72.834 -32.5 96.501s-53.167 35.5 -94.5 35.5c-51.333 0 -87.333 -15 -108 -45s-33 -76.333 -37 -139zM276.001 48
c25.333 12.667 48.334 30.999 69.001 54.999v109c-30.667 4.66699 -68.667 7 -114 7c-40 0 -76.667 -4 -110 -12c-18 -28.667 -27 -60 -27 -94c0 -31.333 7.66699 -53.166 23 -65.499s38.666 -18.5 69.999 -18.5c34 0 63.667 6.33301 89 19z" />
    <glyph glyph-name="ccedilla" unicode="&#xe7;" horiz-adv-x="446" 
d="M158 -200l12.001 32.001c22 -8 45.667 -12 71 -12c20.667 0 38 2.33301 52 7c4 8.66699 6 21 6 37c0 14 -3.66699 24.5 -11 31.5s-19 10.5 -35 10.5c-19.333 0 -34.666 -2 -45.999 -6l-31 31l51 61c-58 6 -100.667 27.833 -128 65.5s-41 88.834 -41 153.501
c0 80.667 15.667 144.667 47 192s80.666 71 147.999 71c50 0 93.667 -12.333 131 -37v-24c0 -30 -3.33301 -53 -10 -69h-28l-6 78c-30 6.66699 -60 10 -90 10c-41.333 0 -77 -6.33301 -107 -19c-27.333 -53.333 -41 -120 -41 -200c0 -58.667 13 -103.334 39 -134.001
s65.333 -46 118 -46c50 0 93 13.667 129 41l24 -32c-20.667 -16 -42.834 -28.333 -66.501 -37s-51.5 -13.334 -83.5 -14.001l-44 -59c14 6 30.333 9 49 9c48.667 0 73 -24.333 73 -73c0 -56 -33.667 -84 -101 -84c-29.333 0 -56.333 5.33301 -81 16z" />
    <glyph glyph-name="egrave" unicode="&#xe8;" horiz-adv-x="466" 
d="M133 702l62 7l84 -141l-32 -5zM59 231c0 76 16.1689 135.501 48.502 178.501s80.833 64.5 145.5 64.5c50.667 0 90.667 -15.667 120 -47s44 -75 44 -131c0 -6.66699 -0.666992 -18.667 -2 -36l-44 -46l-268 1c1.33301 -61.333 14.333 -107.333 39 -138
s62.667 -46 114 -46c29.333 0 54.166 2.83301 74.499 8.5s40.833 14.5 61.5 26.5l15 -36c-22.667 -12.667 -45.334 -22.334 -68.001 -29.001s-50.667 -10 -84 -10c-130.667 0 -196 80 -196 240zM371.002 254.001c3.33301 12 4.99902 27.666 4.99902 46.999
c0 40.667 -10.833 72.834 -32.5 96.501s-53.167 35.5 -94.5 35.5c-51.333 0 -87.666 -15.167 -108.999 -45.5s-34 -76.5 -38 -138.5z" />
    <glyph glyph-name="eacute" unicode="&#xe9;" horiz-adv-x="466" 
d="M221 568l84 141l62 -7l-114 -139zM59 231c0 76 16.1689 135.501 48.502 178.501s80.833 64.5 145.5 64.5c50.667 0 90.667 -15.667 120 -47s44 -75 44 -131c0 -6.66699 -0.666992 -18.667 -2 -36l-44 -46l-268 1c1.33301 -61.333 14.333 -107.333 39 -138
s62.667 -46 114 -46c29.333 0 54.166 2.83301 74.499 8.5s40.833 14.5 61.5 26.5l15 -36c-22.667 -12.667 -45.334 -22.334 -68.001 -29.001s-50.667 -10 -84 -10c-130.667 0 -196 80 -196 240zM371.002 254.001c3.33301 12 4.99902 27.666 4.99902 46.999
c0 40.667 -10.833 72.834 -32.5 96.501s-53.167 35.5 -94.5 35.5c-51.333 0 -87.666 -15.167 -108.999 -45.5s-34 -76.5 -38 -138.5z" />
    <glyph glyph-name="ecircumflex" unicode="&#xea;" horiz-adv-x="466" 
d="M121 569l102 131h49l101 -131l-30 -7l-93 98h-5l-94 -98zM59 231c0 76 16.1689 135.501 48.502 178.501s80.833 64.5 145.5 64.5c50.667 0 90.667 -15.667 120 -47s44 -75 44 -131c0 -6.66699 -0.666992 -18.667 -2 -36l-44 -46l-268 1
c1.33301 -61.333 14.333 -107.333 39 -138s62.667 -46 114 -46c29.333 0 54.166 2.83301 74.499 8.5s40.833 14.5 61.5 26.5l15 -36c-22.667 -12.667 -45.334 -22.334 -68.001 -29.001s-50.667 -10 -84 -10c-130.667 0 -196 80 -196 240zM371.002 254.001
c3.33301 12 4.99902 27.666 4.99902 46.999c0 40.667 -10.833 72.834 -32.5 96.501s-53.167 35.5 -94.5 35.5c-51.333 0 -87.666 -15.167 -108.999 -45.5s-34 -76.5 -38 -138.5z" />
    <glyph glyph-name="edieresis" unicode="&#xeb;" horiz-adv-x="466" 
d="M142 569c-6 5.33301 -9 13 -9 23s3 17.833 9 23.5s14 8.5 24 8.5s17.833 -2.66699 23.5 -8s8.5 -13.333 8.5 -24c0 -10 -2.83301 -17.667 -8.5 -23s-13.5 -8 -23.5 -8s-18 2.66699 -24 8zM299 569c-6 5.33301 -9 13 -9 23c0 10.667 3 18.667 9 24s14.333 8 25 8
c10 0 17.833 -2.66699 23.5 -8s8.5 -13.333 8.5 -24c0 -10 -2.83301 -17.667 -8.5 -23s-13.5 -8 -23.5 -8c-10.667 0 -19 2.66699 -25 8zM59 231c0 76 16.1689 135.501 48.502 178.501s80.833 64.5 145.5 64.5c50.667 0 90.667 -15.667 120 -47s44 -75 44 -131
c0 -6.66699 -0.666992 -18.667 -2 -36l-44 -46l-268 1c1.33301 -61.333 14.333 -107.333 39 -138s62.667 -46 114 -46c29.333 0 54.166 2.83301 74.499 8.5s40.833 14.5 61.5 26.5l15 -36c-22.667 -12.667 -45.334 -22.334 -68.001 -29.001s-50.667 -10 -84 -10
c-130.667 0 -196 80 -196 240zM371.002 254.001c3.33301 12 4.99902 27.666 4.99902 46.999c0 40.667 -10.833 72.834 -32.5 96.501s-53.167 35.5 -94.5 35.5c-51.333 0 -87.666 -15.167 -108.999 -45.5s-34 -76.5 -38 -138.5z" />
    <glyph glyph-name="igrave" unicode="&#xec;" horiz-adv-x="225" 
d="M-18 702l63 7l83 -141l-31 -5zM87 465h44v-465h-44v465z" />
    <glyph glyph-name="iacute" unicode="&#xed;" horiz-adv-x="225" 
d="M89 568l84 141l62 -7l-114 -139zM87 465h44v-465h-44v465z" />
    <glyph glyph-name="icircumflex" unicode="&#xee;" horiz-adv-x="225" 
d="M-13 565l102 132h48l102 -132l-31 -6l-92 98h-6l-93 -98zM90 465h44v-465h-44v465z" />
    <glyph glyph-name="idieresis" unicode="&#xef;" horiz-adv-x="225" 
d="M10 569c-6 5.33301 -9 13 -9 23s3 17.833 9 23.5s14 8.5 24 8.5s17.833 -2.66699 23.5 -8s8.5 -13.333 8.5 -24c0 -10 -2.83301 -17.667 -8.5 -23s-13.5 -8 -23.5 -8s-18 2.66699 -24 8zM167 569c-6 5.33301 -9 13 -9 23c0 10.667 3 18.667 9 24s14.333 8 25 8
c10 0 17.833 -2.66699 23.5 -8s8.5 -13.333 8.5 -24c0 -10 -2.83301 -17.667 -8.5 -23s-13.5 -8 -23.5 -8c-10.667 0 -19 2.66699 -25 8zM90 465h44v-465h-44v465z" />
    <glyph glyph-name="eth" unicode="&#xf0;" horiz-adv-x="557" 
d="M134 40c-32 31.333 -48 76.0029 -48 134.003c0 55.333 16.167 98.166 48.5 128.499s75.5 45.5 129.5 45.5c29.333 0 55.833 -5.83301 79.5 -17.5s44.167 -26.834 61.5 -45.501h5c-2 77.333 -23 142 -63 194l-119 -43l-13 30l109 41c-32 32 -68.333 57.667 -109 77l22 29
c52 -26 93.667 -56 125 -90l104 38l15 -32l-96 -34c26.667 -36.667 45.167 -74.334 55.5 -113.001s15.5 -83 15.5 -133c0 -52.667 -5 -97.5 -15 -134.5s-29.167 -66.5 -57.5 -88.5s-68.5 -33 -120.5 -33c-54 0 -97 15.667 -129 47zM330.5 40.0029
c17 3.33301 34.499 8.66699 52.499 16c8.66699 19.333 15.334 41.666 20.001 66.999s7 51 7 77c0 15.333 -0.666992 29.333 -2 42c-20.667 20.667 -41.667 36.334 -63 47.001s-46.333 16 -75 16c-92 0 -138 -43 -138 -129c0 -94 47 -141 141 -141
c21.333 0 40.5 1.66699 57.5 5z" />
    <glyph glyph-name="ntilde" unicode="&#xf1;" horiz-adv-x="510" 
d="M125 570c1.33301 26.667 8.33301 47.335 21 62.002s30 22 52 22c11.333 0 21.5 -2.5 30.5 -7.5s20.167 -12.167 33.5 -21.5c12 -8.66699 21.5 -14.834 28.5 -18.501s14.5 -5.5 22.5 -5.5c26 0 41.333 18 46 54l31 -10c-1.33301 -26.667 -8.33301 -47.334 -21 -62.001
s-30 -22 -52 -22c-11.333 0 -22 2.5 -32 7.5s-21.333 12.167 -34 21.5c-20 16 -36.333 24 -49 24c-26 0 -41.333 -18 -46 -54zM84 466.001h37l3 -69h7c55.333 51.333 115.666 77 180.999 77c38.667 0 67.834 -7.16699 87.501 -21.5s29.5 -37.5 29.5 -69.5v-383h-45v420
c-25.333 8.66699 -52.333 13 -81 13c-32.667 0 -64.5 -6.66699 -95.5 -20s-57.167 -31 -78.5 -53v-360h-45v466z" />
    <glyph glyph-name="ograve" unicode="&#xf2;" horiz-adv-x="498" 
d="M136 702l62 7l84 -141l-32 -5zM103 53c-30 41.333 -45 99.333 -45 174c0 78.667 15 140.667 45 186s82.333 68 157 68c60 0 105 -21.167 135 -63.5s45 -100.833 45 -175.5c0 -78 -15 -139.333 -45 -184s-82.333 -67 -157 -67c-60 0 -105 20.667 -135 62zM358 55
c11.333 18.667 20.332 43.833 26.999 75.5s10 65.167 10 100.5c0 71.333 -11.5 123.833 -34.5 157.5s-60.5 50.5 -112.5 50.5c-45.333 0 -81.666 -8 -108.999 -24c-11.333 -18.667 -20.333 -44.167 -27 -76.5s-10 -66.5 -10 -102.5c0 -70.667 11.5 -122.5 34.5 -155.5
s60.5 -49.5 112.5 -49.5c44 0 80.333 8 109 24z" />
    <glyph glyph-name="oacute" unicode="&#xf3;" horiz-adv-x="498" 
d="M229 568l84 141l62 -7l-114 -139zM103 53c-30 41.333 -45 99.333 -45 174c0 78.667 15 140.667 45 186s82.333 68 157 68c60 0 105 -21.167 135 -63.5s45 -100.833 45 -175.5c0 -78 -15 -139.333 -45 -184s-82.333 -67 -157 -67c-60 0 -105 20.667 -135 62zM358 55
c11.333 18.667 20.332 43.833 26.999 75.5s10 65.167 10 100.5c0 71.333 -11.5 123.833 -34.5 157.5s-60.5 50.5 -112.5 50.5c-45.333 0 -81.666 -8 -108.999 -24c-11.333 -18.667 -20.333 -44.167 -27 -76.5s-10 -66.5 -10 -102.5c0 -70.667 11.5 -122.5 34.5 -155.5
s60.5 -49.5 112.5 -49.5c44 0 80.333 8 109 24z" />
    <glyph glyph-name="ocircumflex" unicode="&#xf4;" horiz-adv-x="498" 
d="M122 565l102 132h49l101 -132l-30 -6l-93 98h-5l-94 -98zM103 53c-30 41.333 -45 99.333 -45 174c0 78.667 15 140.667 45 186s82.333 68 157 68c60 0 105 -21.167 135 -63.5s45 -100.833 45 -175.5c0 -78 -15 -139.333 -45 -184s-82.333 -67 -157 -67
c-60 0 -105 20.667 -135 62zM358 55c11.333 18.667 20.332 43.833 26.999 75.5s10 65.167 10 100.5c0 71.333 -11.5 123.833 -34.5 157.5s-60.5 50.5 -112.5 50.5c-45.333 0 -81.666 -8 -108.999 -24c-11.333 -18.667 -20.333 -44.167 -27 -76.5s-10 -66.5 -10 -102.5
c0 -70.667 11.5 -122.5 34.5 -155.5s60.5 -49.5 112.5 -49.5c44 0 80.333 8 109 24z" />
    <glyph glyph-name="otilde" unicode="&#xf5;" horiz-adv-x="498" 
d="M117 570c1.33301 26.667 8.33301 47.335 21 62.002s30 22 52 22c11.333 0 21.5 -2.5 30.5 -7.5s20.167 -12.167 33.5 -21.5c12 -8.66699 21.5 -14.834 28.5 -18.501s14.5 -5.5 22.5 -5.5c26 0 41.333 18 46 54l31 -10c-1.33301 -26.667 -8.33301 -47.334 -21 -62.001
s-30 -22 -52 -22c-11.333 0 -22 2.5 -32 7.5s-21.333 12.167 -34 21.5c-20 16 -36.333 24 -49 24c-26 0 -41.333 -18 -46 -54zM103 53.001c-30 41.333 -45 99.333 -45 174c0 78.667 15 140.667 45 186s82.333 68 157 68c60 0 105 -21.167 135 -63.5s45 -100.833 45 -175.5
c0 -78 -15 -139.333 -45 -184s-82.333 -67 -157 -67c-60 0 -105 20.667 -135 62zM358 55.001c11.333 18.667 20.332 43.833 26.999 75.5s10 65.167 10 100.5c0 71.333 -11.5 123.833 -34.5 157.5s-60.5 50.5 -112.5 50.5c-45.333 0 -81.666 -8 -108.999 -24
c-11.333 -18.667 -20.333 -44.167 -27 -76.5s-10 -66.5 -10 -102.5c0 -70.667 11.5 -122.5 34.5 -155.5s60.5 -49.5 112.5 -49.5c44 0 80.333 8 109 24z" />
    <glyph glyph-name="odieresis" unicode="&#xf6;" horiz-adv-x="498" 
d="M145 569c-6 5.33301 -9 13 -9 23s3 17.833 9 23.5s14 8.5 24 8.5s17.833 -2.66699 23.5 -8s8.5 -13.333 8.5 -24c0 -10 -2.83301 -17.667 -8.5 -23s-13.5 -8 -23.5 -8s-18 2.66699 -24 8zM302 569c-6 5.33301 -9 13 -9 23c0 10.667 3 18.667 9 24s14.333 8 25 8
c10 0 17.833 -2.66699 23.5 -8s8.5 -13.333 8.5 -24c0 -10 -2.83301 -17.667 -8.5 -23s-13.5 -8 -23.5 -8c-10.667 0 -19 2.66699 -25 8zM103 53c-30 41.333 -45 99.333 -45 174c0 78.667 15 140.667 45 186s82.333 68 157 68c60 0 105 -21.167 135 -63.5
s45 -100.833 45 -175.5c0 -78 -15 -139.333 -45 -184s-82.333 -67 -157 -67c-60 0 -105 20.667 -135 62zM358 55c11.333 18.667 20.332 43.833 26.999 75.5s10 65.167 10 100.5c0 71.333 -11.5 123.833 -34.5 157.5s-60.5 50.5 -112.5 50.5
c-45.333 0 -81.666 -8 -108.999 -24c-11.333 -18.667 -20.333 -44.167 -27 -76.5s-10 -66.5 -10 -102.5c0 -70.667 11.5 -122.5 34.5 -155.5s60.5 -49.5 112.5 -49.5c44 0 80.333 8 109 24z" />
    <glyph glyph-name="divide" unicode="&#xf7;" horiz-adv-x="526" 
d="M232.5 435c-7.66699 7.33301 -11.5 17 -11.5 29c0 12.667 3.83301 22.834 11.5 30.501s17.834 11.5 30.501 11.5s22.667 -3.83301 30 -11.5s11 -17.834 11 -30.501c0 -12 -3.66699 -21.667 -11 -29s-17.333 -11 -30 -11s-22.834 3.66699 -30.501 11zM61 327h404v-40h-404
v40zM232.5 118c-7.66699 7.33301 -11.5 17 -11.5 29c0 12.667 3.83301 22.834 11.5 30.501s17.834 11.5 30.501 11.5s22.667 -3.83301 30 -11.5s11 -17.834 11 -30.501c0 -12 -3.66699 -21.667 -11 -29s-17.333 -11 -30 -11s-22.834 3.66699 -30.501 11z" />
    <glyph glyph-name="oslash" unicode="&#xf8;" horiz-adv-x="498" 
d="M440 242c0 -78 -15 -139.333 -45 -184s-82.333 -67 -157 -67c-26.667 0 -50 4 -70 12l-49 -107l-40 10l54 117c-50 37.333 -75 105.333 -75 204c0 78.667 15 140.667 45 186s82.333 68 157 68c28.667 0 54 -5 76 -15l38 82l40 -9l-44 -95c46.667 -38.667 70 -106 70 -202
zM151 64l166.999 361c-20.667 9.33301 -44 14 -70 14c-45.333 0 -81.666 -8 -108.999 -24c-11.333 -18.667 -20.333 -44.167 -27 -76.5s-10 -66.5 -10 -102.5c0 -84 16.333 -141.333 49 -172zM384.999 130.5c6.66699 31.667 10 65.166 10 100.499
c0 80 -14.667 136.667 -44 170l-165 -359c18.667 -7.33301 39.667 -11 63 -11c44 0 80.333 8 109 24c11.333 18.667 20.333 43.834 27 75.501z" />
    <glyph glyph-name="ugrave" unicode="&#xf9;" horiz-adv-x="504" 
d="M136 702l62 7l84 -141l-32 -5zM108.5 12.5c-19.667 14.333 -29.499 37.5 -29.499 69.5v384h45v-422c23.333 -8 49.666 -12 78.999 -12c34 0 66 7.16699 96 21.5s55.333 32.833 76 55.5v357h45v-466h-37l-4 71h-6c-28 -26.667 -55.667 -46.667 -83 -60
s-58.666 -20 -93.999 -20c-38.667 0 -67.834 7.16699 -87.501 21.5z" />
    <glyph glyph-name="uacute" unicode="&#xfa;" horiz-adv-x="504" 
d="M221 565l84 140l62 -6l-114 -140zM108.5 12.5c-19.667 14.333 -29.499 37.5 -29.499 69.5v384h45v-422c23.333 -8 49.666 -12 78.999 -12c34 0 66 7.16699 96 21.5s55.333 32.833 76 55.5v357h45v-466h-37l-4 71h-6c-28 -26.667 -55.667 -46.667 -83 -60
s-58.666 -20 -93.999 -20c-38.667 0 -67.834 7.16699 -87.501 21.5z" />
    <glyph glyph-name="ucircumflex" unicode="&#xfb;" horiz-adv-x="504" 
d="M124 566l102 131h49l101 -131l-30 -7l-93 98h-5l-94 -98zM108.5 12.5c-19.667 14.333 -29.499 37.5 -29.499 69.5v384h45v-422c23.333 -8 49.666 -12 78.999 -12c34 0 66 7.16699 96 21.5s55.333 32.833 76 55.5v357h45v-466h-37l-4 71h-6
c-28 -26.667 -55.667 -46.667 -83 -60s-58.666 -20 -93.999 -20c-38.667 0 -67.834 7.16699 -87.501 21.5z" />
    <glyph glyph-name="udieresis" unicode="&#xfc;" horiz-adv-x="504" 
d="M149 569c-6 5.33301 -9 13 -9 23s3 17.833 9 23.5s14 8.5 24 8.5s17.833 -2.66699 23.5 -8s8.5 -13.333 8.5 -24c0 -10 -2.83301 -17.667 -8.5 -23s-13.5 -8 -23.5 -8s-18 2.66699 -24 8zM306 569c-6 5.33301 -9 13 -9 23c0 10.667 3 18.667 9 24s14.333 8 25 8
c10 0 17.833 -2.66699 23.5 -8s8.5 -13.333 8.5 -24c0 -10 -2.83301 -17.667 -8.5 -23s-13.5 -8 -23.5 -8c-10.667 0 -19 2.66699 -25 8zM108.5 12.5c-19.667 14.333 -29.499 37.5 -29.499 69.5v384h45v-422c23.333 -8 49.666 -12 78.999 -12c34 0 66 7.16699 96 21.5
s55.333 32.833 76 55.5v357h45v-466h-37l-4 71h-6c-28 -26.667 -55.667 -46.667 -83 -60s-58.666 -20 -93.999 -20c-38.667 0 -67.834 7.16699 -87.501 21.5z" />
    <glyph glyph-name="yacute" unicode="&#xfd;" horiz-adv-x="482" 
d="M221 568l84 141l62 -7l-114 -139zM62 -168l0.00195312 22c0 16.667 2.66699 35 8 55h33v-49c13.333 -2.66699 29.666 -4 48.999 -4c17.333 0 33.333 2 48 6c19.333 42.667 39.666 96 60.999 160h-68c-32.667 80.667 -60.5 154.667 -83.5 222s-45.833 141 -68.5 221l45 5
c43.333 -158 87.666 -293.667 132.999 -407h57c45.333 140 83.666 275.667 114.999 407l45 -5c-24.667 -104 -53.167 -206.667 -85.5 -308s-65.166 -192.333 -98.499 -273c-19.333 -44.667 -56.666 -67 -111.999 -67c-30.667 0 -56.667 5 -78 15z" />
    <glyph glyph-name="thorn" unicode="&#xfe;" horiz-adv-x="481" 
d="M86 672h47v-259h6c22.667 14.667 45 26 67 34s46.333 12 73 12c100.667 0 151 -64.333 151 -193c0 -60.667 -13 -108.667 -39 -144s-64.667 -53 -116 -53c-50.667 0 -96 14.333 -136 43h-6v-292h-47v852zM356 152.5c18 26.333 27 64.167 27 113.5
c0 50.667 -8.5 88.167 -25.5 112.5s-48.167 36.5 -93.5 36.5c-43.333 0 -87 -14 -131 -42v-222c23.333 -12.667 45 -22.167 65 -28.5s42 -9.5 66 -9.5c43.333 0 74 13.167 92 39.5z" />
    <glyph glyph-name="ydieresis" unicode="&#xff;" horiz-adv-x="482" 
d="M139 569c-6 5.33301 -9 13 -9 23s3 17.833 9 23.5s14 8.5 24 8.5s17.833 -2.66699 23.5 -8s8.5 -13.333 8.5 -24c0 -10 -2.83301 -17.667 -8.5 -23s-13.5 -8 -23.5 -8s-18 2.66699 -24 8zM296 569c-6 5.33301 -9 13 -9 23c0 10.667 3 18.667 9 24s14.333 8 25 8
c10 0 17.833 -2.66699 23.5 -8s8.5 -13.333 8.5 -24c0 -10 -2.83301 -17.667 -8.5 -23s-13.5 -8 -23.5 -8c-10.667 0 -19 2.66699 -25 8zM62 -168l0.00195312 22c0 16.667 2.66699 35 8 55h33v-49c13.333 -2.66699 29.666 -4 48.999 -4c17.333 0 33.333 2 48 6
c19.333 42.667 39.666 96 60.999 160h-68c-32.667 80.667 -60.5 154.667 -83.5 222s-45.833 141 -68.5 221l45 5c43.333 -158 87.666 -293.667 132.999 -407h57c45.333 140 83.666 275.667 114.999 407l45 -5c-24.667 -104 -53.167 -206.667 -85.5 -308
s-65.166 -192.333 -98.499 -273c-19.333 -44.667 -56.666 -67 -111.999 -67c-30.667 0 -56.667 5 -78 15z" />
    <glyph glyph-name="Amacron" unicode="&#x100;" horiz-adv-x="580" 
d="M186 755h206v-41h-206v41zM44 6c64.667 233.333 128.667 435.333 192 606h108c63.333 -170.667 127.333 -372.667 192 -606l-49 -6c-18 70 -38.333 141.667 -61 215h-273c-24.667 -84 -44.667 -155.667 -60 -215zM412 258c-40.667 137.333 -74.001 240.333 -100.001 309
h-46c-12.667 -35.333 -28.667 -82.5 -48 -141.5s-36.666 -114.833 -51.999 -167.5h246z" />
    <glyph glyph-name="amacron" unicode="&#x101;" horiz-adv-x="459" 
d="M140 607h206v-41h-206v41zM82.5 21.5c-22.333 20.333 -33.499 47.832 -33.499 82.499c0 50 17.5 87.5 52.5 112.5s84.833 37.5 149.5 37.5c32 0 60.667 -1.66699 86 -5v73c0 42.667 -8.66699 72.334 -26 89.001s-46.666 25 -87.999 25c-22.667 0 -51.334 -2 -86.001 -6
l-10 -70h-33c-6 17.333 -9 36.333 -9 57v14c21.333 12 46.333 22.167 75 30.5s57 12.5 85 12.5c44 0 77.833 -12.167 101.5 -36.5s35.5 -59.5 35.5 -105.5v-332h-37l-4 67h-7c-38.667 -50.667 -90.334 -76 -155.001 -76c-42 0 -74.167 10.167 -96.5 30.5zM273.501 50.499
c26.333 14.333 47.832 34.499 64.499 60.499v101c-30 4.66699 -65 7 -105 7c-41.333 0 -78.666 -4 -111.999 -12c-18 -28.667 -27 -60 -27 -94c0 -31.333 7.83301 -53.166 23.5 -65.499s38.834 -18.5 69.501 -18.5c31.333 0 60.166 7.16699 86.499 21.5z" />
    <glyph glyph-name="Abreve" unicode="&#x102;" horiz-adv-x="580" 
d="M167 808l44.998 8c4.66699 -23.333 12.334 -40.833 23.001 -52.5s28.667 -17.5 54 -17.5s43.333 5.83301 54 17.5s18.334 29.167 23.001 52.5l45 -8c-13.333 -66.667 -54 -100 -122 -100s-108.667 33.333 -122 100zM43.998 6c64.667 233.333 128.667 435.333 192 606h108
c63.333 -170.667 127.333 -372.667 192 -606l-49 -6c-18 70 -38.333 141.667 -61 215h-273c-24.667 -84 -44.667 -155.667 -60 -215zM411.998 258c-40.667 137.333 -74.001 240.333 -100.001 309h-46c-12.667 -35.333 -28.667 -82.5 -48 -141.5
s-36.666 -114.833 -51.999 -167.5h246z" />
    <glyph glyph-name="abreve" unicode="&#x103;" horiz-adv-x="459" 
d="M127 660l45 8c4.66699 -23.333 12.334 -40.833 23.001 -52.5s28.667 -17.5 54 -17.5s43.333 5.83301 54 17.5s18.334 29.167 23.001 52.5l45 -8c-12.667 -67.333 -53.334 -101 -122.001 -101s-109.334 33.667 -122.001 101zM82.5 21.5
c-22.333 20.333 -33.499 47.832 -33.499 82.499c0 50 17.5 87.5 52.5 112.5s84.833 37.5 149.5 37.5c32 0 60.667 -1.66699 86 -5v73c0 42.667 -8.66699 72.334 -26 89.001s-46.666 25 -87.999 25c-22.667 0 -51.334 -2 -86.001 -6l-10 -70h-33c-6 17.333 -9 36.333 -9 57
v14c21.333 12 46.333 22.167 75 30.5s57 12.5 85 12.5c44 0 77.833 -12.167 101.5 -36.5s35.5 -59.5 35.5 -105.5v-332h-37l-4 67h-7c-38.667 -50.667 -90.334 -76 -155.001 -76c-42 0 -74.167 10.167 -96.5 30.5zM273.501 50.499
c26.333 14.333 47.832 34.499 64.499 60.499v101c-30 4.66699 -65 7 -105 7c-41.333 0 -78.666 -4 -111.999 -12c-18 -28.667 -27 -60 -27 -94c0 -31.333 7.83301 -53.166 23.5 -65.499s38.834 -18.5 69.501 -18.5c31.333 0 60.166 7.16699 86.499 21.5z" />
    <glyph glyph-name="Aogonek" unicode="&#x104;" horiz-adv-x="580" 
d="M439.5 -140.5c-14.333 13.667 -21.501 32.167 -21.501 55.5c0 42.667 22.333 74 67 94l-59 206h-273c-24.667 -84 -44.667 -155.667 -60 -215l-49 6c64.667 233.333 128.667 435.333 192 606h108c63.333 -170.667 127.333 -372.667 192 -606l-16 -2
c-22 -13.333 -37.333 -26.666 -46 -39.999s-13 -29.333 -13 -48c0 -14.667 2.66699 -26.334 8 -35.001c11.333 -2.66699 24.333 -4 39 -4s28.334 1.66699 41.001 5l8 -32c-16.667 -7.33301 -35.667 -11 -57 -11c-26 0 -46.167 6.83301 -60.5 20.5zM411.999 258
c-40.667 137.333 -74.001 240.333 -100.001 309h-46c-12.667 -35.333 -28.667 -82.5 -48 -141.5s-36.666 -114.833 -51.999 -167.5h246z" />
    <glyph glyph-name="aogonek" unicode="&#x105;" horiz-adv-x="488" 
d="M411 -155c-16 -7.33301 -34.667 -11.002 -56 -11.002c-26.667 0 -47 6.83301 -61 20.5s-21 32.5 -21 56.5c0 42.667 23.667 74.667 71 96l-3 60h-7c-38.667 -50.667 -90.334 -76 -155.001 -76c-42 0 -74.167 10.167 -96.5 30.5s-33.5 47.833 -33.5 82.5
c0 50 17.5 87.5 52.5 112.5s84.833 37.5 149.5 37.5c32 0 60.667 -1.66699 86 -5v73c0 42.667 -8.66699 72.334 -26 89.001s-46.666 25 -87.999 25c-22.667 0 -51.334 -2 -86.001 -6l-10 -70h-33c-6 17.333 -9 36.333 -9 57v14c21.333 12 46.333 22.167 75 30.5
s57 12.5 85 12.5c44 0 77.833 -12.167 101.5 -36.5s35.5 -59.5 35.5 -105.5v-332h-6c-22.667 -12.667 -38.5 -25.667 -47.5 -39s-13.5 -29.666 -13.5 -48.999c0 -12 2.66699 -24 8 -36c12.667 -2.66699 26 -4 40 -4c10.667 0 24.334 1.66699 41.001 5zM338 211.998
c-30 4.66699 -65.001 6.99902 -105.001 6.99902c-41.333 0 -78.666 -4 -111.999 -12c-18 -28.667 -27 -60 -27 -94c0 -31.333 7.83301 -53.166 23.5 -65.499s38.834 -18.5 69.501 -18.5c31.333 0 60.166 7.16699 86.499 21.5s47.833 34.5 64.5 60.5v101z" />
    <glyph glyph-name="Cacute" unicode="&#x106;" horiz-adv-x="547" 
d="M286 713l84 141l62 -7l-114 -139zM123.5 68.5c-42.333 51.667 -63.5 126.5 -63.5 224.5s20.833 177.333 62.5 238s104.834 91 189.501 91c32.667 0 62.667 -3.5 90 -10.5s50.666 -15.833 69.999 -26.5v-38c0 -27.333 -2.66699 -49 -8 -65h-28l-11 84
c-33.333 7.33301 -71.333 11 -114 11c-44 0 -86.333 -6.33301 -127 -19c-51.333 -69.333 -77 -157 -77 -263c0 -87.333 17.167 -152.5 51.5 -195.5s87.166 -64.5 158.499 -64.5c63.333 0 116.333 13.667 159 41l23 -36c-44 -32.667 -105.333 -49 -184 -49
c-85.333 0 -149.166 25.833 -191.499 77.5z" />
    <glyph glyph-name="cacute" unicode="&#x107;" horiz-adv-x="446" 
d="M221 565l84 140l62 -6l-114 -140zM106 48.5c-32 38.333 -47.998 92.502 -47.998 162.502c0 80.667 15.667 144.667 47 192s80.666 71 147.999 71c50 0 93.667 -12.333 131 -37v-24c0 -30 -3.33301 -53 -10 -69h-28l-6 78c-30 6.66699 -60 10 -90 10
c-41.333 0 -77 -6.33301 -107 -19c-27.333 -53.333 -41 -120 -41 -200c0 -58.667 13 -103.334 39 -134.001s65.333 -46 118 -46c50 0 93 13.667 129 41l24 -32c-20.667 -16.667 -43.334 -29.334 -68.001 -38.001s-53.667 -13 -87 -13c-68.667 0 -119 19.167 -151 57.5z" />
    <glyph glyph-name="Ccircumflex" unicode="&#x108;" horiz-adv-x="547" 
d="M177 714l102 131h49l101 -131l-30 -7l-93 98h-5l-94 -98zM123.5 68.5c-42.333 51.667 -63.5 126.5 -63.5 224.5s20.833 177.333 62.5 238s104.834 91 189.501 91c32.667 0 62.667 -3.5 90 -10.5s50.666 -15.833 69.999 -26.5v-38c0 -27.333 -2.66699 -49 -8 -65h-28
l-11 84c-33.333 7.33301 -71.333 11 -114 11c-44 0 -86.333 -6.33301 -127 -19c-51.333 -69.333 -77 -157 -77 -263c0 -87.333 17.167 -152.5 51.5 -195.5s87.166 -64.5 158.499 -64.5c63.333 0 116.333 13.667 159 41l23 -36c-44 -32.667 -105.333 -49 -184 -49
c-85.333 0 -149.166 25.833 -191.499 77.5z" />
    <glyph glyph-name="ccircumflex" unicode="&#x109;" horiz-adv-x="446" 
d="M120 565l102 132h49l101 -132l-30 -6l-93 98h-5l-94 -98zM106 48.5c-32 38.333 -47.998 92.502 -47.998 162.502c0 80.667 15.667 144.667 47 192s80.666 71 147.999 71c50 0 93.667 -12.333 131 -37v-24c0 -30 -3.33301 -53 -10 -69h-28l-6 78
c-30 6.66699 -60 10 -90 10c-41.333 0 -77 -6.33301 -107 -19c-27.333 -53.333 -41 -120 -41 -200c0 -58.667 13 -103.334 39 -134.001s65.333 -46 118 -46c50 0 93 13.667 129 41l24 -32c-20.667 -16.667 -43.334 -29.334 -68.001 -38.001s-53.667 -13 -87 -13
c-68.667 0 -119 19.167 -151 57.5z" />
    <glyph glyph-name="Cdotaccent" unicode="&#x10a;" horiz-adv-x="547" 
d="M283.5 719.5c-7.66699 7 -11.501 16.833 -11.501 29.5c0 28 14.667 42 44 42c28 0 42 -14 42 -42c0 -12.667 -3.66699 -22.5 -11 -29.5s-17.666 -10.5 -30.999 -10.5c-14 0 -24.833 3.5 -32.5 10.5zM123.499 68.5c-42.333 51.667 -63.5 126.5 -63.5 224.5
s20.833 177.333 62.5 238s104.834 91 189.501 91c32.667 0 62.667 -3.5 90 -10.5s50.666 -15.833 69.999 -26.5v-38c0 -27.333 -2.66699 -49 -8 -65h-28l-11 84c-33.333 7.33301 -71.333 11 -114 11c-44 0 -86.333 -6.33301 -127 -19c-51.333 -69.333 -77 -157 -77 -263
c0 -87.333 17.167 -152.5 51.5 -195.5s87.166 -64.5 158.499 -64.5c63.333 0 116.333 13.667 159 41l23 -36c-44 -32.667 -105.333 -49 -184 -49c-85.333 0 -149.166 25.833 -191.499 77.5z" />
    <glyph glyph-name="cdotaccent" unicode="&#x10b;" horiz-adv-x="446" 
d="M224.5 571.5c-7.66699 7 -11.501 16.833 -11.501 29.5c0 28 14.667 42 44 42c28 0 42 -14 42 -42c0 -12.667 -3.66699 -22.5 -11 -29.5s-17.666 -10.5 -30.999 -10.5c-14 0 -24.833 3.5 -32.5 10.5zM105.999 48.5c-32 38.333 -47.998 92.502 -47.998 162.502
c0 80.667 15.667 144.667 47 192s80.666 71 147.999 71c50 0 93.667 -12.333 131 -37v-24c0 -30 -3.33301 -53 -10 -69h-28l-6 78c-30 6.66699 -60 10 -90 10c-41.333 0 -77 -6.33301 -107 -19c-27.333 -53.333 -41 -120 -41 -200c0 -58.667 13 -103.334 39 -134.001
s65.333 -46 118 -46c50 0 93 13.667 129 41l24 -32c-20.667 -16.667 -43.334 -29.334 -68.001 -38.001s-53.667 -13 -87 -13c-68.667 0 -119 19.167 -151 57.5z" />
    <glyph glyph-name="Ccaron" unicode="&#x10c;" horiz-adv-x="545" 
d="M177 845l30 7l94 -98h5l93 98l30 -7l-101 -131h-49zM120.5 68.5c-42.333 51.667 -63.5 126.5 -63.5 224.5s20.833 177.333 62.5 238s104.834 91 189.501 91c32.667 0 62.667 -3.5 90 -10.5s50.666 -15.833 69.999 -26.5v-38c0 -27.333 -2.66699 -49 -8 -65h-28l-11 84
c-33.333 7.33301 -71.333 11 -114 11c-44 0 -86.333 -6.33301 -127 -19c-51.333 -69.333 -77 -157 -77 -263c0 -87.333 17.167 -152.5 51.5 -195.5s87.166 -64.5 158.499 -64.5c63.333 0 116.333 13.667 159 41l23 -36c-44 -32.667 -105.333 -49 -184 -49
c-85.333 0 -149.166 25.833 -191.499 77.5z" />
    <glyph glyph-name="ccaron" unicode="&#x10d;" horiz-adv-x="446" 
d="M125 697l30 7l94 -98h5l93 98l30 -7l-101 -131h-49zM106 48.5c-32 38.333 -47.998 92.502 -47.998 162.502c0 80.667 15.667 144.667 47 192s80.666 71 147.999 71c50 0 93.667 -12.333 131 -37v-24c0 -30 -3.33301 -53 -10 -69h-28l-6 78c-30 6.66699 -60 10 -90 10
c-41.333 0 -77 -6.33301 -107 -19c-27.333 -53.333 -41 -120 -41 -200c0 -58.667 13 -103.334 39 -134.001s65.333 -46 118 -46c50 0 93 13.667 129 41l24 -32c-20.667 -16.667 -43.334 -29.334 -68.001 -38.001s-53.667 -13 -87 -13c-68.667 0 -119 19.167 -151 57.5z" />
    <glyph glyph-name="Dcaron" unicode="&#x10e;" horiz-adv-x="564" 
d="M152 845l30 7l94 -98h5l93 98l30 -7l-101 -131h-49zM86 605c58 11.333 111.667 17 161 17c92.667 0 160.167 -25.5 202.5 -76.5s63.5 -127.167 63.5 -228.5c0 -96.667 -19 -173.667 -57 -231s-104.667 -86 -200 -86h-170v605zM253 44
c30 0 55.6689 1.50098 77.002 4.50098s42.666 7.83301 63.999 14.5c23.333 26 41.166 60.167 53.499 102.5s18.5 91.166 18.5 146.499c0 92.667 -17.333 160.167 -52 202.5s-91.667 63.5 -171 63.5c-31.333 0 -68 -3 -110 -9v-525h120z" />
    <glyph glyph-name="dcaron" unicode="&#x10f;" horiz-adv-x="554" 
d="M507 488c12 22 21 43.8311 27 65.498s9 46.834 9 75.501h-55v33c11.333 4 24 6 38 6c37.333 0 56 -20.667 56 -62c0 -45.333 -15 -86.666 -45 -123.999zM59 233.998c0 67.333 14.333 124.167 43 170.5s72.667 69.5 132 69.5c29.333 0 55.5 -5.5 78.5 -16.5
s45.833 -26.833 68.5 -47.5h6l-4 84v173h45v-667h-37l-3 68h-7c-16 -22.667 -36.5 -41.167 -61.5 -55.5s-53.167 -21.5 -84.5 -21.5c-117.333 0 -176 81 -176 243zM326.5 55.499c23 16.333 41.5 36.832 55.5 61.499v253c-24 22.667 -46.333 38.834 -67 48.501
s-44 14.5 -70 14.5c-94 0 -141 -67.333 -141 -202c0 -66.667 10.5 -116.667 31.5 -150s57.167 -50 108.5 -50c32 0 59.5 8.16699 82.5 24.5z" />
    <glyph glyph-name="Dcroat" unicode="&#x110;" horiz-adv-x="604" 
d="M126 286h-81v42h81v277c58 11.333 111.667 17 161 17c92.667 0 160.167 -25.5 202.5 -76.5s63.5 -127.167 63.5 -228.5c0 -96.667 -19 -173.667 -57 -231s-104.667 -86 -200 -86h-170v286zM293 44c30 0 55.6689 1.50098 77.002 4.50098s42.666 7.83301 63.999 14.5
c23.333 26 41.166 60.167 53.499 102.5s18.5 91.166 18.5 146.499c0 92.667 -17.333 160.167 -52 202.5s-91.667 63.5 -171 63.5c-31.333 0 -68 -3 -110 -9v-241h98v-42h-98v-242h120z" />
    <glyph glyph-name="dcroat" unicode="&#x111;" horiz-adv-x="524" 
d="M59 234c0 67.333 14.333 124.167 43 170.5s72.667 69.5 132 69.5c29.333 0 55.5 -5.5 78.5 -16.5s45.833 -26.833 68.5 -47.5h6l-4 84v54h-140v38h140v81h45v-81h58v-38h-58v-548h-37l-3 68h-7c-16 -22.667 -36.5 -41.167 -61.5 -55.5s-53.167 -21.5 -84.5 -21.5
c-117.333 0 -176 81 -176 243zM326.5 55.501c23 16.333 41.5 36.832 55.5 61.499v253c-24 22.667 -46.333 38.834 -67 48.501s-44 14.5 -70 14.5c-94 0 -141 -67.333 -141 -202c0 -66.667 10.5 -116.667 31.5 -150s57.167 -50 108.5 -50c32 0 59.5 8.16699 82.5 24.5z" />
    <glyph glyph-name="Emacron" unicode="&#x112;" horiz-adv-x="520" 
d="M129 755h270v-41h-270v41zM86 61l-0.000976562 551h355v-44h-308v-238h279v-44h-279v-238c48.667 -9.33301 100.334 -14 155.001 -14s106 5 154 15l11 -42c-47.333 -10.667 -103.333 -16 -168 -16c-132.667 0 -199 23.333 -199 70z" />
    <glyph glyph-name="emacron" unicode="&#x113;" horiz-adv-x="466" 
d="M113 607h270v-41h-270v41zM59 231c0 76 16.1689 135.501 48.502 178.501s80.833 64.5 145.5 64.5c50.667 0 90.667 -15.667 120 -47s44 -75 44 -131c0 -6.66699 -0.666992 -18.667 -2 -36l-44 -46l-268 1c1.33301 -61.333 14.333 -107.333 39 -138s62.667 -46 114 -46
c29.333 0 54.166 2.83301 74.499 8.5s40.833 14.5 61.5 26.5l15 -36c-22.667 -12.667 -45.334 -22.334 -68.001 -29.001s-50.667 -10 -84 -10c-130.667 0 -196 80 -196 240zM371.002 254.001c3.33301 12 4.99902 27.666 4.99902 46.999
c0 40.667 -10.833 72.834 -32.5 96.501s-53.167 35.5 -94.5 35.5c-51.333 0 -87.666 -15.167 -108.999 -45.5s-34 -76.5 -38 -138.5z" />
    <glyph glyph-name="Ebreve" unicode="&#x114;" horiz-adv-x="520" 
d="M150 810l45 7c4.66699 -23.333 12.334 -40.666 23.001 -51.999s28.667 -17 54 -17s43.333 5.66699 54 17s18.334 28.666 23.001 51.999l45 -7c-12.667 -67.333 -53.334 -101 -122.001 -101s-109.334 33.667 -122.001 101zM86 61l-0.000976562 551h355v-44h-308v-238h279
v-44h-279v-238c48.667 -9.33301 100.334 -14 155.001 -14s106 5 154 15l11 -42c-47.333 -10.667 -103.333 -16 -168 -16c-132.667 0 -199 23.333 -199 70z" />
    <glyph glyph-name="ebreve" unicode="&#x115;" horiz-adv-x="466" 
d="M125 661l44.998 8c4.66699 -23.333 12.334 -40.666 23.001 -51.999s28.667 -17 54 -17s43.333 5.66699 54 17s18.334 28.666 23.001 51.999l45 -8c-13.333 -66.667 -54 -100 -122 -100s-108.667 33.333 -122 100zM58.998 231c0 76 16.1689 135.501 48.502 178.501
s80.833 64.5 145.5 64.5c50.667 0 90.667 -15.667 120 -47s44 -75 44 -131c0 -6.66699 -0.666992 -18.667 -2 -36l-44 -46l-268 1c1.33301 -61.333 14.333 -107.333 39 -138s62.667 -46 114 -46c29.333 0 54.166 2.83301 74.499 8.5s40.833 14.5 61.5 26.5l15 -36
c-22.667 -12.667 -45.334 -22.334 -68.001 -29.001s-50.667 -10 -84 -10c-130.667 0 -196 80 -196 240zM371 254.001c3.33301 12 4.99902 27.666 4.99902 46.999c0 40.667 -10.833 72.834 -32.5 96.501s-53.167 35.5 -94.5 35.5c-51.333 0 -87.666 -15.167 -108.999 -45.5
s-34 -76.5 -38 -138.5z" />
    <glyph glyph-name="Edotaccent" unicode="&#x116;" horiz-adv-x="520" 
d="M239.5 719.5c-7.66699 7 -11.501 16.833 -11.501 29.5c0 28 14.667 42 44 42c28 0 42 -14 42 -42c0 -12.667 -3.66699 -22.5 -11 -29.5s-17.666 -10.5 -30.999 -10.5c-14 0 -24.833 3.5 -32.5 10.5zM85.999 61l-0.000976562 551h355v-44h-308v-238h279v-44h-279v-238
c48.667 -9.33301 100.334 -14 155.001 -14s106 5 154 15l11 -42c-47.333 -10.667 -103.333 -16 -168 -16c-132.667 0 -199 23.333 -199 70z" />
    <glyph glyph-name="edotaccent" unicode="&#x117;" horiz-adv-x="466" 
d="M215.5 571.5c-7.66699 7 -11.501 16.833 -11.501 29.5c0 28 14.667 42 44 42c28 0 42 -14 42 -42c0 -12.667 -3.66699 -22.5 -11 -29.5s-17.666 -10.5 -30.999 -10.5c-14 0 -24.833 3.5 -32.5 10.5zM58.999 231c0 76 16.1689 135.501 48.502 178.501
s80.833 64.5 145.5 64.5c50.667 0 90.667 -15.667 120 -47s44 -75 44 -131c0 -6.66699 -0.666992 -18.667 -2 -36l-44 -46l-268 1c1.33301 -61.333 14.333 -107.333 39 -138s62.667 -46 114 -46c29.333 0 54.166 2.83301 74.499 8.5s40.833 14.5 61.5 26.5l15 -36
c-22.667 -12.667 -45.334 -22.334 -68.001 -29.001s-50.667 -10 -84 -10c-130.667 0 -196 80 -196 240zM371.001 254.001c3.33301 12 4.99902 27.666 4.99902 46.999c0 40.667 -10.833 72.834 -32.5 96.501s-53.167 35.5 -94.5 35.5
c-51.333 0 -87.666 -15.167 -108.999 -45.5s-34 -76.5 -38 -138.5z" />
    <glyph glyph-name="Eogonek" unicode="&#x118;" horiz-adv-x="520" 
d="M345 -143.5c-14 13.667 -21.002 32.499 -21.002 56.499c0 34.667 14.333 61.667 43 81c-24.667 -2 -52 -3 -82 -3c-132.667 0 -199 23.333 -199 70v551h355v-44h-308v-238h279v-44h-279v-238c48.667 -9.33301 100.334 -14 155.001 -14s106 5 154 15l11 -42
c-11.333 -3.33301 -22.666 -6 -33.999 -8c-20 -12.667 -33.833 -25.667 -41.5 -39s-11.5 -28.666 -11.5 -45.999c0 -15.333 2.66699 -27.333 8 -36c12.667 -2.66699 26 -4 40 -4c10.667 0 24.334 1.66699 41.001 5l7 -32c-16.667 -7.33301 -35.334 -11 -56.001 -11
c-26.667 0 -47 6.83301 -61 20.5z" />
    <glyph glyph-name="eogonek" unicode="&#x119;" horiz-adv-x="468" 
d="M311 -121.5c-14 13.667 -21 32.5 -21 56.5s7 44 21 60c-15.333 -2.66699 -34 -4 -56 -4c-130.667 0 -196 80 -196 240c0 76 16.167 135.5 48.5 178.5s80.833 64.5 145.5 64.5c50.667 0 90.667 -15.667 120 -47s44 -75 44 -131c0 -6.66699 -0.666992 -18.667 -2 -36
l-44 -46l-268 1c1.33301 -61.333 14.333 -107.333 39 -138s62.667 -46 114 -46c29.333 0 54.166 2.83301 74.499 8.5s40.833 14.5 61.5 26.5l15 -36c-4 -2 -8.16699 -4.33301 -12.5 -7s-9.16602 -5 -14.499 -7c-17.333 -12 -29.666 -24.167 -36.999 -36.5
s-11 -26.833 -11 -43.5c0 -15.333 2.66699 -27.333 8 -36c12.667 -2.66699 25.667 -4 39 -4c12 0 25.667 1.66699 41 5l8 -32c-16.667 -7.33301 -35.334 -11 -56.001 -11c-26.667 0 -47 6.83301 -61 20.5zM371 254c3.33301 12 4.99902 27.666 4.99902 46.999
c0 40.667 -10.833 72.834 -32.5 96.501s-53.167 35.5 -94.5 35.5c-51.333 0 -87.666 -15.167 -108.999 -45.5s-34 -76.5 -38 -138.5z" />
    <glyph glyph-name="Ecaron" unicode="&#x11a;" horiz-adv-x="520" 
d="M138 845l30 7l94 -98h5l93 98l30 -7l-101 -131h-49zM86 61l-0.000976562 551h355v-44h-308v-238h279v-44h-279v-238c48.667 -9.33301 100.334 -14 155.001 -14s106 5 154 15l11 -42c-47.333 -10.667 -103.333 -16 -168 -16c-132.667 0 -199 23.333 -199 70z" />
    <glyph glyph-name="ecaron" unicode="&#x11b;" horiz-adv-x="466" 
d="M121 697l30 7l94 -98h5l93 98l30 -7l-101 -131h-49zM59 231c0 76 16.1689 135.501 48.502 178.501s80.833 64.5 145.5 64.5c50.667 0 90.667 -15.667 120 -47s44 -75 44 -131c0 -6.66699 -0.666992 -18.667 -2 -36l-44 -46l-268 1
c1.33301 -61.333 14.333 -107.333 39 -138s62.667 -46 114 -46c29.333 0 54.166 2.83301 74.499 8.5s40.833 14.5 61.5 26.5l15 -36c-22.667 -12.667 -45.334 -22.334 -68.001 -29.001s-50.667 -10 -84 -10c-130.667 0 -196 80 -196 240zM371.002 254.001
c3.33301 12 4.99902 27.666 4.99902 46.999c0 40.667 -10.833 72.834 -32.5 96.501s-53.167 35.5 -94.5 35.5c-51.333 0 -87.666 -15.167 -108.999 -45.5s-34 -76.5 -38 -138.5z" />
    <glyph glyph-name="Gcircumflex" unicode="&#x11c;" horiz-adv-x="580" 
d="M178 714l102 131h49l101 -131l-30 -7l-93 98h-5l-94 -98zM126 68.5c-44 51.667 -65.9971 126.502 -65.9971 224.502c0 99.333 21.833 179 65.5 239s110.5 90 200.5 90c34.667 0 67.167 -3.5 97.5 -10.5s54.833 -15.833 73.5 -26.5v-38
c0 -10.667 -0.833008 -22.334 -2.5 -35.001s-3.83398 -22.667 -6.50098 -30h-28l-11 84c-32.667 7.33301 -74.667 11 -126 11c-50.667 0 -96.334 -6.33301 -137.001 -19c-52.667 -70.667 -79 -158.334 -79 -263.001c0 -173.333 71.333 -260 214 -260
c31.333 0 57.666 2 78.999 6s42.333 10.333 63 19v212h-141v44h153l34 -27v-188c0 -33.333 -17.5 -60 -52.5 -80s-81.833 -30 -140.5 -30c-82.667 0 -146 25.833 -190 77.5z" />
    <glyph glyph-name="gcircumflex" unicode="&#x11d;" horiz-adv-x="498" 
d="M130 565l102 132h49l101 -132l-30 -6l-93 98h-5l-94 -98zM90 -155l14.001 36.999c20 -9.33301 42 -16.666 66 -21.999s47.667 -8 71 -8c30 0 55.5 2.33301 76.5 7s39.833 12 56.5 22v137l3 60h-8c-40.667 -49.333 -89 -74 -145 -74c-55.333 0 -96.5 20.167 -123.5 60.5
s-40.5 94.833 -40.5 163.5c0 164 57.667 246 173 246c57.333 0 102.666 -26 135.999 -78h6l4 74h38v-532c0 -44 -15.333 -76 -46 -96s-73 -30 -127 -30c-58.667 0 -110 11 -154 33zM372.001 120.999l-0.000976562 232c-38.667 54 -83.667 81 -135 81
c-47.333 0 -81.166 -17 -101.499 -51s-30.5 -84.333 -30.5 -151c0 -62.667 10.333 -109.667 31 -141s52.667 -47 96 -47c54 0 100.667 25.667 140 77z" />
    <glyph glyph-name="Gbreve" unicode="&#x11e;" horiz-adv-x="580" 
d="M191 810l45 7c4.66699 -23.333 12.334 -40.666 23.001 -51.999s28.667 -17 54 -17s43.333 5.66699 54 17s18.334 28.666 23.001 51.999l45 -7c-12.667 -67.333 -53.334 -101 -122.001 -101s-109.334 33.667 -122.001 101zM126 68.5
c-44 51.667 -65.9971 126.502 -65.9971 224.502c0 99.333 21.833 179 65.5 239s110.5 90 200.5 90c34.667 0 67.167 -3.5 97.5 -10.5s54.833 -15.833 73.5 -26.5v-38c0 -10.667 -0.833008 -22.334 -2.5 -35.001s-3.83398 -22.667 -6.50098 -30h-28l-11 84
c-32.667 7.33301 -74.667 11 -126 11c-50.667 0 -96.334 -6.33301 -137.001 -19c-52.667 -70.667 -79 -158.334 -79 -263.001c0 -173.333 71.333 -260 214 -260c31.333 0 57.666 2 78.999 6s42.333 10.333 63 19v212h-141v44h153l34 -27v-188c0 -33.333 -17.5 -60 -52.5 -80
s-81.833 -30 -140.5 -30c-82.667 0 -146 25.833 -190 77.5z" />
    <glyph glyph-name="gbreve" unicode="&#x11f;" horiz-adv-x="498" 
d="M141 661l44.998 8c4.66699 -23.333 12.334 -40.666 23.001 -51.999s28.667 -17 54 -17s43.333 5.66699 54 17s18.334 28.666 23.001 51.999l45 -8c-13.333 -66.667 -54 -100 -122 -100s-108.667 33.333 -122 100zM89.998 -155l14.001 36.999
c20 -9.33301 42 -16.666 66 -21.999s47.667 -8 71 -8c30 0 55.5 2.33301 76.5 7s39.833 12 56.5 22v137l3 60h-8c-40.667 -49.333 -89 -74 -145 -74c-55.333 0 -96.5 20.167 -123.5 60.5s-40.5 94.833 -40.5 163.5c0 164 57.667 246 173 246
c57.333 0 102.666 -26 135.999 -78h6l4 74h38v-532c0 -44 -15.333 -76 -46 -96s-73 -30 -127 -30c-58.667 0 -110 11 -154 33zM371.999 120.999l-0.000976562 232c-38.667 54 -83.667 81 -135 81c-47.333 0 -81.166 -17 -101.499 -51s-30.5 -84.333 -30.5 -151
c0 -62.667 10.333 -109.667 31 -141s52.667 -47 96 -47c54 0 100.667 25.667 140 77z" />
    <glyph glyph-name="Gdotaccent" unicode="&#x120;" horiz-adv-x="580" 
d="M284.5 719.5c-7.66699 7 -11.501 16.833 -11.501 29.5c0 28 14.667 42 44 42c28 0 42 -14 42 -42c0 -12.667 -3.66699 -22.5 -11 -29.5s-17.666 -10.5 -30.999 -10.5c-14 0 -24.833 3.5 -32.5 10.5zM125.999 68.5c-44 51.667 -65.9971 126.502 -65.9971 224.502
c0 99.333 21.833 179 65.5 239s110.5 90 200.5 90c34.667 0 67.167 -3.5 97.5 -10.5s54.833 -15.833 73.5 -26.5v-38c0 -10.667 -0.833008 -22.334 -2.5 -35.001s-3.83398 -22.667 -6.50098 -30h-28l-11 84c-32.667 7.33301 -74.667 11 -126 11
c-50.667 0 -96.334 -6.33301 -137.001 -19c-52.667 -70.667 -79 -158.334 -79 -263.001c0 -173.333 71.333 -260 214 -260c31.333 0 57.666 2 78.999 6s42.333 10.333 63 19v212h-141v44h153l34 -27v-188c0 -33.333 -17.5 -60 -52.5 -80s-81.833 -30 -140.5 -30
c-82.667 0 -146 25.833 -190 77.5z" />
    <glyph glyph-name="gdotaccent" unicode="&#x121;" horiz-adv-x="498" 
d="M228.5 571.5c-7.66699 7 -11.501 16.833 -11.501 29.5c0 28 14.667 42 44 42c28 0 42 -14 42 -42c0 -12.667 -3.66699 -22.5 -11 -29.5s-17.666 -10.5 -30.999 -10.5c-14 0 -24.833 3.5 -32.5 10.5zM89.999 -155l14.001 36.999c20 -9.33301 42 -16.666 66 -21.999
s47.667 -8 71 -8c30 0 55.5 2.33301 76.5 7s39.833 12 56.5 22v137l3 60h-8c-40.667 -49.333 -89 -74 -145 -74c-55.333 0 -96.5 20.167 -123.5 60.5s-40.5 94.833 -40.5 163.5c0 164 57.667 246 173 246c57.333 0 102.666 -26 135.999 -78h6l4 74h38v-532
c0 -44 -15.333 -76 -46 -96s-73 -30 -127 -30c-58.667 0 -110 11 -154 33zM372 120.999l-0.000976562 232c-38.667 54 -83.667 81 -135 81c-47.333 0 -81.166 -17 -101.499 -51s-30.5 -84.333 -30.5 -151c0 -62.667 10.333 -109.667 31 -141s52.667 -47 96 -47
c54 0 100.667 25.667 140 77z" />
    <glyph glyph-name="Gcommaaccent" unicode="&#x122;" horiz-adv-x="580" 
d="M126 68.5c-44 51.667 -65.9971 126.502 -65.9971 224.502c0 99.333 21.833 179 65.5 239s110.5 90 200.5 90c34.667 0 67.167 -3.5 97.5 -10.5s54.833 -15.833 73.5 -26.5v-38c0 -10.667 -0.833008 -22.334 -2.5 -35.001s-3.83398 -22.667 -6.50098 -30h-28l-11 84
c-32.667 7.33301 -74.667 11 -126 11c-50.667 0 -96.334 -6.33301 -137.001 -19c-52.667 -70.667 -79 -158.334 -79 -263.001c0 -173.333 71.333 -260 214 -260c31.333 0 57.666 2 78.999 6s42.333 10.333 63 19v212h-141v44h153l34 -27v-188c0 -33.333 -17.5 -60 -52.5 -80
s-81.833 -30 -140.5 -30c-82.667 0 -146 25.833 -190 77.5zM298.003 -238.998c12 22 20.999 43.668 26.999 65.001s9 46.666 9 75.999h-55v33c14.667 4 27.334 6 38.001 6c37.333 0 56 -20.667 56 -62c0 -45.333 -15 -87 -45 -125z" />
    <glyph glyph-name="gcommaaccent" unicode="&#x123;" horiz-adv-x="498" 
d="M241 566c12 22 21 43.667 27 65s9 46.333 9 75h-55v33c11.333 4 24 6 38 6c37.333 0 56 -20.333 56 -61c0 -45.333 -15 -87 -45 -125zM90 -155l14.001 36.999c20 -9.33301 42 -16.666 66 -21.999s47.667 -8 71 -8c30 0 55.5 2.33301 76.5 7s39.833 12 56.5 22v137l3 60
h-8c-40.667 -49.333 -89 -74 -145 -74c-55.333 0 -96.5 20.167 -123.5 60.5s-40.5 94.833 -40.5 163.5c0 164 57.667 246 173 246c57.333 0 102.666 -26 135.999 -78h6l4 74h38v-532c0 -44 -15.333 -76 -46 -96s-73 -30 -127 -30c-58.667 0 -110 11 -154 33z
M372.001 120.999l-0.000976562 232c-38.667 54 -83.667 81 -135 81c-47.333 0 -81.166 -17 -101.499 -51s-30.5 -84.333 -30.5 -151c0 -62.667 10.333 -109.667 31 -141s52.667 -47 96 -47c54 0 100.667 25.667 140 77z" />
    <glyph glyph-name="Hcircumflex" unicode="&#x124;" horiz-adv-x="584" 
d="M166 714l102 131h49l101 -131l-30 -7l-93 98h-5l-94 -98zM86 612h47v-293h319v293h47v-612h-47v274h-319v-274h-47v612z" />
    <glyph glyph-name="hcircumflex" unicode="&#x125;" horiz-adv-x="510" 
d="M146 717l102 132h49l101 -132l-30 -7l-93 98h-5l-94 -98zM85 667h45v-182l-4 -88h6c55.333 51.333 115.666 77 180.999 77c38.667 0 67.834 -7.16699 87.501 -21.5s29.5 -37.5 29.5 -69.5v-383h-45v420c-25.333 8.66699 -52.333 13 -81 13
c-32.667 0 -64.5 -6.66699 -95.5 -20s-57.167 -31 -78.5 -53v-360h-45v667z" />
    <glyph glyph-name="Hbar" unicode="&#x126;" horiz-adv-x="665" 
d="M126 449h-65v40h65v123h47v-123h319v123h47v-123h65v-40h-65v-449h-47v274h-319v-274h-47v449zM492 319v130h-319v-130h319z" />
    <glyph glyph-name="hbar" unicode="&#x127;" horiz-adv-x="511" 
d="M86 550h-64.999v37h65v80h44v-80h134v-37h-134v-65l-3 -88h6c54.667 51.333 114.667 77 180 77c39.333 0 68.666 -7.16699 87.999 -21.5s29 -37.5 29 -69.5v-383h-44v420c-25.333 8.66699 -52.333 13 -81 13c-32.667 0 -64.5 -6.66699 -95.5 -20s-57.5 -31 -79.5 -53
v-360h-44v550z" />
    <glyph glyph-name="Itilde" unicode="&#x128;" horiz-adv-x="225" 
d="M-20 717c1.33301 26.667 8.33105 47.501 20.998 62.501s30 22.5 52 22.5c10.667 0 20.834 -2.5 30.501 -7.5s20.167 -11.833 31.5 -20.5c12 -8.66699 21.667 -15 29 -19s15.333 -6 24 -6c26 0 41.333 17.667 46 53l31 -9c-1.33301 -26.667 -8.33301 -47.334 -21 -62.001
s-30 -22 -52 -22c-12 0 -22.833 2.5 -32.5 7.5s-21.167 12.5 -34.5 22.5c-10 8 -18.667 13.833 -26 17.5s-14.666 5.5 -21.999 5.5c-26 0 -41.667 -18 -47 -54zM88.998 612.001h47v-612h-47v612z" />
    <glyph glyph-name="itilde" unicode="&#x129;" horiz-adv-x="225" 
d="M-20 534c1.33301 26.667 8.33203 47.5 20.999 62.5s30 22.5 52 22.5c11.333 0 21.5 -2.5 30.5 -7.5s20.167 -12.167 33.5 -21.5c12 -8.66699 21.5 -14.834 28.5 -18.501s14.5 -5.5 22.5 -5.5c26 0 41.333 17.667 46 53l31 -9c-1.33301 -26.667 -8.33301 -47.5 -21 -62.5
s-30 -22.5 -52 -22.5c-11.333 0 -21.666 2.5 -30.999 7.5s-21.333 12.5 -36 22.5c-11.333 8.66699 -20.333 14.834 -27 18.501s-13.667 5.5 -21 5.5c-26 0 -41.333 -18 -46 -54zM89.999 465h44v-465h-44v465z" />
    <glyph glyph-name="Imacron" unicode="&#x12a;" horiz-adv-x="225" 
d="M-22 755h270v-41h-270v41zM89 612h47v-612h-47v612z" />
    <glyph glyph-name="imacron" unicode="&#x12b;" horiz-adv-x="225" 
d="M-24 606h271v-40h-271v40zM90 465h44v-465h-44v465z" />
    <glyph glyph-name="Ibreve" unicode="&#x12c;" horiz-adv-x="225" 
d="M28.5 736.5c-19.667 18.333 -32.165 42.833 -37.498 73.5l45 7c4 -22.667 11.5 -39.834 22.5 -51.501s29.167 -17.5 54.5 -17.5s43.333 5.83301 54 17.5s18 28.834 22 51.501l46 -7c-12.667 -67.333 -53.334 -101 -122.001 -101c-36.667 0 -64.834 9.16699 -84.501 27.5z
M89.002 612h47v-612h-47v612z" />
    <glyph glyph-name="ibreve" unicode="&#x12d;" horiz-adv-x="225" 
d="M-9 661l44.998 8c4.66699 -23.333 12.334 -40.666 23.001 -51.999s28.667 -17 54 -17s43.333 5.66699 54 17s18.334 28.666 23.001 51.999l45 -8c-13.333 -66.667 -54 -100 -122 -100s-108.667 33.333 -122 100zM89.998 465h44v-465h-44v465z" />
    <glyph glyph-name="Iogonek" unicode="&#x12e;" horiz-adv-x="225" 
d="M171 -155c-16 -7.33301 -34.668 -11.002 -56.001 -11.002c-26.667 0 -47 6.83301 -61 20.5s-21 32.5 -21 56.5c0 18.667 4.83301 34.834 14.5 48.501s23.5 26.167 41.5 37.5v615h47v-616c-22 -9.33301 -37.667 -20.666 -47 -33.999s-14 -30 -14 -50
c0 -12 2.66699 -24 8 -36c12.667 -2.66699 26 -4 40 -4c10.667 0 24.334 1.66699 41.001 5z" />
    <glyph glyph-name="iogonek" unicode="&#x12f;" horiz-adv-x="214" 
d="M130 554h-46v89h46v-89zM164 -155c-16 -7.33301 -34.668 -11 -56.001 -11c-26.667 0 -47 6.83301 -61 20.5s-21 32.5 -21 56.5c0 36 19.667 64 59 84v470h44v-470c-22.667 -10 -38.5 -21.167 -47.5 -33.5s-13.5 -28.833 -13.5 -49.5c0 -12 2.66699 -24 8 -36
c12.667 -2.66699 26 -4 40 -4c10.667 0 24.334 1.66699 41.001 5z" />
    <glyph glyph-name="Idotaccent" unicode="&#x130;" horiz-adv-x="225" 
d="M80.5 713.5c-7.66699 7 -11.501 16.833 -11.501 29.5c0 28 14.667 42 44 42c28 0 42 -14 42 -42c0 -12.667 -3.66699 -22.5 -11 -29.5s-17.666 -10.5 -30.999 -10.5c-14 0 -24.833 3.5 -32.5 10.5zM88.999 612h47v-612h-47v612z" />
    <glyph glyph-name="dotlessi" unicode="&#x131;" horiz-adv-x="218" 
d="M87 465h44v-465h-44v465z" />
    <glyph glyph-name="IJ" unicode="&#x132;" horiz-adv-x="647" 
d="M268 14l13 42c38.667 -14.667 79.667 -22 123 -22c42 0 76.667 7.66699 104 23c6 17.333 9 38 9 62v497h47v-500c0 -83.333 -54.667 -125 -164 -125c-46.667 0 -90.667 7.66699 -132 23zM89 612h47v-612h-47v612z" />
    <glyph glyph-name="ij" unicode="&#x133;" horiz-adv-x="440" 
d="M84 643h46v-89h-46v89zM312 643h46v-89h-46v89zM85 465h44v-465h-44v465zM160 -175l10 39c23.333 -6 47.333 -9 72 -9c22.667 0 43 3 61 9c4 10.667 6.5 21.5 7.5 32.5s1.5 25.167 1.5 42.5v526h44v-530c0 -38.667 -9.83301 -68.667 -29.5 -90s-48.167 -32 -85.5 -32
c-28.667 0 -55.667 4 -81 12z" />
    <glyph glyph-name="Jcircumflex" unicode="&#x134;" horiz-adv-x="411" 
d="M173 714l102 131h49l101 -131l-30 -7l-93 98h-5l-94 -98zM31 14l13 42c38.667 -14.667 79.667 -22 123 -22c42 0 76.667 7.66699 104 23c6 17.333 9 38 9 62v497h47v-500c0 -83.333 -54.667 -125 -164 -125c-46.667 0 -90.667 7.66699 -132 23z" />
    <glyph glyph-name="jcircumflex" unicode="&#x135;" horiz-adv-x="316" 
d="M78 566l102 131h49l101 -131l-30 -7l-93 98h-5l-94 -98zM31 -175l10 39c23.333 -6 47.333 -9 72 -9c22.667 0 43 3 61 9c4 10.667 6.5 21.5 7.5 32.5s1.5 25.167 1.5 42.5v526h44v-530c0 -38.667 -9.83301 -68.667 -29.5 -90s-48.167 -32 -85.5 -32
c-29.333 0 -56.333 4 -81 12z" />
    <glyph glyph-name="Kcommaaccent" unicode="&#x136;" horiz-adv-x="581" 
d="M471 2.5c-8.66699 5.66699 -15.6689 14.4971 -21.002 26.4971l-81 180c-14 30.667 -29.833 53 -47.5 67s-43.167 21 -76.5 21h-113v-297h-46v612h46v-272h108c34 0 59.333 7.33301 76 22s32.334 36 47.001 64c26 50.667 55 113 87 187l44 -17
c-28 -65.333 -57.333 -126.666 -88 -183.999c-13.333 -25.333 -24.833 -43.666 -34.5 -54.999s-25.5 -22.666 -47.5 -33.999v-6c22 -8.66699 39 -19 51 -31s23.333 -29.333 34 -52l90 -198l49 -8v-27c-13.333 -4.66699 -27.666 -7 -42.999 -7c-14 0 -25.333 2.83301 -34 8.5
zM254.998 -228.003c12 22 20.999 43.667 26.999 65s9 46.333 9 75h-55v33c12.667 4.66699 25.334 7 38.001 7c37.333 0 56 -20.667 56 -62c0 -45.333 -15 -87 -45 -125z" />
    <glyph glyph-name="kcommaaccent" unicode="&#x137;" horiz-adv-x="480" 
d="M370 25l-48.001 108c-14.667 33.333 -31.5 57.333 -50.5 72s-45.5 22 -79.5 22h-67v-227h-44v644h44v-378h62c35.333 0 62 7.33301 80 22s33.667 36 47 64l53 119l44 -16l-56 -120c-10.667 -23.333 -22.667 -41.5 -36 -54.5s-32 -23.167 -56 -30.5v-6
c25.333 -8 45 -18.5 59 -31.5s26.667 -32.167 38 -57.5l56 -125l39 -6v-25c-14.667 -3.33301 -26.667 -5 -36 -5c-23.333 0 -39.666 10.333 -48.999 31zM217.999 -228c12 22 20.999 43.667 26.999 65s9 46.333 9 75h-55v33c12.667 4.66699 25.334 7 38.001 7
c37.333 0 56 -20.667 56 -62c0 -45.333 -15 -87 -45 -125z" />
    <glyph glyph-name="kgreenlandic" unicode="&#x138;" horiz-adv-x="495" 
d="M388.5 3c-7 4.66699 -12.834 12.333 -17.501 23l-46 102c-10 23.333 -19.833 41.666 -29.5 54.999s-22.667 24 -39 32s-37.833 12 -64.5 12h-67v-227h-44v477h44v-211h62c38.667 0 67 6.83301 85 20.5s32.667 33.834 44 60.501l54 127l44 -14l-55 -126
c-9.33301 -22 -20.5 -39.333 -33.5 -52s-31.5 -23.667 -55.5 -33v-6c24.667 -8 43.334 -18.167 56.001 -30.5s24.667 -31.5 36 -57.5l53 -123l34 -8v-23c-9.33301 -3.33301 -20.333 -5 -33 -5c-11.333 0 -20.5 2.33301 -27.5 7z" />
    <glyph glyph-name="Lacute" unicode="&#x139;" horiz-adv-x="455" 
d="M88 713l84 140l62 -6l-114 -140zM86 612h47v-568h288v-44h-335v612z" />
    <glyph glyph-name="lacute" unicode="&#x13a;" horiz-adv-x="265" 
d="M79 714l84 140l62 -6l-114 -140zM99 27c-13.333 14.667 -20.001 28.666 -20.001 41.999v598h44v-587c0 -12 0.666992 -21.167 2 -27.5s4 -13.166 8 -20.499h15l66 31l20 -25c-25.333 -24 -56 -39 -92 -45c-15.333 8 -29.666 19.333 -42.999 34z" />
    <glyph glyph-name="Lcommaaccent" unicode="&#x13b;" horiz-adv-x="455" 
d="M86 612h47v-568h288v-44h-335v612zM230 -228c12 22 20.999 43.667 26.999 65s9 46.333 9 75h-55v33c12.667 4.66699 25.334 7 38.001 7c37.333 0 56 -20.667 56 -62c0 -45.333 -15 -87 -45 -125z" />
    <glyph glyph-name="lcommaaccent" unicode="&#x13c;" horiz-adv-x="263" 
d="M99 27c-13.333 14.667 -20.001 28.666 -20.001 41.999v598h44v-587c0 -12 0.666992 -21.167 2 -27.5s4 -13.166 8 -20.499h15l66 31l20 -25c-25.333 -24 -56 -39 -92 -45c-15.333 8 -29.666 19.333 -42.999 34zM116.999 -228.001c12 22 20.999 43.667 26.999 65
s9 46.333 9 75h-55v33c12.667 4.66699 25.334 7 38.001 7c37.333 0 56 -20.667 56 -62c0 -45.333 -15 -87 -45 -125z" />
    <glyph glyph-name="Lcaron" unicode="&#x13d;" horiz-adv-x="455" 
d="M252 433c12 22 21 43.8311 27 65.498s9 46.834 9 75.501h-55v33c11.333 4 24 6 38 6c37.333 0 56 -20.667 56 -62c0 -45.333 -15 -86.666 -45 -123.999zM86 611.998h47v-568h288v-44h-335v612z" />
    <glyph glyph-name="lcaron" unicode="&#x13e;" horiz-adv-x="300" 
d="M99 27c-13.333 14.667 -20.001 28.666 -20.001 41.999v598h44v-587c0 -12 0.666992 -21.167 2 -27.5s4 -13.166 8 -20.499h15l66 31l20 -25c-25.333 -24 -56 -39 -92 -45c-15.333 8 -29.666 19.333 -42.999 34zM206.999 480.999c12 22 21 43.832 27 65.499
s9 46.834 9 75.501h-55v33c11.333 4 24 6 38 6c37.333 0 56 -20.667 56 -62c0 -45.333 -15 -87 -45 -125z" />
    <glyph glyph-name="Ldot" unicode="&#x13f;" horiz-adv-x="455" 
d="M86 612h47v-568h288v-44h-335v612zM243.5 262.5c-7.66699 7 -11.5 16.833 -11.5 29.5c0 13.333 4 23.833 12 31.5s18.333 11.5 31 11.5c13.333 0 23.833 -3.83301 31.5 -11.5s11.5 -18.167 11.5 -31.5c0 -12.667 -3.83301 -22.5 -11.5 -29.5s-18.167 -10.5 -31.5 -10.5
s-23.833 3.5 -31.5 10.5z" />
    <glyph glyph-name="ldot" unicode="&#x140;" horiz-adv-x="291" 
d="M99 27c-13.333 14.667 -20.001 28.666 -20.001 41.999v598h44v-587c0 -12 0.666992 -21.167 2 -27.5s4 -13.166 8 -20.499h15l66 31l20 -25c-25.333 -24 -56 -39 -92 -45c-15.333 8 -29.666 19.333 -42.999 34zM217.499 262.499c-7.66699 7 -11.5 16.833 -11.5 29.5
c0 13.333 4 23.833 12 31.5s18.333 11.5 31 11.5c13.333 0 23.833 -3.83301 31.5 -11.5s11.5 -18.167 11.5 -31.5c0 -12.667 -3.83301 -22.5 -11.5 -29.5s-18.167 -10.5 -31.5 -10.5s-23.833 3.5 -31.5 10.5z" />
    <glyph glyph-name="Lslash" unicode="&#x141;" horiz-adv-x="470" 
d="M116 271l-93 -30l-12 37l105 34v300h47v-284l116 38l12 -38l-128 -41v-243h274v-44h-321v271z" />
    <glyph glyph-name="lslash" unicode="&#x142;" horiz-adv-x="283" 
d="M115 27.5c-13.333 15 -20 29.167 -20 42.5v234l-105 -34l-12 38l117 38v314h44v-300l107 35l12 -37l-119 -39v-238c0 -12.667 0.666992 -22 2 -28s4 -12.667 8 -20h15l66 30l20 -25c-24.667 -23.333 -55.334 -38 -92.001 -44c-15.333 7.33301 -29.666 18.5 -42.999 33.5z
" />
    <glyph glyph-name="Nacute" unicode="&#x143;" horiz-adv-x="610" 
d="M282 713l84 141l62 -7l-114 -139zM86 612h53l339 -540l6 2l-7 214v324h47v-612h-53l-339 540l-7 -2l8 -214v-324h-47v612z" />
    <glyph glyph-name="nacute" unicode="&#x144;" horiz-adv-x="510" 
d="M244 565l84 141l62 -7l-114 -139zM84 466h37l3 -69h7c55.333 51.333 115.666 77 180.999 77c38.667 0 67.834 -7.16699 87.501 -21.5s29.5 -37.5 29.5 -69.5v-383h-45v420c-25.333 8.66699 -52.333 13 -81 13c-32.667 0 -64.5 -6.66699 -95.5 -20s-57.167 -31 -78.5 -53
v-360h-45v466z" />
    <glyph glyph-name="Ncommaaccent" unicode="&#x145;" horiz-adv-x="610" 
d="M86 612h53l339 -540l6 2l-7 214v324h47v-612h-53l-339 540l-7 -2l8 -214v-324h-47v612zM292 -228c12 22 20.999 43.667 26.999 65s9 46.333 9 75h-55v33c12.667 4.66699 25.334 7 38.001 7c37.333 0 56 -20.667 56 -62c0 -45.333 -15 -87 -45 -125z" />
    <glyph glyph-name="ncommaaccent" unicode="&#x146;" horiz-adv-x="510" 
d="M84 466h37l3 -69h7c55.333 51.333 115.666 77 180.999 77c38.667 0 67.834 -7.16699 87.501 -21.5s29.5 -37.5 29.5 -69.5v-383h-45v420c-25.333 8.66699 -52.333 13 -81 13c-32.667 0 -64.5 -6.66699 -95.5 -20s-57.167 -31 -78.5 -53v-360h-45v466zM246 -228
c12 22 20.999 43.667 26.999 65s9 46.333 9 75h-55v33c12.667 4.66699 25.334 7 38.001 7c37.333 0 56 -20.667 56 -62c0 -45.333 -15 -87 -45 -125z" />
    <glyph glyph-name="Ncaron" unicode="&#x147;" horiz-adv-x="610" 
d="M192 845l30 7l94 -98h5l93 98l30 -7l-101 -131h-49zM86 612h53l339 -540l6 2l-7 214v324h47v-612h-53l-339 540l-7 -2l8 -214v-324h-47v612z" />
    <glyph glyph-name="ncaron" unicode="&#x148;" horiz-adv-x="510" 
d="M144 697l30 7l94 -98h5l93 98l30 -7l-101 -131h-49zM85 466h37l3 -69h7c55.333 51.333 115.666 77 180.999 77c38.667 0 67.834 -7.16699 87.501 -21.5s29.5 -37.5 29.5 -69.5v-383h-45v420c-25.333 8.66699 -52.333 13 -81 13c-32.667 0 -64.5 -6.66699 -95.5 -20
s-57.167 -31 -78.5 -53v-360h-45v466z" />
    <glyph glyph-name="napostrophe" unicode="&#x149;" horiz-adv-x="597" 
d="M33 312c12 22.667 20.999 44.667 26.999 66s9 46.333 9 75h-55v33c10.667 4 23.334 6 38.001 6c37.333 0 56 -20.667 56 -62c0 -44.667 -15 -86 -45 -124zM171.999 466h37l3 -69h7c55.333 51.333 115.666 77 180.999 77c38.667 0 67.834 -7.16699 87.501 -21.5
s29.5 -37.5 29.5 -69.5v-383h-45v420c-25.333 8.66699 -52.333 13 -81 13c-32.667 0 -64.5 -6.66699 -95.5 -20s-57.167 -31 -78.5 -53v-360h-45v466z" />
    <glyph glyph-name="Eng" unicode="&#x14a;" horiz-adv-x="610" 
d="M352 -168c47.333 12.667 85.666 29.335 114.999 50.002c5.33301 16 8 36.667 8 62v56l-343 540l-7 -2l8 -214v-324h-47v612h53l339 -540l6 2l-7 214v324h47v-645c0 -46.667 -11.167 -83.834 -33.5 -111.501s-61.166 -51.834 -116.499 -72.501z" />
    <glyph glyph-name="eng" unicode="&#x14b;" horiz-adv-x="510" 
d="M261 -171c48.667 14 87 31.001 115 51.001c5.33301 18 8 41 8 69v471c-25.333 8.66699 -52.333 13 -81 13c-32.667 0 -64.5 -6.66699 -95.5 -20s-57.167 -31 -78.5 -53v-360h-45v466h37l3 -69h7c55.333 51.333 115.666 77 180.999 77
c38.667 0 67.834 -7.16699 87.501 -21.5s29.5 -37.5 29.5 -69.5v-419c0 -45.333 -10.833 -81.833 -32.5 -109.5s-59.167 -51.834 -112.5 -72.501z" />
    <glyph glyph-name="Omacron" unicode="&#x14c;" horiz-adv-x="602" 
d="M168 755h270v-41h-270v41zM116.5 68c-37 51.333 -55.5 127.667 -55.5 229c0 105.333 19 185.833 57 241.5s102.667 83.5 194 83.5c79.333 0 137.333 -25.667 174 -77s55 -128 55 -230c0 -106 -18.833 -186.5 -56.5 -241.5s-102.5 -82.5 -194.5 -82.5
c-78.667 0 -136.5 25.667 -173.5 77zM375.5 42.501c23.667 5 43.167 11.833 58.5 20.5c40 61.333 60 141.666 60 240.999c0 63.333 -6 114.833 -18 154.5s-32.5 69.334 -61.5 89.001s-68.167 29.5 -117.5 29.5c-24 0 -47.833 -2.5 -71.5 -7.5s-43.167 -11.833 -58.5 -20.5
c-39.333 -61.333 -59 -141.666 -59 -240.999c0 -63.333 6.16699 -114.833 18.5 -154.5s32.833 -69.334 61.5 -89.001s67.667 -29.5 117 -29.5c23.333 0 46.833 2.5 70.5 7.5z" />
    <glyph glyph-name="omacron" unicode="&#x14d;" horiz-adv-x="498" 
d="M117 606h270v-40h-270v40zM103 53c-30 41.333 -45 99.333 -45 174c0 78.667 15 140.667 45 186s82.333 68 157 68c60 0 105 -21.167 135 -63.5s45 -100.833 45 -175.5c0 -78 -15 -139.333 -45 -184s-82.333 -67 -157 -67c-60 0 -105 20.667 -135 62zM358 55
c11.333 18.667 20.332 43.833 26.999 75.5s10 65.167 10 100.5c0 71.333 -11.5 123.833 -34.5 157.5s-60.5 50.5 -112.5 50.5c-45.333 0 -81.666 -8 -108.999 -24c-11.333 -18.667 -20.333 -44.167 -27 -76.5s-10 -66.5 -10 -102.5c0 -70.667 11.5 -122.5 34.5 -155.5
s60.5 -49.5 112.5 -49.5c44 0 80.333 8 109 24z" />
    <glyph glyph-name="Obreve" unicode="&#x14e;" horiz-adv-x="602" 
d="M179 810l45 7c4.66699 -23.333 12.334 -40.666 23.001 -51.999s28.667 -17 54 -17s43.333 5.66699 54 17s18.334 28.666 23.001 51.999l45 -7c-12.667 -67.333 -53.334 -101 -122.001 -101s-109.334 33.667 -122.001 101zM116.5 68c-37 51.333 -55.5 127.667 -55.5 229
c0 105.333 19 185.833 57 241.5s102.667 83.5 194 83.5c79.333 0 137.333 -25.667 174 -77s55 -128 55 -230c0 -106 -18.833 -186.5 -56.5 -241.5s-102.5 -82.5 -194.5 -82.5c-78.667 0 -136.5 25.667 -173.5 77zM375.5 42.501c23.667 5 43.167 11.833 58.5 20.5
c40 61.333 60 141.666 60 240.999c0 63.333 -6 114.833 -18 154.5s-32.5 69.334 -61.5 89.001s-68.167 29.5 -117.5 29.5c-24 0 -47.833 -2.5 -71.5 -7.5s-43.167 -11.833 -58.5 -20.5c-39.333 -61.333 -59 -141.666 -59 -240.999c0 -63.333 6.16699 -114.833 18.5 -154.5
s32.833 -69.334 61.5 -89.001s67.667 -29.5 117 -29.5c23.333 0 46.833 2.5 70.5 7.5z" />
    <glyph glyph-name="obreve" unicode="&#x14f;" horiz-adv-x="498" 
d="M126 661l44.998 8c4.66699 -23.333 12.334 -40.666 23.001 -51.999s28.667 -17 54 -17s43.333 5.66699 54 17s18.334 28.666 23.001 51.999l45 -8c-13.333 -66.667 -54 -100 -122 -100s-108.667 33.333 -122 100zM102.998 53c-30 41.333 -45 99.333 -45 174
c0 78.667 15 140.667 45 186s82.333 68 157 68c60 0 105 -21.167 135 -63.5s45 -100.833 45 -175.5c0 -78 -15 -139.333 -45 -184s-82.333 -67 -157 -67c-60 0 -105 20.667 -135 62zM357.998 55c11.333 18.667 20.332 43.833 26.999 75.5s10 65.167 10 100.5
c0 71.333 -11.5 123.833 -34.5 157.5s-60.5 50.5 -112.5 50.5c-45.333 0 -81.666 -8 -108.999 -24c-11.333 -18.667 -20.333 -44.167 -27 -76.5s-10 -66.5 -10 -102.5c0 -70.667 11.5 -122.5 34.5 -155.5s60.5 -49.5 112.5 -49.5c44 0 80.333 8 109 24z" />
    <glyph glyph-name="Ohungarumlaut" unicode="&#x150;" horiz-adv-x="602" 
d="M197 714c12 22 21 43.832 27 65.499s9 46.834 9 75.501h-55v33c14.667 4 27 6 37 6c38 0 57 -20.667 57 -62c0 -45.333 -15.333 -87 -46 -125zM362 713.999c12 22 20.999 43.832 26.999 65.499s9 46.834 9 75.501h-55v33c14.667 4 27.334 6 38.001 6
c37.333 0 56 -20.667 56 -62c0 -45.333 -15.333 -87 -46 -125zM116.499 67.998c-37 51.333 -55.5 127.667 -55.5 229c0 105.333 19 185.833 57 241.5s102.667 83.5 194 83.5c79.333 0 137.333 -25.667 174 -77s55 -128 55 -230c0 -106 -18.833 -186.5 -56.5 -241.5
s-102.5 -82.5 -194.5 -82.5c-78.667 0 -136.5 25.667 -173.5 77zM375.499 42.499c23.667 5 43.167 11.833 58.5 20.5c40 61.333 60 141.666 60 240.999c0 63.333 -6 114.833 -18 154.5s-32.5 69.334 -61.5 89.001s-68.167 29.5 -117.5 29.5c-24 0 -47.833 -2.5 -71.5 -7.5
s-43.167 -11.833 -58.5 -20.5c-39.333 -61.333 -59 -141.666 -59 -240.999c0 -63.333 6.16699 -114.833 18.5 -154.5s32.833 -69.334 61.5 -89.001s67.667 -29.5 117 -29.5c23.333 0 46.833 2.5 70.5 7.5z" />
    <glyph glyph-name="ohungarumlaut" unicode="&#x151;" horiz-adv-x="498" 
d="M142 566c12 22 21 43.668 27 65.001s9 46.666 9 75.999h-55v33c14.667 4 27 6 37 6c38 0 57 -20.667 57 -62c0 -45.333 -15.333 -87 -46 -125zM307 566.001c12 22 20.999 43.668 26.999 65.001s9 46.666 9 75.999h-55v33c14.667 4 27.334 6 38.001 6
c37.333 0 56 -20.667 56 -62c0 -45.333 -15.333 -87 -46 -125zM102.999 53.002c-30 41.333 -45 99.333 -45 174c0 78.667 15 140.667 45 186s82.333 68 157 68c60 0 105 -21.167 135 -63.5s45 -100.833 45 -175.5c0 -78 -15 -139.333 -45 -184s-82.333 -67 -157 -67
c-60 0 -105 20.667 -135 62zM357.999 55.002c11.333 18.667 20.332 43.833 26.999 75.5s10 65.167 10 100.5c0 71.333 -11.5 123.833 -34.5 157.5s-60.5 50.5 -112.5 50.5c-45.333 0 -81.666 -8 -108.999 -24c-11.333 -18.667 -20.333 -44.167 -27 -76.5
s-10 -66.5 -10 -102.5c0 -70.667 11.5 -122.5 34.5 -155.5s60.5 -49.5 112.5 -49.5c44 0 80.333 8 109 24z" />
    <glyph glyph-name="OE" unicode="&#x152;" horiz-adv-x="883" 
d="M65 297c0 106 19.832 186.667 59.499 242s105.5 83 197.5 83c48.667 0 90 -3.33301 124 -10h354v-44h-308v-238h279v-44h-279v-235c49.333 -11.333 101.666 -17 156.999 -17c54.667 0 105.334 5 152.001 15l11 -42c-46 -11.333 -101.667 -17 -167 -17
c-91.333 0 -150.666 12.333 -177.999 37h-6c-41.333 -24.667 -96 -37 -164 -37c-154.667 0 -232 102.333 -232 307zM383.999 42.5c24 5 44.333 11.833 61 20.5v504c-19.333 4 -38.5 6.66699 -57.5 8s-44.167 2 -75.5 2c-26.667 0 -53 -2.5 -79 -7.5
s-46.667 -11.833 -62 -20.5c-39.333 -61.333 -59 -141.666 -59 -240.999c0 -94.667 15 -163.834 45 -207.501s81.667 -65.5 155 -65.5c24 0 48 2.5 72 7.5z" />
    <glyph glyph-name="oe" unicode="&#x153;" horiz-adv-x="802" 
d="M102.5 56.5c-29.667 41 -44.5 98.499 -44.5 172.499c0 78.667 15 140.334 45 185.001s82.333 67 157 67c39.333 0 72.333 -9.66699 99 -29s46.667 -47 60 -83h4c14 34 35 60 63 78s62.667 27 104 27c50.667 0 90.667 -15.833 120 -47.5s44 -75.5 44 -131.5
c0 -7.33301 -0.666992 -19 -2 -35l-44 -46l-268 1c2 -60.667 15 -105.667 39 -135s62 -44 114 -44c28.667 0 53.334 2.83301 74.001 8.5s41.334 14.5 62.001 26.5l15 -36c-23.333 -12.667 -46.333 -22.5 -69 -29.5s-50.667 -10.5 -84 -10.5
c-85.333 0 -142.333 34.667 -171 104h-6c-28.667 -69.333 -87.334 -104 -176.001 -104c-60.667 0 -105.834 20.5 -135.501 61.5zM358 58.999c10.667 19.333 19.499 43.6689 26.499 73.002s10.5 60.666 10.5 93.999c0 74.667 -11.5 128.834 -34.5 162.501
s-60.5 50.5 -112.5 50.5c-45.333 0 -81.666 -8 -108.999 -24c-11.333 -18.667 -20.333 -43.834 -27 -75.501s-10 -65.167 -10 -100.5c0 -70.667 11.5 -122.334 34.5 -155.001s60.5 -49 112.5 -49c44 0 80.333 8 109 24zM706.999 254.002c4 14 6.00098 29.666 6.00098 46.999
c0 40.667 -11 72.834 -33 96.501s-53.667 35.5 -95 35.5c-50.667 0 -86.834 -15.333 -108.501 -46s-34.167 -76.667 -37.5 -138z" />
    <glyph glyph-name="Racute" unicode="&#x154;" horiz-adv-x="567" 
d="M232 713l84 141l62 -7l-114 -139zM461 2.5c-8.66699 5.66699 -15.665 14.5 -20.998 26.5l-63 142c-9.33301 20.667 -17.833 36.834 -25.5 48.501s-19.334 21.167 -35.001 28.5s-36.834 11 -63.501 11h-121v-259h-46v601c57.333 14 109.666 21 156.999 21
c71.333 0 123.833 -15 157.5 -45s50.5 -74.667 50.5 -134c0 -72.667 -33 -128 -99 -166v-7c16 -7.33301 28.333 -16.333 37 -27s18.334 -26.334 29.001 -47.001l71 -160l50 -8v-27c-13.333 -4.66699 -28 -7 -44 -7c-14 0 -25.333 2.83301 -34 8.5zM326.002 303
c26.667 17.333 46.333 36.5 59 57.5s19 47.833 19 80.5c0 48 -13.167 82.833 -39.5 104.5s-68.5 32.5 -126.5 32.5c-36 0 -71.333 -3.66699 -106 -11v-264h194z" />
    <glyph glyph-name="racute" unicode="&#x155;" horiz-adv-x="358" 
d="M159 566l84 140l62 -6l-114 -140zM84 464h35.001l4 -87h7c16 28 37.5 50.5 64.5 67.5s57.5 25.5 91.5 25.5c4.66699 0 10.167 -2.16699 16.5 -6.5s11.166 -8.83301 14.499 -13.5l-6 -32h-39c-34.667 0 -64.167 -7.83301 -88.5 -23.5s-42.5 -37.5 -54.5 -65.5v-329h-45
v464z" />
    <glyph glyph-name="Rcommaaccent" unicode="&#x156;" horiz-adv-x="567" 
d="M461 2.5c-8.66699 5.66699 -15.667 14.5 -21 26.5l-63 142c-9.33301 20 -17.833 35.833 -25.5 47.5s-19.167 21.334 -34.5 29.001s-36 11.5 -62 11.5h-123v-259h-46v601c57.333 14 109.666 21 156.999 21c71.333 0 123.833 -15 157.5 -45s50.5 -74.667 50.5 -134
c0 -72.667 -33 -128 -99 -166v-7c16 -7.33301 28.333 -16.333 37 -27s18.334 -26.334 29.001 -47.001l71 -160l50 -8v-27c-13.333 -4.66699 -28 -7 -44 -7c-14 0 -25.333 2.83301 -34 8.5zM326 303c26.667 17.333 46.333 36.5 59 57.5s19 47.833 19 80.5
c0 48 -13.167 82.833 -39.5 104.5s-68.5 32.5 -126.5 32.5c-36 0 -71.333 -3.66699 -106 -11v-264h194zM262.999 -228c12 22 20.999 43.667 26.999 65s9 46.333 9 75h-55v33c12.667 4.66699 25.334 7 38.001 7c37.333 0 56 -20.667 56 -62c0 -45.333 -15 -87 -45 -125z" />
    <glyph glyph-name="rcommaaccent" unicode="&#x157;" horiz-adv-x="359" 
d="M85 464h35.001l4 -87h7c16 28 37.5 50.5 64.5 67.5s57.5 25.5 91.5 25.5c4.66699 0 10.167 -2.16699 16.5 -6.5s11.166 -8.83301 14.499 -13.5l-6 -32h-39c-34.667 0 -64.167 -7.83301 -88.5 -23.5s-42.5 -37.5 -54.5 -65.5v-329h-45v464zM100.001 -228
c12 22 20.999 43.667 26.999 65s9 46.333 9 75h-55v33c12.667 4.66699 25.334 7 38.001 7c37.333 0 56 -20.667 56 -62c0 -45.333 -15 -87 -45 -125z" />
    <glyph glyph-name="Rcaron" unicode="&#x158;" horiz-adv-x="567" 
d="M131 845l30 7l94 -98h5l93 98l30 -7l-101 -131h-49zM461 2.5c-8.66699 5.66699 -15.665 14.5 -20.998 26.5l-63 142c-9.33301 20.667 -17.833 36.834 -25.5 48.501s-19.334 21.167 -35.001 28.5s-36.834 11 -63.501 11h-121v-259h-46v601
c57.333 14 109.666 21 156.999 21c71.333 0 123.833 -15 157.5 -45s50.5 -74.667 50.5 -134c0 -72.667 -33 -128 -99 -166v-7c16 -7.33301 28.333 -16.333 37 -27s18.334 -26.334 29.001 -47.001l71 -160l50 -8v-27c-13.333 -4.66699 -28 -7 -44 -7
c-14 0 -25.333 2.83301 -34 8.5zM326.002 303c26.667 17.333 46.333 36.5 59 57.5s19 47.833 19 80.5c0 48 -13.167 82.833 -39.5 104.5s-68.5 32.5 -126.5 32.5c-36 0 -71.333 -3.66699 -106 -11v-264h194z" />
    <glyph glyph-name="rcaron" unicode="&#x159;" horiz-adv-x="358" 
d="M68 697l30 7l94 -98h5l93 98l30 -7l-101 -131h-49zM85 464h35.001l4 -87h7c16 28 37.5 50.5 64.5 67.5s57.5 25.5 91.5 25.5c4.66699 0 10.167 -2.16699 16.5 -6.5s11.166 -8.83301 14.499 -13.5l-6 -32h-39c-34.667 0 -64.167 -7.83301 -88.5 -23.5
s-42.5 -37.5 -54.5 -65.5v-329h-45v464z" />
    <glyph glyph-name="Sacute" unicode="&#x15a;" horiz-adv-x="511" 
d="M227 714l84 141l62 -7l-114 -140zM57 32l17 40.998c28 -13.333 56.333 -23 85 -29s59.334 -9 92.001 -9c49.333 0 90.666 9 123.999 27c13.333 23.333 20 53.666 20 90.999c0 36.667 -10.833 64.334 -32.5 83.001s-57.834 34.334 -108.501 47.001
c-58.667 14.667 -104.167 34 -136.5 58s-48.5 60.333 -48.5 109c0 114.667 65 172 195 172c35.333 0 65.333 -3 90 -9s48 -14.667 70 -26v-26c0 -24 -4.33301 -51 -13 -81h-32l-8 90c-42 6 -79.667 9 -113 9c-50.667 0 -87 -10 -109 -30s-33 -50.667 -33 -92
c0 -25.333 5.33301 -45.666 16 -60.999s26.834 -28 48.501 -38s51.5 -19.667 89.5 -29c62.667 -16 107.167 -35.5 133.5 -58.5s39.5 -56.167 39.5 -99.5c0 -120 -65.667 -180 -197 -180c-68.667 0 -131.667 13.667 -189 41z" />
    <glyph glyph-name="sacute" unicode="&#x15b;" horiz-adv-x="411" 
d="M179 565l84 141l62 -7l-114 -139zM53 21l15.002 38c22.667 -10 45 -17.333 67 -22s46 -7 72 -7c34.667 0 66 4.66699 94 14c8.66699 21.333 13 45.333 13 72c0 20.667 -3 36.667 -9 48s-15.833 20.5 -29.5 27.5s-34.5 13.833 -62.5 20.5
c-52.667 12 -91.5 27.333 -116.5 46s-37.5 47 -37.5 85c0 37.333 13 68.5 39 93.5s66.667 37.5 122 37.5c46 0 85 -9 117 -27v-20c0 -20.667 -3.33301 -40.334 -10 -59.001h-27l-7 62c-22.667 4 -48.334 6 -77.001 6c-40.667 0 -69.834 -6.66699 -87.501 -20
s-26.5 -34.333 -26.5 -63c0 -19.333 3.66699 -34.666 11 -45.999s19.5 -21 36.5 -29s42.167 -16.333 75.5 -25c48 -12 82.167 -27.167 102.5 -45.5s30.5 -45.5 30.5 -81.5c0 -38 -12.167 -70 -36.5 -96s-64.5 -39 -120.5 -39c-58 0 -107.333 10 -148 30z" />
    <glyph glyph-name="Scircumflex" unicode="&#x15c;" horiz-adv-x="511" 
d="M135 714l102 131h49l101 -131l-30 -7l-93 98h-5l-94 -98zM57 32l17 40.998c28 -13.333 56.333 -23 85 -29s59.334 -9 92.001 -9c49.333 0 90.666 9 123.999 27c13.333 23.333 20 53.666 20 90.999c0 36.667 -10.833 64.334 -32.5 83.001s-57.834 34.334 -108.501 47.001
c-58.667 14.667 -104.167 34 -136.5 58s-48.5 60.333 -48.5 109c0 114.667 65 172 195 172c35.333 0 65.333 -3 90 -9s48 -14.667 70 -26v-26c0 -24 -4.33301 -51 -13 -81h-32l-8 90c-42 6 -79.667 9 -113 9c-50.667 0 -87 -10 -109 -30s-33 -50.667 -33 -92
c0 -25.333 5.33301 -45.666 16 -60.999s26.834 -28 48.501 -38s51.5 -19.667 89.5 -29c62.667 -16 107.167 -35.5 133.5 -58.5s39.5 -56.167 39.5 -99.5c0 -120 -65.667 -180 -197 -180c-68.667 0 -131.667 13.667 -189 41z" />
    <glyph glyph-name="scircumflex" unicode="&#x15d;" horiz-adv-x="411" 
d="M80 565l102 132h49l101 -132l-30 -6l-93 98h-5l-94 -98zM53 21l15.002 38c22.667 -10 45 -17.333 67 -22s46 -7 72 -7c34.667 0 66 4.66699 94 14c8.66699 21.333 13 45.333 13 72c0 20.667 -3 36.667 -9 48s-15.833 20.5 -29.5 27.5s-34.5 13.833 -62.5 20.5
c-52.667 12 -91.5 27.333 -116.5 46s-37.5 47 -37.5 85c0 37.333 13 68.5 39 93.5s66.667 37.5 122 37.5c46 0 85 -9 117 -27v-20c0 -20.667 -3.33301 -40.334 -10 -59.001h-27l-7 62c-22.667 4 -48.334 6 -77.001 6c-40.667 0 -69.834 -6.66699 -87.501 -20
s-26.5 -34.333 -26.5 -63c0 -19.333 3.66699 -34.666 11 -45.999s19.5 -21 36.5 -29s42.167 -16.333 75.5 -25c48 -12 82.167 -27.167 102.5 -45.5s30.5 -45.5 30.5 -81.5c0 -38 -12.167 -70 -36.5 -96s-64.5 -39 -120.5 -39c-58 0 -107.333 10 -148 30z" />
    <glyph glyph-name="Scedilla" unicode="&#x15e;" horiz-adv-x="511" 
d="M173 -200l12.002 31.9961c21.333 -8 45 -12 71 -12c20.667 0 38 2.33301 52 7c4 12 6 24.333 6 37c0 14 -3.66699 24.5 -11 31.5s-19.333 10.5 -36 10.5c-18.667 0 -33.667 -2 -45 -6l-32 31l50 60c-64.667 0 -125.667 13.667 -183 41l17 41
c28 -13.333 56.333 -23 85 -29s59.334 -9 92.001 -9c49.333 0 90.666 9 123.999 27c13.333 23.333 20 53.666 20 90.999c0 36.667 -10.833 64.334 -32.5 83.001s-57.834 34.334 -108.501 47.001c-58.667 14.667 -104.167 34 -136.5 58s-48.5 60.333 -48.5 109
c0 114.667 65 172 195 172c35.333 0 65.333 -3 90 -9s48 -14.667 70 -26v-26c0 -24 -4.33301 -51 -13 -81h-32l-8 90c-42 6 -79.667 9 -113 9c-50.667 0 -87 -10 -109 -30s-33 -50.667 -33 -92c0 -25.333 5.33301 -45.666 16 -60.999s26.834 -28 48.501 -38
s51.5 -19.667 89.5 -29c62.667 -16 107.167 -35.5 133.5 -58.5s39.5 -56.167 39.5 -99.5c0 -49.333 -12.333 -90.166 -37 -122.499s-67.667 -51.166 -129 -56.499l-44 -60c13.333 6 29.666 9 48.999 9c48 0 72 -24.333 72 -73c0 -56 -33.667 -84 -101 -84
c-28.667 0 -55.334 5.33301 -80.001 16z" />
    <glyph glyph-name="scedilla" unicode="&#x15f;" horiz-adv-x="411" 
d="M126 -200l12.001 32.001c22 -8 45.667 -12 71 -12c20.667 0 38 2.33301 52 7c4 8.66699 6 21 6 37c0 14 -3.66699 24.5 -11 31.5s-19 10.5 -35 10.5c-19.333 0 -34.666 -2 -45.999 -6l-31 31l50 60c-55.333 1.33301 -102.333 11.333 -141 30l15 38
c22.667 -10 45 -17.333 67 -22s46 -7 72 -7c34.667 0 66 4.66699 94 14c8.66699 21.333 13 45.333 13 72c0 20.667 -3 36.667 -9 48s-15.833 20.5 -29.5 27.5s-34.5 13.833 -62.5 20.5c-52.667 12 -91.5 27.333 -116.5 46s-37.5 47 -37.5 85c0 37.333 13 68.5 39 93.5
s66.667 37.5 122 37.5c46 0 85 -9 117 -27v-20c0 -20.667 -3.33301 -40.334 -10 -59.001h-27l-7 62c-22.667 4 -48.334 6 -77.001 6c-40.667 0 -69.834 -6.66699 -87.501 -20s-26.5 -34.333 -26.5 -63c0 -19.333 3.66699 -34.666 11 -45.999s19.5 -21 36.5 -29
s42.167 -16.333 75.5 -25c48 -12 82.167 -27.167 102.5 -45.5s30.5 -45.5 30.5 -81.5c0 -34.667 -9.83301 -64.334 -29.5 -89.001s-52.167 -39.667 -97.5 -45l-45 -60c14 6 30.333 9 49 9c48.667 0 73 -24.333 73 -73c0 -56 -33.667 -84 -101 -84
c-29.333 0 -56.333 5.33301 -81 16z" />
    <glyph glyph-name="Scaron" unicode="&#x160;" horiz-adv-x="511" 
d="M130 845l30 7l94 -98h5l93 98l30 -7l-101 -131h-49zM57 32l17 40.998c28 -13.333 56.333 -23 85 -29s59.334 -9 92.001 -9c49.333 0 90.666 9 123.999 27c13.333 23.333 20 53.666 20 90.999c0 36.667 -10.833 64.334 -32.5 83.001s-57.834 34.334 -108.501 47.001
c-58.667 14.667 -104.167 34 -136.5 58s-48.5 60.333 -48.5 109c0 114.667 65 172 195 172c35.333 0 65.333 -3 90 -9s48 -14.667 70 -26v-26c0 -24 -4.33301 -51 -13 -81h-32l-8 90c-42 6 -79.667 9 -113 9c-50.667 0 -87 -10 -109 -30s-33 -50.667 -33 -92
c0 -25.333 5.33301 -45.666 16 -60.999s26.834 -28 48.501 -38s51.5 -19.667 89.5 -29c62.667 -16 107.167 -35.5 133.5 -58.5s39.5 -56.167 39.5 -99.5c0 -120 -65.667 -180 -197 -180c-68.667 0 -131.667 13.667 -189 41z" />
    <glyph glyph-name="scaron" unicode="&#x161;" horiz-adv-x="411" 
d="M78 697l30 7l94 -98h5l93 98l30 -7l-101 -131h-49zM53 21l15.002 38c22.667 -10 45 -17.333 67 -22s46 -7 72 -7c34.667 0 66 4.66699 94 14c8.66699 21.333 13 45.333 13 72c0 20.667 -3 36.667 -9 48s-15.833 20.5 -29.5 27.5s-34.5 13.833 -62.5 20.5
c-52.667 12 -91.5 27.333 -116.5 46s-37.5 47 -37.5 85c0 37.333 13 68.5 39 93.5s66.667 37.5 122 37.5c46 0 85 -9 117 -27v-20c0 -20.667 -3.33301 -40.334 -10 -59.001h-27l-7 62c-22.667 4 -48.334 6 -77.001 6c-40.667 0 -69.834 -6.66699 -87.501 -20
s-26.5 -34.333 -26.5 -63c0 -19.333 3.66699 -34.666 11 -45.999s19.5 -21 36.5 -29s42.167 -16.333 75.5 -25c48 -12 82.167 -27.167 102.5 -45.5s30.5 -45.5 30.5 -81.5c0 -38 -12.167 -70 -36.5 -96s-64.5 -39 -120.5 -39c-58 0 -107.333 10 -148 30z" />
    <glyph glyph-name="uni0162" unicode="&#x162;" horiz-adv-x="520" 
d="M157 -201l11.999 31.999c23.333 -7.33301 47 -11 71 -11c22.667 0 40 2 52 6c4 10 6 22.333 6 37s-3.5 25.334 -10.5 32.001s-18.833 10 -35.5 10c-19.333 0 -34.666 -2 -45.999 -6l-31 31l62 74v563h-199v45h444v-45h-198v-567h-15l-52 -68c14.667 5.33301 31 8 49 8
c48.667 0 73 -24 73 -72c0 -56.667 -33.667 -85 -101 -85c-29.333 0 -56.333 5.33301 -81 16z" />
    <glyph glyph-name="uni0163" unicode="&#x163;" horiz-adv-x="356" 
d="M103 -200l12.001 31.9961c21.333 -8 45 -12 71 -12c20.667 0 38 2.33301 52 7c4 12 6 24.333 6 37c0 14 -3.66699 24.5 -11 31.5s-19.333 10.5 -36 10.5c-18.667 0 -33.667 -2 -45 -6l-32 31l60 70l-24 12c-13.333 6.66699 -23.833 16.334 -31.5 29.001
s-11.5 28.334 -11.5 47.001v331h-80l6 39h74v133h44v-133h154l-5 -39h-149v-319c0 -13.333 0.666992 -23.666 2 -30.999s3.66602 -15.666 6.99902 -24.999c20.667 -6 41 -9 61 -9c13.333 0 27.333 1.5 42 4.5s27.334 7.16699 38.001 12.5l13 -38
c-10 -5.33301 -23.167 -10 -39.5 -14s-31.833 -6 -46.5 -6c-10.667 0 -18.667 0.333008 -24 1l-47 -64c12.667 6 29 9 49 9c48.667 0 73 -24.333 73 -73c0 -56 -34 -84 -102 -84c-28.667 0 -55.334 5.33301 -80.001 16z" />
    <glyph glyph-name="Tcaron" unicode="&#x164;" horiz-adv-x="520" 
d="M133 845l30 7l94 -98h5l93 98l30 -7l-101 -131h-49zM237 567h-199v45h444v-45h-198v-567h-47v567z" />
    <glyph glyph-name="tcaron" unicode="&#x165;" horiz-adv-x="356" 
d="M43 824l30 7l94 -98h5l93 98l30 -7l-101 -132h-49zM174 2c-40.667 20.667 -61 49.665 -61 86.998v331h-80l6 39h74v133h44v-133h154l-5 -39h-149v-319c0 -13.333 0.666992 -23.666 2 -30.999s3.66602 -15.666 6.99902 -24.999c20.667 -6 41 -9 61 -9
c13.333 0 27.333 1.5 42 4.5s27.334 7.16699 38.001 12.5l13 -38c-10 -5.33301 -23.167 -10 -39.5 -14s-31.833 -6 -46.5 -6c-22 0 -42 2.33301 -60 7z" />
    <glyph glyph-name="Tbar" unicode="&#x166;" horiz-adv-x="520" 
d="M237 286h-118v41h118v240h-199v45h444v-45h-198v-240h116v-41h-116v-286h-47v286z" />
    <glyph glyph-name="tbar" unicode="&#x167;" horiz-adv-x="356" 
d="M174 1c-18.667 10 -33.5 21.8291 -44.5 35.4961s-16.5 30.834 -16.5 51.501v155h-77v40h77v137h-80l6 39h74v133h44v-133h154l-5 -39h-149v-137h110v-40h-110v-143c0 -13.333 0.666992 -23.666 2 -30.999s3.66602 -15.666 6.99902 -24.999c18.667 -5.33301 39 -8 61 -8
c13.333 0 27.333 1.5 42 4.5s27.334 6.83301 38.001 11.5l13 -37c-10.667 -5.33301 -24 -10.166 -40 -14.499s-31.333 -6.5 -46 -6.5c-18 0 -38 2.33301 -60 7z" />
    <glyph glyph-name="Utilde" unicode="&#x168;" horiz-adv-x="592" 
d="M164 718c1.33301 26.667 8.33301 47.335 21 62.002s30 22 52 22c11.333 0 21.5 -2.5 30.5 -7.5s20.167 -12.167 33.5 -21.5c12 -8.66699 21.5 -14.834 28.5 -18.501s14.5 -5.5 22.5 -5.5c26 0 41.333 18 46 54l31 -10c-1.33301 -26.667 -8.33301 -47.334 -21 -62.001
s-30 -22 -52 -22c-11.333 0 -22 2.5 -32 7.5s-21.333 12.167 -34 21.5c-20 16 -36.333 24 -49 24c-26 0 -41.333 -17.667 -46 -53zM134 34.501c-34.667 29 -52.001 73.5 -52.001 133.5v444h47v-432c0 -37.333 5.83301 -66.5 17.5 -87.5s29.834 -35.833 54.501 -44.5
s57.334 -13 98.001 -13c64 0 118 9.33301 162 28v549h47v-526c0 -30.667 -19.5 -54.167 -58.5 -70.5s-91.5 -24.5 -157.5 -24.5c-70.667 0 -123.334 14.5 -158.001 43.5z" />
    <glyph glyph-name="utilde" unicode="&#x169;" horiz-adv-x="504" 
d="M120 570c1.33301 26.667 8.33301 47.335 21 62.002s30 22 52 22c11.333 0 21.5 -2.5 30.5 -7.5s20.167 -12.167 33.5 -21.5c12 -8.66699 21.5 -14.834 28.5 -18.501s14.5 -5.5 22.5 -5.5c26 0 41.333 18 46 54l31 -10c-1.33301 -26.667 -8.33301 -47.334 -21 -62.001
s-30 -22 -52 -22c-11.333 0 -22 2.5 -32 7.5s-21.333 12.167 -34 21.5c-20 16 -36.333 24 -49 24c-26 0 -41.333 -18 -46 -54zM108.5 12.501c-19.667 14.333 -29.499 37.5 -29.499 69.5v384h45v-422c23.333 -8 49.666 -12 78.999 -12c34 0 66 7.16699 96 21.5
s55.333 32.833 76 55.5v357h45v-466h-37l-4 71h-6c-28 -26.667 -55.667 -46.667 -83 -60s-58.666 -20 -93.999 -20c-38.667 0 -67.834 7.16699 -87.501 21.5z" />
    <glyph glyph-name="Umacron" unicode="&#x16a;" horiz-adv-x="592" 
d="M160 755h270v-41h-270v41zM134 34.5c-34.667 29 -52.001 73.5 -52.001 133.5v444h47v-432c0 -37.333 5.83301 -66.5 17.5 -87.5s29.834 -35.833 54.501 -44.5s57.334 -13 98.001 -13c64 0 118 9.33301 162 28v549h47v-526c0 -30.667 -19.5 -54.167 -58.5 -70.5
s-91.5 -24.5 -157.5 -24.5c-70.667 0 -123.334 14.5 -158.001 43.5z" />
    <glyph glyph-name="umacron" unicode="&#x16b;" horiz-adv-x="504" 
d="M117 606h270v-40h-270v40zM108.5 12.5c-19.667 14.333 -29.499 37.5 -29.499 69.5v384h45v-422c23.333 -8 49.666 -12 78.999 -12c34 0 66 7.16699 96 21.5s55.333 32.833 76 55.5v357h45v-466h-37l-4 71h-6c-28 -26.667 -55.667 -46.667 -83 -60
s-58.666 -20 -93.999 -20c-38.667 0 -67.834 7.16699 -87.501 21.5z" />
    <glyph glyph-name="Ubreve" unicode="&#x16c;" horiz-adv-x="592" 
d="M175 810l45 7c4.66699 -23.333 12.334 -40.666 23.001 -51.999s28.667 -17 54 -17s43.333 5.66699 54 17s18.334 28.666 23.001 51.999l45 -7c-12.667 -67.333 -53.334 -101 -122.001 -101s-109.334 33.667 -122.001 101zM134 34.5
c-34.667 29 -52.001 73.5 -52.001 133.5v444h47v-432c0 -37.333 5.83301 -66.5 17.5 -87.5s29.834 -35.833 54.501 -44.5s57.334 -13 98.001 -13c64 0 118 9.33301 162 28v549h47v-526c0 -30.667 -19.5 -54.167 -58.5 -70.5s-91.5 -24.5 -157.5 -24.5
c-70.667 0 -123.334 14.5 -158.001 43.5z" />
    <glyph glyph-name="ubreve" unicode="&#x16d;" horiz-adv-x="504" 
d="M130 661l44.998 8c4.66699 -23.333 12.334 -40.666 23.001 -51.999s28.667 -17 54 -17s43.333 5.66699 54 17s18.334 28.666 23.001 51.999l45 -8c-13.333 -66.667 -54 -100 -122 -100s-108.667 33.333 -122 100zM108.498 12.5c-19.667 14.333 -29.499 37.5 -29.499 69.5
v384h45v-422c23.333 -8 49.666 -12 78.999 -12c34 0 66 7.16699 96 21.5s55.333 32.833 76 55.5v357h45v-466h-37l-4 71h-6c-28 -26.667 -55.667 -46.667 -83 -60s-58.666 -20 -93.999 -20c-38.667 0 -67.834 7.16699 -87.501 21.5z" />
    <glyph glyph-name="Uring" unicode="&#x16e;" horiz-adv-x="592" 
d="M214.5 643.5c-17 13.667 -25.5 33.834 -25.5 60.501c0 25.333 10.5 47.166 31.5 65.499s48.833 27.5 83.5 27.5c64.667 0 97 -27.333 97 -82c0 -26 -10 -47.833 -30 -65.5s-48 -26.5 -84 -26.5c-31.333 0 -55.5 6.83301 -72.5 20.5zM356 663c6 18 9 34.333 9 49
c0 35.333 -21.667 53 -65 53c-27.333 0 -49.333 -2.66699 -66 -8c-6 -18 -9 -34.667 -9 -50c0 -34.667 21.333 -52 64 -52c28 0 50.333 2.66699 67 8zM134 34.5c-34.667 29 -52.001 73.5 -52.001 133.5v444h47v-432c0 -37.333 5.83301 -66.5 17.5 -87.5
s29.834 -35.833 54.501 -44.5s57.334 -13 98.001 -13c64 0 118 9.33301 162 28v549h47v-526c0 -30.667 -19.5 -54.167 -58.5 -70.5s-91.5 -24.5 -157.5 -24.5c-70.667 0 -123.334 14.5 -158.001 43.5z" />
    <glyph glyph-name="uring" unicode="&#x16f;" horiz-adv-x="504" 
d="M171.5 580c-17 14 -25.5 34 -25.5 60s10.5 48.167 31.5 66.5s48.833 27.5 83.5 27.5c64.667 0 97 -27.667 97 -83c0 -26 -10 -47.833 -30 -65.5s-48 -26.5 -84 -26.5c-31.333 0 -55.5 7 -72.5 21zM313 600c6 17.333 9 33.333 9 48c0 36 -21.667 54 -65 54
c-25.333 0 -47.333 -3 -66 -9c-6 -17.333 -9 -34 -9 -50c0 -16.667 5.33301 -29.5 16 -38.5s26.667 -13.5 48 -13.5c26 0 48.333 3 67 9zM108.5 12.5c-19.667 14.333 -29.499 37.5 -29.499 69.5v384h45v-422c23.333 -8 49.666 -12 78.999 -12c34 0 66 7.16699 96 21.5
s55.333 32.833 76 55.5v357h45v-466h-37l-4 71h-6c-28 -26.667 -55.667 -46.667 -83 -60s-58.666 -20 -93.999 -20c-38.667 0 -67.834 7.16699 -87.501 21.5z" />
    <glyph glyph-name="Uhungarumlaut" unicode="&#x170;" horiz-adv-x="592" 
d="M185 714c12 22 21 43.832 27 65.499s9 46.834 9 75.501h-55v33c14.667 4 27 6 37 6c38 0 57 -20.667 57 -62c0 -45.333 -15.333 -87 -46 -125zM350 713.999c12 22 20.999 43.832 26.999 65.499s9 46.834 9 75.501h-55v33c14.667 4 27.334 6 38.001 6
c37.333 0 56 -20.667 56 -62c0 -45.333 -15.333 -87 -46 -125zM133.999 34.498c-34.667 29 -52.001 73.5 -52.001 133.5v444h47v-432c0 -37.333 5.83301 -66.5 17.5 -87.5s29.834 -35.833 54.501 -44.5s57.334 -13 98.001 -13c64 0 118 9.33301 162 28v549h47v-526
c0 -30.667 -19.5 -54.167 -58.5 -70.5s-91.5 -24.5 -157.5 -24.5c-70.667 0 -123.334 14.5 -158.001 43.5z" />
    <glyph glyph-name="uhungarumlaut" unicode="&#x171;" horiz-adv-x="504" 
d="M141 565c12 22 21 43.668 27 65.001s9 46.666 9 75.999h-55v33c14.667 4 27 6 37 6c38 0 57 -20.667 57 -62c0 -45.333 -15.333 -87 -46 -125zM306 565.001c12 22 20.999 43.668 26.999 65.001s9 46.666 9 75.999h-55v33c14.667 4 27.334 6 38.001 6
c37.333 0 56 -20.667 56 -62c0 -45.333 -15.333 -87 -46 -125zM108.499 12.502c-19.667 14.333 -29.499 37.5 -29.499 69.5v384h45v-422c23.333 -8 49.666 -12 78.999 -12c34 0 66 7.16699 96 21.5s55.333 32.833 76 55.5v357h45v-466h-37l-4 71h-6
c-28 -26.667 -55.667 -46.667 -83 -60s-58.666 -20 -93.999 -20c-38.667 0 -67.834 7.16699 -87.501 21.5z" />
    <glyph glyph-name="Uogonek" unicode="&#x172;" horiz-adv-x="592" 
d="M268.5 -142c-14.333 14 -21.5029 32.668 -21.5029 56.001c0 31.333 12.667 57 38 77c-68 0.666992 -118.833 15.5 -152.5 44.5s-50.5 73.167 -50.5 132.5v444h47v-432c0 -37.333 5.83301 -66.5 17.5 -87.5s29.834 -35.833 54.501 -44.5s57.334 -13 98.001 -13
c64 0 118 9.33301 162 28v549h47v-526c0 -27.333 -15.667 -49 -47 -65s-74 -25.667 -128 -29c-16 -11.333 -27.333 -22.833 -34 -34.5s-10 -25.834 -10 -42.501c0 -13.333 2.66699 -25.333 8 -36c12.667 -2.66699 26 -4 40 -4c10.667 0 24.334 1.66699 41.001 5l7 -32
c-16 -7.33301 -34.667 -11 -56 -11c-26 0 -46.167 7 -60.5 21z" />
    <glyph glyph-name="uogonek" unicode="&#x173;" horiz-adv-x="504" 
d="M448 -155c-16 -7.33301 -34.667 -11.001 -56 -11.001c-26.667 0 -47 6.83301 -61 20.5s-21 32.5 -21 56.5c0 22 6.16699 40.833 18.5 56.5s30.5 29.167 54.5 40.5l-4 63h-6c-28 -26.667 -55.667 -46.667 -83 -60s-58.666 -20 -93.999 -20
c-38.667 0 -67.834 7.16699 -87.501 21.5s-29.5 37.5 -29.5 69.5v384h45v-422c23.333 -8 49.666 -12 78.999 -12c34 0 66 7.16699 96 21.5s55.333 32.833 76 55.5v357h45v-466h-8c-22 -12.667 -37.5 -25.667 -46.5 -39s-13.5 -29.666 -13.5 -48.999c0 -12 2.66699 -24 8 -36
c12.667 -2.66699 26 -4 40 -4c10.667 0 24.334 1.66699 41.001 5z" />
    <glyph glyph-name="Wcircumflex" unicode="&#x174;" horiz-adv-x="820" 
d="M284 713l102 131h49l101 -131l-30 -7l-93 98h-5l-94 -98zM48 610l50 7c33.333 -173.333 78.333 -361.666 135 -564.999h7c26 61.333 53 131 81 209s53.333 154.667 76 230l-24 112l47 7c37.333 -178.667 90.666 -364.667 159.999 -558h7c56 196 101 384.333 135 565
l50 -7c-45.333 -210 -97.666 -413.333 -156.999 -610h-61c-51.333 138.667 -95 273.667 -131 405h-9c-42 -135.333 -93 -270.333 -153 -405h-56c-56 185.333 -108.333 388.666 -157 609.999z" />
    <glyph glyph-name="wcircumflex" unicode="&#x175;" horiz-adv-x="699" 
d="M218 565l102 132h49l101 -132l-30 -6l-93 98h-5l-94 -98zM43 464l44 5.00195c42.667 -178.667 82 -320 118 -424h10c48.667 128.667 87.334 238 116.001 328l-20 84l40 6c30.667 -131.333 72 -271.333 124 -420h11c37.333 99.333 81 241.666 131 426.999l43 -5
c-30.667 -106.667 -56.834 -194.167 -78.501 -262.5s-45.167 -135.833 -70.5 -202.5h-60c-35.333 96.667 -69 198 -101 304h-5c-18.667 -58.667 -52 -151.334 -100 -278.001l-10 -26h-54c-54 150 -100 304.667 -138 464z" />
    <glyph glyph-name="Ycircumflex" unicode="&#x176;" horiz-adv-x="591" 
d="M169 714l102 131h49l101 -131l-30 -7l-93 98h-5l-94 -98zM272 228h-18.999c-86.667 107.333 -160.334 232.666 -221.001 375.999l47 14c26 -65.333 56.333 -128.5 91 -189.5s70.334 -114.833 107.001 -161.5h37c36.667 48 72.5 102.333 107.5 163
s65.167 123.334 90.5 188.001l47 -14c-62.667 -146 -136.334 -271.333 -221.001 -376h-19v-228h-47v228z" />
    <glyph glyph-name="ycircumflex" unicode="&#x177;" horiz-adv-x="482" 
d="M119 565l102 132h49l101 -132l-30 -6l-93 98h-5l-94 -98zM62 -168l0.00195312 22c0 16.667 2.66699 35 8 55h33v-49c13.333 -2.66699 29.666 -4 48.999 -4c17.333 0 33.333 2 48 6c19.333 42.667 39.666 96 60.999 160h-68c-32.667 80.667 -60.5 154.667 -83.5 222
s-45.833 141 -68.5 221l45 5c43.333 -158 87.666 -293.667 132.999 -407h57c45.333 140 83.666 275.667 114.999 407l45 -5c-24.667 -104 -53.167 -206.667 -85.5 -308s-65.166 -192.333 -98.499 -273c-19.333 -44.667 -56.666 -67 -111.999 -67c-30.667 0 -56.667 5 -78 15
z" />
    <glyph glyph-name="Ydieresis" unicode="&#x178;" horiz-adv-x="591" 
d="M193 717.5c-6 5.66699 -9 13.167 -9 22.5c0 10 3 17.833 9 23.5s14 8.5 24 8.5s17.833 -2.66699 23.5 -8s8.5 -13.333 8.5 -24c0 -9.33301 -2.83301 -16.833 -8.5 -22.5s-13.5 -8.5 -23.5 -8.5s-18 2.83301 -24 8.5zM350 717.5c-6 5.66699 -9 13.167 -9 22.5
c0 10.667 3 18.667 9 24s14.333 8 25 8c10 0 17.833 -2.66699 23.5 -8s8.5 -13.333 8.5 -24c0 -9.33301 -2.83301 -16.833 -8.5 -22.5s-13.5 -8.5 -23.5 -8.5c-10.667 0 -19 2.83301 -25 8.5zM272 228h-18.999c-86.667 107.333 -160.334 232.666 -221.001 375.999l47 14
c26 -65.333 56.333 -128.5 91 -189.5s70.334 -114.833 107.001 -161.5h37c36.667 48 72.5 102.333 107.5 163s65.167 123.334 90.5 188.001l47 -14c-62.667 -146 -136.334 -271.333 -221.001 -376h-19v-228h-47v228z" />
    <glyph glyph-name="Zacute" unicode="&#x179;" horiz-adv-x="545" 
d="M239 714l84 140l62 -6l-114 -140zM60 58l364 501.998v8h-300v-70h-34c-9.33301 26.667 -14 54.334 -14 83.001v31h401v-56l-365 -504v-9h326v75h33c10 -25.333 15 -54.666 15 -87.999v-30h-426v58z" />
    <glyph glyph-name="zacute" unicode="&#x17a;" horiz-adv-x="436" 
d="M186 566l84 140l62 -6l-114 -140zM57 52l264 368v7h-210l-5 -60h-31c-6 22.667 -9 44 -9 64v35h302v-54l-264 -365v-8h231l5 64h31c6 -24 9 -45.667 9 -65v-38h-323v52z" />
    <glyph glyph-name="Zdotaccent" unicode="&#x17b;" horiz-adv-x="545" 
d="M247.5 719.5c-7.66699 7 -11.501 16.833 -11.501 29.5c0 28 14.667 42 44 42c28 0 42 -14 42 -42c0 -12.667 -3.66699 -22.5 -11 -29.5s-17.666 -10.5 -30.999 -10.5c-14 0 -24.833 3.5 -32.5 10.5zM59.999 58l364 501.998v8h-300v-70h-34
c-9.33301 26.667 -14 54.334 -14 83.001v31h401v-56l-365 -504v-9h326v75h33c10 -25.333 15 -54.666 15 -87.999v-30h-426v58z" />
    <glyph glyph-name="zdotaccent" unicode="&#x17c;" horiz-adv-x="436" 
d="M190.5 571.5c-7.66699 7 -11.501 16.833 -11.501 29.5c0 28 14.667 42 44 42c28 0 42 -14 42 -42c0 -12.667 -3.66699 -22.5 -11 -29.5s-17.666 -10.5 -30.999 -10.5c-14 0 -24.833 3.5 -32.5 10.5zM56.999 52l264 368v7h-210l-5 -60h-31c-6 22.667 -9 44 -9 64v35h302
v-54l-264 -365v-8h231l5 64h31c6 -24 9 -45.667 9 -65v-38h-323v52z" />
    <glyph glyph-name="Zcaron" unicode="&#x17d;" horiz-adv-x="545" 
d="M149 845l30 7l94 -98h5l93 98l30 -7l-101 -131h-49zM60 58l364 501.998v8h-300v-70h-34c-9.33301 26.667 -14 54.334 -14 83.001v31h401v-56l-365 -504v-9h326v75h33c10 -25.333 15 -54.666 15 -87.999v-30h-426v58z" />
    <glyph glyph-name="zcaron" unicode="&#x17e;" horiz-adv-x="437" 
d="M98 697l30 7l94 -98h5l93 98l30 -7l-101 -131h-49zM59 52l264 368v7h-210l-5 -60h-31c-6 22.667 -9 44 -9 64v35h302v-54l-264 -365v-8h231l5 64h31c6 -24 9 -45.667 9 -65v-38h-323v52z" />
    <glyph glyph-name="uni018F" unicode="&#x18f;" horiz-adv-x="612" 
d="M118 58c-38 42.667 -57.001 101.999 -57.001 177.999c0 10.667 0.666992 24.667 2 42l68 55l358 -3c0 84 -18.167 146.167 -54.5 186.5s-88.833 60.5 -157.5 60.5c-39.333 0 -74 -4.66699 -104 -14s-59.667 -22.666 -89 -39.999l-20 35c34 20.667 67.5 36.5 100.5 47.5
s72.833 16.5 119.5 16.5c80.667 0 142.834 -25.833 186.501 -77.5s65.5 -128.5 65.5 -230.5c0 -106.667 -19.5 -186.667 -58.5 -240s-102.5 -80 -190.5 -80c-74.667 0 -131 21.333 -169 64zM442.999 102.999c31.333 42.667 47.001 104.999 47.001 186.999l-377 -6
c-3.33301 -20 -5 -40.667 -5 -62c0 -57.333 15.667 -102.166 47 -134.499s76 -48.5 134 -48.5c71.333 0 122.666 21.333 153.999 64z" />
    <glyph glyph-name="florin" unicode="&#x192;" horiz-adv-x="449" 
d="M-5 -142l9.99805 41.001c14.667 -2.66699 30.334 -4 47.001 -4c22.667 0 44 2.66699 64 8c5.33301 10 9.66602 20.833 12.999 32.5s6.33301 26.5 9 44.5l60 433h-66l10 40h62l13 90c4 26 13.833 48.167 29.5 66.5s33.834 32.166 54.501 41.499c22 4 41.333 6 58 6
c24.667 0 49.334 -4.66699 74.001 -14l-16 -38c-20 7.33301 -42 11 -66 11c-22.667 0 -46 -3.33301 -70 -10c-10 -20.667 -17 -43.667 -21 -69l-12 -84h107l-10 -40h-102l-60 -429c-7.33301 -49.333 -20.333 -84 -39 -104s-49.667 -30 -93 -30c-20 0 -38.667 2.66699 -56 8z
" />
    <glyph glyph-name="Ohorn" unicode="&#x1a0;" horiz-adv-x="633" 
d="M116.5 68c-37 51.333 -55.499 128.001 -55.499 230.001c0 105.333 19 185.666 57 240.999s102.667 83 194 83c87.333 0 149 -31.667 185 -95h18c15.333 28 27.166 57.167 35.499 87.5s12.833 64.166 13.5 101.499h46c-1.33301 -52.667 -9.5 -97.667 -24.5 -135
s-38.5 -68.333 -70.5 -93c17.333 -44 26 -101.667 26 -173c0 -105.333 -19 -185.666 -57 -240.999s-102.667 -83 -194 -83c-78.667 0 -136.5 25.667 -173.5 77zM375.501 42.501c23.667 5 43.168 11.834 58.501 20.501c19.333 29.333 34.166 64.5 44.499 105.5
s15.5 86.167 15.5 135.5c0 63.333 -6 114.833 -18 154.5s-32.5 69.5 -61.5 89.5s-68.167 30 -117.5 30c-24 0 -47.833 -2.5 -71.5 -7.5s-43.167 -11.833 -58.5 -20.5c-39.333 -61.333 -59 -142 -59 -242c0 -94.667 14.667 -163.834 44 -207.501s80.333 -65.5 153 -65.5
c23.333 0 46.833 2.5 70.5 7.5z" />
    <glyph glyph-name="ohorn" unicode="&#x1a1;" horiz-adv-x="555" 
d="M102.5 56.5c-29.667 41 -44.498 98.499 -44.498 172.499c0 78.667 15 140.334 45 185.001s82.333 67 157 67c39.333 0 72.166 -9.33301 98.499 -28s46.166 -45.334 59.499 -80.001h13c20.667 22.667 35.167 46.334 43.5 71.001s13.166 56.667 14.499 96h46
c-1.33301 -52 -9.66602 -93.833 -24.999 -125.5s-41.666 -59.167 -78.999 -82.5c6 -24.667 9 -54 9 -88c0 -78 -14.833 -139 -44.5 -183s-82.167 -66 -157.5 -66c-60.667 0 -105.834 20.5 -135.501 61.5zM358.002 58.999c11.333 18.667 20.332 43.502 26.999 74.502
s10 64.5 10 100.5c0 70.667 -11.5 122.5 -34.5 155.5s-60.5 49.5 -112.5 49.5c-45.333 0 -81.666 -8 -108.999 -24c-11.333 -18.667 -20.333 -43.834 -27 -75.501s-10 -65.167 -10 -100.5c0 -70.667 11.5 -122.334 34.5 -155.001s60.5 -49 112.5 -49c44 0 80.333 8 109 24z
" />
    <glyph glyph-name="Uhorn" unicode="&#x1af;" horiz-adv-x="719" 
d="M134 32.5c-34.667 29 -52 73.5 -52 133.5v446h47v-434c0 -37.333 5.83301 -66.333 17.5 -87s29.834 -35.334 54.501 -44.001s57.334 -13 98.001 -13c66 0 120 9.33301 162 28v550h46v-111h12c46.667 18.667 82.167 42.167 106.5 70.5s37.166 68.5 38.499 120.5h47
c0 -64 -17.167 -114.833 -51.5 -152.5s-84.833 -65.5 -151.5 -83.5v-371c0 -31.333 -19.5 -55.166 -58.5 -71.499s-91.5 -24.5 -157.5 -24.5c-70.667 0 -123.334 14.5 -158.001 43.5z" />
    <glyph glyph-name="uhorn" unicode="&#x1b0;" horiz-adv-x="605" 
d="M108.5 16.5c-19.667 14.333 -29.501 37.5 -29.501 69.5v380h45v-417c22.667 -8.66699 49 -13 79 -13c32.667 0 64.334 6.66699 95.001 20s56.334 31 77.001 53v357h45v-96h8c25.333 10 45.833 21.167 61.5 33.5s28.167 29.333 37.5 51s14.333 50.167 15 85.5h46
c0 -58 -13 -102.667 -39 -134s-69 -57 -129 -77v-329h-37l-4 71h-6c-27.333 -25.333 -55.333 -44.333 -84 -57s-59.667 -19 -93 -19c-38.667 0 -67.834 7.16699 -87.501 21.5z" />
    <glyph glyph-name="uni01CD" unicode="&#x1cd;" horiz-adv-x="580" 
d="M163 845l30 7l94 -98h5l93 98l30 -7l-101 -131h-49zM44 6c64.667 233.333 128.667 435.333 192 606h108c63.333 -170.667 127.333 -372.667 192 -606l-49 -6c-18 70 -38.333 141.667 -61 215h-273c-24.667 -84 -44.667 -155.667 -60 -215zM412 258
c-40.667 137.333 -74.001 240.333 -100.001 309h-46c-12.667 -35.333 -28.667 -82.5 -48 -141.5s-36.666 -114.833 -51.999 -167.5h246z" />
    <glyph glyph-name="uni01CE" unicode="&#x1ce;" horiz-adv-x="459" 
d="M111 697l30 7l94 -98h5l93 98l30 -7l-101 -131h-49zM82.5 21.5c-22.333 20.333 -33.499 47.832 -33.499 82.499c0 50 17.5 87.5 52.5 112.5s84.833 37.5 149.5 37.5c32 0 60.667 -1.66699 86 -5v73c0 42.667 -8.66699 72.334 -26 89.001s-46.666 25 -87.999 25
c-22.667 0 -51.334 -2 -86.001 -6l-10 -70h-33c-6 17.333 -9 36.333 -9 57v14c21.333 12 46.333 22.167 75 30.5s57 12.5 85 12.5c44 0 77.833 -12.167 101.5 -36.5s35.5 -59.5 35.5 -105.5v-332h-37l-4 67h-7c-38.667 -50.667 -90.334 -76 -155.001 -76
c-42 0 -74.167 10.167 -96.5 30.5zM273.501 50.499c26.333 14.333 47.832 34.499 64.499 60.499v101c-30 4.66699 -65 7 -105 7c-41.333 0 -78.666 -4 -111.999 -12c-18 -28.667 -27 -60 -27 -94c0 -31.333 7.83301 -53.166 23.5 -65.499s38.834 -18.5 69.501 -18.5
c31.333 0 60.166 7.16699 86.499 21.5z" />
    <glyph glyph-name="uni01CF" unicode="&#x1cf;" horiz-adv-x="225" 
d="M-14 845l31 7l93 -98h6l92 98l31 -7l-102 -131h-49zM89 612h47v-612h-47v612z" />
    <glyph glyph-name="uni01D0" unicode="&#x1d0;" horiz-adv-x="225" 
d="M-18 697l30 7l94 -98h5l93 98l31 -7l-102 -131h-49zM87 469h44v-469h-44v469z" />
    <glyph glyph-name="uni01D1" unicode="&#x1d1;" horiz-adv-x="602" 
d="M178 845l30 7l94 -98h5l93 98l30 -7l-101 -131h-49zM116.5 68c-37 51.333 -55.5 127.667 -55.5 229c0 105.333 19 185.833 57 241.5s102.667 83.5 194 83.5c79.333 0 137.333 -25.667 174 -77s55 -128 55 -230c0 -106 -18.833 -186.5 -56.5 -241.5
s-102.5 -82.5 -194.5 -82.5c-78.667 0 -136.5 25.667 -173.5 77zM375.5 42.501c23.667 5 43.167 11.833 58.5 20.5c40 61.333 60 141.666 60 240.999c0 63.333 -6 114.833 -18 154.5s-32.5 69.334 -61.5 89.001s-68.167 29.5 -117.5 29.5c-24 0 -47.833 -2.5 -71.5 -7.5
s-43.167 -11.833 -58.5 -20.5c-39.333 -61.333 -59 -141.666 -59 -240.999c0 -63.333 6.16699 -114.833 18.5 -154.5s32.833 -69.334 61.5 -89.001s67.667 -29.5 117 -29.5c23.333 0 46.833 2.5 70.5 7.5z" />
    <glyph glyph-name="uni01D2" unicode="&#x1d2;" horiz-adv-x="498" 
d="M121 697l30 7l94 -98h5l93 98l30 -7l-101 -131h-49zM103 53c-30 41.333 -45 99.333 -45 174c0 78.667 15 140.667 45 186s82.333 68 157 68c60 0 105 -21.167 135 -63.5s45 -100.833 45 -175.5c0 -78 -15 -139.333 -45 -184s-82.333 -67 -157 -67
c-60 0 -105 20.667 -135 62zM358 55c11.333 18.667 20.332 43.833 26.999 75.5s10 65.167 10 100.5c0 71.333 -11.5 123.833 -34.5 157.5s-60.5 50.5 -112.5 50.5c-45.333 0 -81.666 -8 -108.999 -24c-11.333 -18.667 -20.333 -44.167 -27 -76.5s-10 -66.5 -10 -102.5
c0 -70.667 11.5 -122.5 34.5 -155.5s60.5 -49.5 112.5 -49.5c44 0 80.333 8 109 24z" />
    <glyph glyph-name="uni01D3" unicode="&#x1d3;" horiz-adv-x="592" 
d="M168 845l30 7l94 -98h5l93 98l30 -7l-101 -131h-49zM134 34.5c-34.667 29 -52.001 73.5 -52.001 133.5v444h47v-432c0 -37.333 5.83301 -66.5 17.5 -87.5s29.834 -35.833 54.501 -44.5s57.334 -13 98.001 -13c64 0 118 9.33301 162 28v549h47v-526
c0 -30.667 -19.5 -54.167 -58.5 -70.5s-91.5 -24.5 -157.5 -24.5c-70.667 0 -123.334 14.5 -158.001 43.5z" />
    <glyph glyph-name="uni01D4" unicode="&#x1d4;" horiz-adv-x="504" 
d="M124 697l30 7l94 -98h5l93 98l30 -7l-101 -131h-49zM108.5 12.5c-19.667 14.333 -29.499 37.5 -29.499 69.5v384h45v-422c23.333 -8 49.666 -12 78.999 -12c34 0 66 7.16699 96 21.5s55.333 32.833 76 55.5v357h45v-466h-37l-4 71h-6
c-28 -26.667 -55.667 -46.667 -83 -60s-58.666 -20 -93.999 -20c-38.667 0 -67.834 7.16699 -87.501 21.5z" />
    <glyph glyph-name="uni01D5" unicode="&#x1d5;" horiz-adv-x="592" 
d="M163 883h270v-40h-270v40zM194 721c-6 5.33301 -9 13 -9 23s3 17.833 9 23.5s14 8.5 24 8.5s17.833 -2.66699 23.5 -8s8.5 -13.333 8.5 -24c0 -10 -2.83301 -17.667 -8.5 -23s-13.5 -8 -23.5 -8s-18 2.66699 -24 8zM351 721c-6 5.33301 -9 13 -9 23
c0 10.667 3 18.667 9 24s14.333 8 25 8c10 0 17.833 -2.66699 23.5 -8s8.5 -13.333 8.5 -24c0 -10 -2.83301 -17.667 -8.5 -23s-13.5 -8 -23.5 -8c-10.667 0 -19 2.66699 -25 8zM134 34.5c-34.667 29 -52.001 73.5 -52.001 133.5v444h47v-432
c0 -37.333 5.83301 -66.5 17.5 -87.5s29.834 -35.833 54.501 -44.5s57.334 -13 98.001 -13c64 0 118 9.33301 162 28v549h47v-526c0 -30.667 -19.5 -54.167 -58.5 -70.5s-91.5 -24.5 -157.5 -24.5c-70.667 0 -123.334 14.5 -158.001 43.5z" />
    <glyph glyph-name="uni01D6" unicode="&#x1d6;" horiz-adv-x="504" 
d="M116 731h270v-40h-270v40zM147 569c-6 5.33301 -9 13 -9 23s3 17.833 9 23.5s14 8.5 24 8.5s17.833 -2.66699 23.5 -8s8.5 -13.333 8.5 -24c0 -10 -2.83301 -17.667 -8.5 -23s-13.5 -8 -23.5 -8s-18 2.66699 -24 8zM304 569c-6 5.33301 -9 13 -9 23
c0 10.667 3 18.667 9 24s14.333 8 25 8c10 0 17.833 -2.66699 23.5 -8s8.5 -13.333 8.5 -24c0 -10 -2.83301 -17.667 -8.5 -23s-13.5 -8 -23.5 -8c-10.667 0 -19 2.66699 -25 8zM108.5 12.5c-19.667 14.333 -29.499 37.5 -29.499 69.5v384h45v-422
c23.333 -8 49.666 -12 78.999 -12c34 0 66 7.16699 96 21.5s55.333 32.833 76 55.5v357h45v-466h-37l-4 71h-6c-28 -26.667 -55.667 -46.667 -83 -60s-58.666 -20 -93.999 -20c-38.667 0 -67.834 7.16699 -87.501 21.5z" />
    <glyph glyph-name="uni01D7" unicode="&#x1d7;" horiz-adv-x="592" 
d="M276 848l68 114l56 -8l-92 -112zM193 721.5c-6 5.66699 -9 13.5 -9 23.5s3 17.833 9 23.5s14 8.5 24 8.5s17.833 -2.66699 23.5 -8s8.5 -13.333 8.5 -24c0 -10 -2.83301 -17.833 -8.5 -23.5s-13.5 -8.5 -23.5 -8.5s-18 2.83301 -24 8.5zM350 721.5
c-6 5.66699 -9 13.5 -9 23.5c0 10.667 3 18.667 9 24s14.333 8 25 8c10 0 17.833 -2.66699 23.5 -8s8.5 -13.333 8.5 -24c0 -10 -2.83301 -17.833 -8.5 -23.5s-13.5 -8.5 -23.5 -8.5c-10.667 0 -19 2.83301 -25 8.5zM134 34.5c-34.667 29 -52.001 73.5 -52.001 133.5v444h47
v-432c0 -37.333 5.83301 -66.5 17.5 -87.5s29.834 -35.833 54.501 -44.5s57.334 -13 98.001 -13c64 0 118 9.33301 162 28v549h47v-526c0 -30.667 -19.5 -54.167 -58.5 -70.5s-91.5 -24.5 -157.5 -24.5c-70.667 0 -123.334 14.5 -158.001 43.5z" />
    <glyph glyph-name="uni01D8" unicode="&#x1d8;" horiz-adv-x="504" 
d="M234 695l68 114l56 -8l-92 -112zM149 569c-6 5.33301 -9 13 -9 23s3 17.833 9 23.5s14 8.5 24 8.5s17.833 -2.66699 23.5 -8s8.5 -13.333 8.5 -24c0 -10 -2.83301 -17.667 -8.5 -23s-13.5 -8 -23.5 -8s-18 2.66699 -24 8zM306 569c-6 5.33301 -9 13 -9 23
c0 10.667 3 18.667 9 24s14.333 8 25 8c10 0 17.833 -2.66699 23.5 -8s8.5 -13.333 8.5 -24c0 -10 -2.83301 -17.667 -8.5 -23s-13.5 -8 -23.5 -8c-10.667 0 -19 2.66699 -25 8zM108.5 12.5c-19.667 14.333 -29.499 37.5 -29.499 69.5v384h45v-422
c23.333 -8 49.666 -12 78.999 -12c34 0 66 7.16699 96 21.5s55.333 32.833 76 55.5v357h45v-466h-37l-4 71h-6c-28 -26.667 -55.667 -46.667 -83 -60s-58.666 -20 -93.999 -20c-38.667 0 -67.834 7.16699 -87.501 21.5z" />
    <glyph glyph-name="uni01D9" unicode="&#x1d9;" horiz-adv-x="592" 
d="M175 957l29 7l86 -90h6l85 90l29 -7l-93 -121h-48zM190 717.5c-6 5.66699 -9 13.167 -9 22.5c0 10 3 17.833 9 23.5s14 8.5 24 8.5s17.833 -2.66699 23.5 -8s8.5 -13.333 8.5 -24c0 -9.33301 -2.83301 -16.833 -8.5 -22.5s-13.5 -8.5 -23.5 -8.5s-18 2.83301 -24 8.5z
M347 717.5c-6 5.66699 -9 13.167 -9 22.5c0 10.667 3 18.667 9 24s14.333 8 25 8c10 0 17.833 -2.66699 23.5 -8s8.5 -13.333 8.5 -24c0 -9.33301 -2.83301 -16.833 -8.5 -22.5s-13.5 -8.5 -23.5 -8.5c-10.667 0 -19 2.83301 -25 8.5zM134 34.5
c-34.667 29 -52.001 73.5 -52.001 133.5v444h47v-432c0 -37.333 5.83301 -66.5 17.5 -87.5s29.834 -35.833 54.501 -44.5s57.334 -13 98.001 -13c64 0 118 9.33301 162 28v549h47v-526c0 -30.667 -19.5 -54.167 -58.5 -70.5s-91.5 -24.5 -157.5 -24.5
c-70.667 0 -123.334 14.5 -158.001 43.5z" />
    <glyph glyph-name="uni01DA" unicode="&#x1da;" horiz-adv-x="504" 
d="M134 809l29 7l86 -90h6l85 90l29 -7l-93 -122h-48zM148 569c-6 5.33301 -9 13 -9 23s3 17.833 9 23.5s14 8.5 24 8.5s17.833 -2.66699 23.5 -8s8.5 -13.333 8.5 -24c0 -10 -2.83301 -17.667 -8.5 -23s-13.5 -8 -23.5 -8s-18 2.66699 -24 8zM305 569
c-6 5.33301 -9 13 -9 23c0 10.667 3 18.667 9 24s14.333 8 25 8c10 0 17.833 -2.66699 23.5 -8s8.5 -13.333 8.5 -24c0 -10 -2.83301 -17.667 -8.5 -23s-13.5 -8 -23.5 -8c-10.667 0 -19 2.66699 -25 8zM108.5 12.5c-19.667 14.333 -29.499 37.5 -29.499 69.5v384h45v-422
c23.333 -8 49.666 -12 78.999 -12c34 0 66 7.16699 96 21.5s55.333 32.833 76 55.5v357h45v-466h-37l-4 71h-6c-28 -26.667 -55.667 -46.667 -83 -60s-58.666 -20 -93.999 -20c-38.667 0 -67.834 7.16699 -87.501 21.5z" />
    <glyph glyph-name="uni01DB" unicode="&#x1db;" horiz-adv-x="592" 
d="M190 949l57 8l67 -114l-31 -5zM191.5 717.5c-5.66699 5.66699 -8.5 13.167 -8.5 22.5c0 10.667 2.83301 18.667 8.5 24s13.5 8 23.5 8c10.667 0 19 -2.66699 25 -8s9 -13.333 9 -24c0 -9.33301 -3 -16.833 -9 -22.5s-14.333 -8.5 -25 -8.5
c-10 0 -17.833 2.83301 -23.5 8.5zM348.5 717.5c-5.66699 5.66699 -8.49902 13.167 -8.49902 22.5c0 21.333 11 32 33 32c10 0 18 -2.83301 24 -8.5s9 -13.5 9 -23.5c0 -9.33301 -3 -16.833 -9 -22.5s-14 -8.5 -24 -8.5c-10.667 0 -18.834 2.83301 -24.501 8.5z
M134.001 34.5c-34.667 29 -52.001 73.5 -52.001 133.5v444h47v-432c0 -37.333 5.83301 -66.5 17.5 -87.5s29.834 -35.833 54.501 -44.5s57.334 -13 98.001 -13c64 0 118 9.33301 162 28v549h47v-526c0 -30.667 -19.5 -54.167 -58.5 -70.5s-91.5 -24.5 -157.5 -24.5
c-70.667 0 -123.334 14.5 -158.001 43.5z" />
    <glyph glyph-name="uni01DC" unicode="&#x1dc;" horiz-adv-x="504" 
d="M146 801l57 8l67 -114l-31 -6zM148.5 569c-5.66699 5.33301 -8.5 13 -8.5 23c0 10.667 2.83301 18.667 8.5 24s13.5 8 23.5 8c10.667 0 19 -2.66699 25 -8s9 -13.333 9 -24c0 -10 -3 -17.667 -9 -23s-14.333 -8 -25 -8c-10 0 -17.833 2.66699 -23.5 8zM305.5 569
c-5.66699 5.33301 -8.49902 13 -8.49902 23c0 21.333 11 32 33 32c10 0 18 -2.83301 24 -8.5s9 -13.5 9 -23.5s-3 -17.667 -9 -23s-14 -8 -24 -8c-10.667 0 -18.834 2.66699 -24.501 8zM108.501 12.5c-19.667 14.333 -29.499 37.5 -29.499 69.5v384h45v-422
c23.333 -8 49.666 -12 78.999 -12c34 0 66 7.16699 96 21.5s55.333 32.833 76 55.5v357h45v-466h-37l-4 71h-6c-28 -26.667 -55.667 -46.667 -83 -60s-58.666 -20 -93.999 -20c-38.667 0 -67.834 7.16699 -87.501 21.5z" />
    <glyph glyph-name="Gcaron" unicode="&#x1e6;" horiz-adv-x="580" 
d="M182 845l30 7l94 -98h5l93 98l30 -7l-101 -131h-49zM126 68.5c-44 51.667 -65.9971 126.502 -65.9971 224.502c0 99.333 21.833 179 65.5 239s110.5 90 200.5 90c34.667 0 67.167 -3.5 97.5 -10.5s54.833 -15.833 73.5 -26.5v-38
c0 -10.667 -0.833008 -22.334 -2.5 -35.001s-3.83398 -22.667 -6.50098 -30h-28l-11 84c-32.667 7.33301 -74.667 11 -126 11c-50.667 0 -96.334 -6.33301 -137.001 -19c-52.667 -70.667 -79 -158.334 -79 -263.001c0 -173.333 71.333 -260 214 -260
c31.333 0 57.666 2 78.999 6s42.333 10.333 63 19v212h-141v44h153l34 -27v-188c0 -33.333 -17.5 -60 -52.5 -80s-81.833 -30 -140.5 -30c-82.667 0 -146 25.833 -190 77.5z" />
    <glyph glyph-name="gcaron" unicode="&#x1e7;" horiz-adv-x="498" 
d="M134 697l30 7l94 -98h5l93 98l30 -7l-101 -131h-49zM90 -155l14.001 36.999c20 -9.33301 42 -16.666 66 -21.999s47.667 -8 71 -8c30 0 55.5 2.33301 76.5 7s39.833 12 56.5 22v137l3 60h-8c-40.667 -49.333 -89 -74 -145 -74c-55.333 0 -96.5 20.167 -123.5 60.5
s-40.5 94.833 -40.5 163.5c0 164 57.667 246 173 246c57.333 0 102.666 -26 135.999 -78h6l4 74h38v-532c0 -44 -15.333 -76 -46 -96s-73 -30 -127 -30c-58.667 0 -110 11 -154 33zM372.001 120.999l-0.000976562 232c-38.667 54 -83.667 81 -135 81
c-47.333 0 -81.166 -17 -101.499 -51s-30.5 -84.333 -30.5 -151c0 -62.667 10.333 -109.667 31 -141s52.667 -47 96 -47c54 0 100.667 25.667 140 77z" />
    <glyph glyph-name="Aringacute" unicode="&#x1fa;" horiz-adv-x="580" 
d="M268 944l84 140l62 -6l-114 -140zM208.5 719.5c-17 13.667 -25.5 33.834 -25.5 60.501c0 25.333 10.5 47.166 31.5 65.499s48.833 27.5 83.5 27.5c64.667 0 97 -27.667 97 -83c0 -26 -10 -47.667 -30 -65s-48 -26 -84 -26c-31.333 0 -55.5 6.83301 -72.5 20.5zM350 739
c6 17.333 9 33.667 9 49c0 35.333 -21.667 53 -65 53c-24.667 0 -46.667 -2.66699 -66 -8c-6 -18 -9 -35 -9 -51c0 -16.667 5.33301 -29.5 16 -38.5s26.667 -13.5 48 -13.5c26 0 48.333 3 67 9zM44 6.00098c64.667 233.333 128.667 435.333 192 606h108
c63.333 -170.667 127.333 -372.667 192 -606l-49 -6c-18 70 -38.333 141.667 -61 215h-273c-24.667 -84 -44.667 -155.667 -60 -215zM412 258.001c-40.667 137.333 -74.001 240.333 -100.001 309h-46c-12.667 -35.333 -28.667 -82.5 -48 -141.5
s-36.666 -114.833 -51.999 -167.5h246z" />
    <glyph glyph-name="aringacute" unicode="&#x1fb;" horiz-adv-x="459" 
d="M222 796l84 140l62 -6l-114 -140zM158.5 573.5c-17 13.667 -25.5 33.834 -25.5 60.501c0 25.333 10.5 47.166 31.5 65.499s48.833 27.5 83.5 27.5c64.667 0 97 -27.333 97 -82c0 -26 -10 -47.833 -30 -65.5s-48 -26.5 -84 -26.5c-31.333 0 -55.5 6.83301 -72.5 20.5z
M301 593c6 18 9 34.333 9 49c0 35.333 -21.667 53 -65 53c-27.333 0 -49.333 -2.66699 -66 -8c-6 -18 -9 -35 -9 -51c0 -34 21.333 -51 64 -51c28 0 50.333 2.66699 67 8zM82.5 21.5c-22.333 20.333 -33.499 47.832 -33.499 82.499c0 50 17.5 87.5 52.5 112.5
s84.833 37.5 149.5 37.5c32 0 60.667 -1.66699 86 -5v73c0 42.667 -8.66699 72.334 -26 89.001s-46.666 25 -87.999 25c-22.667 0 -51.334 -2 -86.001 -6l-10 -70h-33c-6 17.333 -9 36.333 -9 57v14c21.333 12 46.333 22.167 75 30.5s57 12.5 85 12.5
c44 0 77.833 -12.167 101.5 -36.5s35.5 -59.5 35.5 -105.5v-332h-37l-4 67h-7c-38.667 -50.667 -90.334 -76 -155.001 -76c-42 0 -74.167 10.167 -96.5 30.5zM273.501 50.499c26.333 14.333 47.832 34.499 64.499 60.499v101c-30 4.66699 -65 7 -105 7
c-41.333 0 -78.666 -4 -111.999 -12c-18 -28.667 -27 -60 -27 -94c0 -31.333 7.83301 -53.166 23.5 -65.499s38.834 -18.5 69.501 -18.5c31.333 0 60.166 7.16699 86.499 21.5z" />
    <glyph glyph-name="AEacute" unicode="&#x1fc;" horiz-adv-x="922" 
d="M524 714l84 140l62 -6l-114 -140zM488 60v156h-285c-36 -64.667 -73.667 -136.667 -113 -216l-46 16c111.333 222 221 420.667 329 596h470v-44h-308v-238h279v-44h-279v-238c48.667 -9.33301 100.667 -14 156 -14s106.333 5 153 15l11 -42
c-46 -11.333 -101.667 -17 -167 -17c-133.333 0 -200 23.333 -200 70zM488 260v307h-88c-72 -118 -130.333 -220.333 -175 -307h263z" />
    <glyph glyph-name="aeacute" unicode="&#x1fd;" horiz-adv-x="750" 
d="M359 565l84 141l62 -7l-114 -139zM83 21.5c-22.667 20.333 -33.999 47.834 -33.999 82.501c0 50 17.167 87.5 51.5 112.5s83.833 37.5 148.5 37.5c36.667 0 68.334 -1.66699 95.001 -5v73c0 41.333 -10 70.666 -30 87.999s-51 26 -93 26c-21.333 0 -49.333 -2 -84 -6
l-10 -70h-33c-6 17.333 -9 36.333 -9 57v14c21.333 12 46.166 22.167 74.499 30.5s56.166 12.5 83.499 12.5c34 0 62.833 -7.83301 86.5 -23.5s39.834 -38.167 48.501 -67.5c30.667 60.667 83.667 91 159 91c50.667 0 90.834 -15.833 120.501 -47.5s44.5 -75.5 44.5 -131.5
c0 -7.33301 -0.666992 -19 -2 -35l-44 -46l-267 1c2 -60.667 15 -105.667 39 -135s61.333 -44 112 -44c29.333 0 54.166 2.83301 74.499 8.5s40.833 14.5 61.5 26.5l16 -36c-24 -13.333 -47.333 -23.333 -70 -30s-50.334 -10 -83.001 -10c-79.333 0 -134 29.333 -164 88
c-28 -32 -56 -55.333 -84 -70s-65 -22 -111 -22c-42 0 -74.333 10.167 -97 30.5zM655.001 254.001c4 14 6 29.666 6 46.999c0 40.667 -10.833 72.834 -32.5 96.501s-53.167 35.5 -94.5 35.5c-51.333 0 -87.333 -15 -108 -45s-33 -76.333 -37 -139zM276.001 48
c25.333 12.667 48.334 30.999 69.001 54.999v109c-30.667 4.66699 -68.667 7 -114 7c-40 0 -76.667 -4 -110 -12c-18 -28.667 -27 -60 -27 -94c0 -31.333 7.66699 -53.166 23 -65.499s38.666 -18.5 69.999 -18.5c34 0 63.667 6.33301 89 19z" />
    <glyph glyph-name="Oslashacute" unicode="&#x1fe;" horiz-adv-x="608" 
d="M276 714l84 141l62 -7l-114 -140zM110 -58l41.999 91.001c-58.667 47.333 -88 135.333 -88 264c0 105.333 19 185.833 57 241.5s102.667 83.5 194 83.5c38.667 0 71.667 -6.33301 99 -19l34 74l40 -10l-38 -83c32.667 -23.333 56.5 -57.333 71.5 -102
s22.5 -100.334 22.5 -167.001c0 -106 -18.833 -186.667 -56.5 -242s-102.5 -83 -194.5 -83c-39.333 0 -74.666 7.33301 -105.999 22l-37 -81zM393.999 560.001c-26 11.333 -57.333 16.999 -94 16.999c-24 0 -47.833 -2.5 -71.5 -7.5s-43.167 -11.833 -58.5 -20.5
c-39.333 -61.333 -59 -141.666 -59 -240.999c0 -56 4.83301 -102.833 14.5 -140.5s25.5 -67.167 47.5 -88.5zM378.499 42.5c23 5 42.5 11.833 58.5 20.5c19.333 30 34.333 65.333 45 106s16 85.667 16 135c0 58.667 -5.33301 107.167 -16 145.5s-28.334 67.833 -53.001 88.5
l-222 -483c24.667 -13.333 58.334 -20 101.001 -20c24 0 47.5 2.5 70.5 7.5z" />
    <glyph glyph-name="oslashacute" unicode="&#x1ff;" horiz-adv-x="498" 
d="M250 560l-32 6l84 140l62 -6zM440 242c0 -78 -15 -139.333 -45 -184s-82.333 -67 -157 -67c-26.667 0 -50 4 -70 12l-49 -107l-40 10l54 117c-50 37.333 -75 105.333 -75 204c0 78.667 15 140.667 45 186s82.333 68 157 68c28.667 0 54 -5 76 -15l38 82l40 -9l-44 -95
c46.667 -38.667 70 -106 70 -202zM151 64l166.999 361c-20.667 9.33301 -44 14 -70 14c-45.333 0 -81.666 -8 -108.999 -24c-11.333 -18.667 -20.333 -44.167 -27 -76.5s-10 -66.5 -10 -102.5c0 -84 16.333 -141.333 49 -172zM384.999 130.5
c6.66699 31.667 10 65.166 10 100.499c0 80 -14.667 136.667 -44 170l-165 -359c18.667 -7.33301 39.667 -11 63 -11c44 0 80.333 8 109 24c11.333 18.667 20.333 43.834 27 75.501z" />
    <glyph glyph-name="Scommaaccent" unicode="&#x218;" horiz-adv-x="511" 
d="M57 32l17 40.998c28 -13.333 56.333 -23 85 -29s59.334 -9 92.001 -9c49.333 0 90.666 9 123.999 27c13.333 23.333 20 53.666 20 90.999c0 36.667 -10.833 64.334 -32.5 83.001s-57.834 34.334 -108.501 47.001c-58.667 14.667 -104.167 34 -136.5 58
s-48.5 60.333 -48.5 109c0 114.667 65 172 195 172c35.333 0 65.333 -3 90 -9s48 -14.667 70 -26v-26c0 -24 -4.33301 -51 -13 -81h-32l-8 90c-42 6 -79.667 9 -113 9c-50.667 0 -87 -10 -109 -30s-33 -50.667 -33 -92c0 -25.333 5.33301 -45.666 16 -60.999
s26.834 -28 48.501 -38s51.5 -19.667 89.5 -29c62.667 -16 107.167 -35.5 133.5 -58.5s39.5 -56.167 39.5 -99.5c0 -120 -65.667 -180 -197 -180c-68.667 0 -131.667 13.667 -189 41zM236 -228.002c12 22 20.999 43.667 26.999 65s9 46.333 9 75h-55v33
c12.667 4.66699 25.334 7 38.001 7c37.333 0 56 -20.667 56 -62c0 -45.333 -15 -87 -45 -125z" />
    <glyph glyph-name="scommaaccent" unicode="&#x219;" horiz-adv-x="411" 
d="M53 21l15.002 38c22.667 -10 45 -17.333 67 -22s46 -7 72 -7c34.667 0 66 4.66699 94 14c8.66699 21.333 13 45.333 13 72c0 20.667 -3 36.667 -9 48s-15.833 20.5 -29.5 27.5s-34.5 13.833 -62.5 20.5c-52.667 12 -91.5 27.333 -116.5 46s-37.5 47 -37.5 85
c0 37.333 13 68.5 39 93.5s66.667 37.5 122 37.5c46 0 85 -9 117 -27v-20c0 -20.667 -3.33301 -40.334 -10 -59.001h-27l-7 62c-22.667 4 -48.334 6 -77.001 6c-40.667 0 -69.834 -6.66699 -87.501 -20s-26.5 -34.333 -26.5 -63c0 -19.333 3.66699 -34.666 11 -45.999
s19.5 -21 36.5 -29s42.167 -16.333 75.5 -25c48 -12 82.167 -27.167 102.5 -45.5s30.5 -45.5 30.5 -81.5c0 -38 -12.167 -70 -36.5 -96s-64.5 -39 -120.5 -39c-58 0 -107.333 10 -148 30zM186.002 -228c12 22 20.999 43.667 26.999 65s9 46.333 9 75h-55v33
c12.667 4.66699 25.334 7 38.001 7c37.333 0 56 -20.667 56 -62c0 -45.333 -15 -87 -45 -125z" />
    <glyph glyph-name="uni021A" unicode="&#x21a;" horiz-adv-x="520" 
d="M237 567h-199v45h444v-45h-198v-567h-47v567zM231 -227c12 22 21 43.832 27 65.499s9 46.834 9 75.501h-55v33c11.333 4 24 6 38 6c37.333 0 56 -20.667 56 -62c0 -45.333 -15 -87 -45 -125z" />
    <glyph glyph-name="uni021B" unicode="&#x21b;" horiz-adv-x="356" 
d="M174 2c-40.667 20.667 -61 49.665 -61 86.998v331h-80l6 39h74v133h44v-133h154l-5 -39h-149v-319c0 -13.333 0.666992 -23.666 2 -30.999s3.66602 -15.666 6.99902 -24.999c20.667 -6 41 -9 61 -9c13.333 0 27.333 1.5 42 4.5s27.334 7.16699 38.001 12.5l13 -38
c-10 -5.33301 -23.167 -10 -39.5 -14s-31.833 -6 -46.5 -6c-22 0 -42 2.33301 -60 7zM183 -228.002c12 22 20.999 43.667 26.999 65s9 46.333 9 75h-55v33c12.667 4.66699 25.334 7 38.001 7c37.333 0 56 -20.667 56 -62c0 -45.333 -15 -87 -45 -125z" />
    <glyph glyph-name="uni0237" unicode="&#x237;" horiz-adv-x="254" 
d="M-23 -175l10.001 39c22 -6 45.667 -9 71 -9c22.667 0 43 3 61 9c4 10.667 6.66699 21.5 8 32.5s2 25.167 2 42.5v525h44v-529c0 -38.667 -10 -68.667 -30 -90s-48.667 -32 -86 -32c-28.667 0 -55.334 4 -80.001 12z" />
    <glyph glyph-name="uni0251" unicode="&#x251;" horiz-adv-x="500" 
d="M99 54.5c-25.333 40.333 -38.001 95.833 -38.001 166.5c0 80 13.167 142.167 39.5 186.5s69.833 66.5 130.5 66.5c32 0 58.833 -7.16699 80.5 -21.5s41.5 -34.833 59.5 -61.5h6l5 83h38v-474l-38 -1l-5 74h-7c-21.333 -25.333 -43.5 -44.833 -66.5 -58.5
s-51.833 -20.5 -86.5 -20.5c-53.333 0 -92.666 20.167 -117.999 60.5zM374.999 118l-0.00195312 227c-39.333 59.333 -85.666 89 -138.999 89c-46.667 0 -80.167 -17.667 -100.5 -53s-30.5 -87 -30.5 -155c0 -64 9.83301 -112 29.5 -144s50.834 -48 93.501 -48
c55.333 0 104.333 28 147 84z" />
    <glyph glyph-name="uni0259" unicode="&#x259;" horiz-adv-x="479" 
d="M103.5 42.5c-29.667 31.667 -44.501 75.5 -44.501 131.5c0 7.33301 0.666992 19 2 35l45 47l268 -2c-2 60 -15.167 104.833 -39.5 134.5s-62.166 44.5 -113.499 44.5c-29.333 0 -54.166 -2.83301 -74.499 -8.5s-40.833 -14.5 -61.5 -26.5l-16 36
c23.333 13.333 46.333 23.333 69 30s50.667 10 84 10c130.667 0 196 -78.667 196 -236c0 -76 -16.167 -135.5 -48.5 -178.5s-80.833 -64.5 -145.5 -64.5c-50.667 0 -90.834 15.833 -120.501 47.5zM335.999 81.5c21.333 30.333 34.001 76.501 38.001 138.501l-269 -5
c-3.33301 -11.333 -5 -27 -5 -47c0 -40.667 10.833 -72.834 32.5 -96.501s53.167 -35.5 94.5 -35.5c51.333 0 87.666 15.167 108.999 45.5z" />
    <glyph glyph-name="uni0261" unicode="&#x261;" horiz-adv-x="498" 
d="M90 -157l13.998 36c20 -8.66699 42.167 -15.667 66.5 -21s47.833 -8 70.5 -8c30.667 0 56.5 2.33301 77.5 7s39.5 12 55.5 22v136l3 60h-7c-42 -49.333 -90.667 -74 -146 -74s-96.5 20.333 -123.5 61s-40.5 95.334 -40.5 164.001c0 77.333 13.833 137.666 41.5 180.999
s71.834 65 132.501 65c56.667 0 101.667 -26.333 135 -79h6l4 74h38v-532c0 -44 -15.333 -76 -46 -96s-73 -30 -127 -30c-57.333 0 -108.666 11.333 -153.999 34zM372.998 118l-0.000976562 233c-39.333 54 -84.666 81 -135.999 81c-47.333 0 -81 -17 -101 -51
s-30 -84.667 -30 -152c0 -62.667 10.333 -109.5 31 -140.5s52.667 -46.5 96 -46.5c54 0 100.667 25.333 140 76z" />
    <glyph glyph-name="uni02BB" unicode="&#x2bb;" horiz-adv-x="265" 
d="M86 493c0 45.333 15.332 87.001 45.999 125.001l29 -7c-12 -22 -21 -43.833 -27 -65.5s-9 -46.834 -9 -75.501h55v-33c-11.333 -4 -23.666 -6 -36.999 -6c-38 0 -57 20.667 -57 62z" />
    <glyph glyph-name="uni02BC" unicode="&#x2bc;" horiz-adv-x="265" 
d="M105 438c12 22 21 43.668 27 65.001s9 46.666 9 75.999h-55v33c14.667 4 27 6 37 6c38 0 57 -20.667 57 -62c0 -45.333 -15.333 -87 -46 -125z" />
    <glyph glyph-name="uni02BE" unicode="&#x2be;" horiz-adv-x="177" 
d="M51 502c16 0 27 0.666016 33 1.99902c2.66699 10.667 4 23.334 4 38.001c0 29.333 -11.667 44 -35 44v35c24.667 0 43 -6.66699 55 -20s18 -32 18 -56c0 -52 -25 -78 -75 -78v35z" />
    <glyph glyph-name="uni02BF" unicode="&#x2bf;" horiz-adv-x="197" 
d="M61 545c0 24 6 42.667 18 56s30.333 20 55 20v-35c-12 0 -20.833 -4 -26.5 -12s-8.5 -18.667 -8.5 -32c0 -15.333 1.66699 -28 5 -38c5.33301 -1.33301 16 -2 32 -2v-35c-50 0 -75 26 -75 78z" />
    <glyph glyph-name="circumflex" unicode="&#x2c6;" horiz-adv-x="334" 
d="M41 480l102 132h49l101 -132l-30 -7l-93 98h-5l-94 -98z" />
    <glyph glyph-name="caron" unicode="&#x2c7;" horiz-adv-x="334" 
d="M41 605l30 7l94 -98h5l93 98l30 -7l-101 -132h-49z" />
    <glyph glyph-name="uni02C8" unicode="&#x2c8;" horiz-adv-x="165" 
d="M61 675h43v-203h-43v203z" />
    <glyph glyph-name="uni02C9" unicode="&#x2c9;" horiz-adv-x="300" 
d="M61 540h178v-41h-178v41z" />
    <glyph glyph-name="uni02CA" unicode="&#x2ca;" horiz-adv-x="247" 
d="M67 479l68 121l62 -6l-98 -120z" />
    <glyph glyph-name="uni02CB" unicode="&#x2cb;" horiz-adv-x="247" 
d="M57 594l62 6l68 -121l-32 -5z" />
    <glyph glyph-name="uni02CC" unicode="&#x2cc;" horiz-adv-x="205" 
d="M81 -4h43v-203h-43v203z" />
    <glyph glyph-name="breve" unicode="&#x2d8;" horiz-adv-x="366" 
d="M61 605l44.998 8c4.66699 -23.333 12.334 -40.666 23.001 -51.999s28.667 -17 54 -17s43.333 5.66699 54 17s18.334 28.666 23.001 51.999l45 -8c-13.333 -66.667 -54 -100 -122 -100s-108.667 33.333 -122 100z" />
    <glyph glyph-name="dotaccent" unicode="&#x2d9;" horiz-adv-x="306" 
d="M121.5 519.5c-7.66699 7 -11.5 16.833 -11.5 29.5c0 14 3.83301 24.667 11.5 32s18.5 11 32.5 11c13.333 0 23.666 -3.66699 30.999 -11s11 -18 11 -32c0 -12.667 -3.66699 -22.5 -11 -29.5s-17.666 -10.5 -30.999 -10.5c-14 0 -24.833 3.5 -32.5 10.5z" />
    <glyph glyph-name="ring" unicode="&#x2da;" horiz-adv-x="334" 
d="M86.5 470c-17 14 -25.5 34.334 -25.5 61.001c0 25.333 10.5 47.166 31.5 65.499s48.833 27.5 83.5 27.5c64.667 0 97 -27.667 97 -83c0 -26 -10 -47.833 -30 -65.5s-48 -26.5 -84 -26.5c-31.333 0 -55.5 7 -72.5 21zM228 490.001c6 17.333 9 33.667 9 49
c0 35.333 -21.667 53 -65 53c-25.333 0 -47.333 -3 -66 -9c-6 -17.333 -9 -34 -9 -50c0 -16.667 5.33301 -29.5 16 -38.5s26.667 -13.5 48 -13.5c26 0 48.333 3 67 9z" />
    <glyph glyph-name="ogonek" unicode="&#x2db;" horiz-adv-x="290" 
d="M97 -146.5c-14 13.667 -21.001 32.168 -21.001 55.501c0 43.333 24.333 76 73 98l30 -8c-22.667 -14 -38.5 -27.667 -47.5 -41s-13.5 -29.333 -13.5 -48c0 -12.667 2.66699 -24.334 8 -35.001c12.667 -2.66699 26 -4 40 -4c14.667 0 28.334 1.66699 41.001 5l7 -32
c-16 -7.33301 -34.667 -11 -56 -11c-26.667 0 -47 6.83301 -61 20.5z" />
    <glyph glyph-name="tilde" unicode="&#x2dc;" horiz-adv-x="417" 
d="M76 534c1.33301 26.667 8.33105 47.502 20.998 62.502s30 22.5 52 22.5c11.333 0 21.5 -2.5 30.5 -7.5s20.167 -12.167 33.5 -21.5c12 -8.66699 21.5 -14.834 28.5 -18.501s14.5 -5.5 22.5 -5.5c26 0 41.333 17.667 46 53l31 -9
c-1.33301 -26.667 -8.33301 -47.5 -21 -62.5s-30 -22.5 -52 -22.5c-11.333 0 -22.166 2.66699 -32.499 8s-21.5 12.666 -33.5 21.999c-10.667 8 -19.667 14 -27 18s-14.666 6 -21.999 6c-26 0 -41.333 -18 -46 -54z" />
    <glyph glyph-name="hungarumlaut" unicode="&#x2dd;" horiz-adv-x="430" 
d="M105 436c12 22 21 43.832 27 65.499s9 46.834 9 75.501h-55v33c10.667 4 23 6 37 6c38 0 57 -20.667 57 -62c0 -45.333 -15.333 -87 -46 -125zM270 435.999c12 22 20.999 43.832 26.999 65.499s9 46.834 9 75.501h-55v33c10.667 4 23.334 6 38.001 6
c37.333 0 56 -20.667 56 -62c0 -45.333 -15.333 -87 -46 -125z" />
    <glyph glyph-name="gravecomb" unicode="&#x300;" 
d="M-261 489l84 141l62 -7l-114 -140z" />
    <glyph glyph-name="acutecomb" unicode="&#x301;" 
d="M-261 489l84 141l62 -7l-114 -140z" />
    <glyph glyph-name="uni0302" unicode="&#x302;" 
d="M-362 480l102 132h49l101 -132l-30 -7l-93 98h-5l-94 -98z" />
    <glyph glyph-name="tildecomb" unicode="&#x303;" 
d="M-378 534c1.33301 26.667 8.33203 47.502 20.999 62.502s30 22.5 52 22.5c11.333 0 21.5 -2.5 30.5 -7.5s20.167 -12.167 33.5 -21.5c12 -8.66699 21.5 -14.834 28.5 -18.501s14.5 -5.5 22.5 -5.5c26 0 41.333 17.667 46 53l31 -9
c-1.33301 -26.667 -8.33301 -47.5 -21 -62.5s-30 -22.5 -52 -22.5c-12 0 -23 2.66699 -33 8s-21 12.666 -33 21.999c-10.667 8 -19.667 14 -27 18s-14.666 6 -21.999 6c-26 0 -41.333 -18 -46 -54z" />
    <glyph glyph-name="uni0304" unicode="&#x304;" 
d="M-282 540h178v-41h-178v41z" />
    <glyph glyph-name="uni0306" unicode="&#x306;" 
d="M-355 605l44.998 8c4.66699 -23.333 12.334 -40.666 23.001 -51.999s28.667 -17 54 -17s43.333 5.66699 54 17s18.334 28.666 23.001 51.999l45 -8c-13.333 -66.667 -54 -100 -122 -100s-108.667 33.333 -122 100z" />
    <glyph glyph-name="uni0307" unicode="&#x307;" 
d="M-211.5 519.5c-7.66699 7 -11.5 16.833 -11.5 29.5c0 14 3.83301 24.667 11.5 32s18.5 11 32.5 11c13.333 0 23.666 -3.66699 30.999 -11s11 -18 11 -32c0 -12.667 -3.66699 -22.5 -11 -29.5s-17.666 -10.5 -30.999 -10.5c-14 0 -24.833 3.5 -32.5 10.5z" />
    <glyph glyph-name="uni0308" unicode="&#x308;" 
d="M-419 498c-6 5.33301 -8.99902 13 -8.99902 23s3 17.833 9 23.5s14 8.5 24 8.5c22 0 33 -10.667 33 -32c0 -10 -2.83301 -17.667 -8.5 -23s-13.834 -8 -24.501 -8c-10 0 -18 2.66699 -24 8zM-261.999 498c-6 5.33301 -8.99902 13 -8.99902 23c0 10.667 3 18.667 9 24
s14.333 8 25 8c22 0 33 -10.667 33 -32c0 -10 -2.83301 -17.667 -8.5 -23s-13.834 -8 -24.501 -8s-19 2.66699 -25 8z" />
    <glyph glyph-name="hookabovecomb" unicode="&#x309;" 
d="M-210 551l-0.000976562 23c33.333 0 56.333 2.66699 69 8s19 16.333 19 33c0 12.667 -3.66699 22.167 -11 28.5s-19.666 9.5 -36.999 9.5c-18 0 -35 -2.66699 -51 -8l-10 31c23.333 8.66699 46.333 13 69 13c27.333 0 47.5 -6.66699 60.5 -20s19.5 -31 19.5 -53
c0 -47.333 -30 -72 -90 -74v-40h-27z" />
    <glyph glyph-name="uni030A" unicode="&#x30a;" 
d="M-283.5 470c-17 14 -25.5 34.334 -25.5 61.001c0 25.333 10.5 47.166 31.5 65.499s48.833 27.5 83.5 27.5c64.667 0 97 -27.667 97 -83c0 -26 -10 -47.833 -30 -65.5s-48 -26.5 -84 -26.5c-31.333 0 -55.5 7 -72.5 21zM-142 490.001c6 17.333 9 33.667 9 49
c0 35.333 -21.333 53 -64 53c-26 0 -48.333 -3 -67 -9c-6 -17.333 -9 -34 -9 -50c0 -16.667 5.5 -29.5 16.5 -38.5s27.167 -13.5 48.5 -13.5c26 0 48 3 66 9z" />
    <glyph glyph-name="uni030B" unicode="&#x30b;" 
d="M-340 436c12 22 21.001 43.832 27.001 65.499s9 46.834 9 75.501h-55v33c11.333 4 23.666 6 36.999 6c38 0 57 -20.667 57 -62c0 -45.333 -15.333 -87 -46 -125zM-174.999 435.999c12 22 21 43.832 27 65.499s9 46.834 9 75.501h-55v33c11.333 4 24 6 38 6
c37.333 0 56 -20.667 56 -62c0 -45.333 -15.333 -87 -46 -125z" />
    <glyph glyph-name="uni030C" unicode="&#x30c;" 
d="M-362 605l30 7l94 -98h5l93 98l30 -7l-101 -132h-49z" />
    <glyph glyph-name="uni031B" unicode="&#x31b;" 
d="M97 402c38 0 63.6689 7.16797 77.002 21.501s20 40.166 20 77.499h-56v36c13.333 3.33301 25.666 5 36.999 5c20 0 35 -6 45 -18s15 -28.333 15 -49c0 -35.333 -11.333 -63 -34 -83s-57.334 -29.667 -104.001 -29v39z" />
    <glyph glyph-name="dotbelowcomb" unicode="&#x323;" 
d="M110.5 -138.5c-7.66699 7 -11.5 16.833 -11.5 29.5c0 14 3.83301 24.667 11.5 32s18.5 11 32.5 11c13.333 0 23.666 -3.66699 30.999 -11s11 -18 11 -32c0 -12.667 -3.66699 -22.5 -11 -29.5s-17.666 -10.5 -30.999 -10.5c-14 0 -24.833 3.5 -32.5 10.5z" />
    <glyph glyph-name="uni0324" unicode="&#x324;" 
d="M-419 -142c-6 5.33301 -8.99902 13 -8.99902 23s3 17.833 9 23.5s14 8.5 24 8.5c22 0 33 -10.667 33 -32c0 -10 -2.83301 -17.667 -8.5 -23s-13.834 -8 -24.501 -8c-10 0 -18 2.66699 -24 8zM-261.999 -142c-6 5.33301 -8.99902 13 -8.99902 23c0 10.667 3 18.667 9 24
s14.333 8 25 8c22 0 33 -10.667 33 -32c0 -10 -2.83301 -17.667 -8.5 -23s-13.834 -8 -24.501 -8s-19 2.66699 -25 8z" />
    <glyph glyph-name="uni0326" unicode="&#x326;" 
d="M164 -34h67l-86 -103h-39z" />
    <glyph glyph-name="uni0327" unicode="&#x327;" 
d="M-255 -200l12.001 32c22 -8 45.667 -12 71 -12c20.667 0 38 2.33301 52 7c4 12 6 24.333 6 37c0 14 -3.66699 24.5 -11 31.5s-19.333 10.5 -36 10.5c-18.667 0 -33.667 -2 -45 -6l-32 31l65 76l30 -6l-52 -69c12.667 6 29 9 49 9c48.667 0 73 -24.333 73 -73
c0 -56 -34 -84 -102 -84c-28.667 0 -55.334 5.33301 -80.001 16z" />
    <glyph glyph-name="uni0328" unicode="&#x328;" 
d="M86 -146.5c-14 13.667 -21.001 32.168 -21.001 55.501c0 43.333 24.333 76 73 98l30 -8c-22.667 -14 -38.5 -27.667 -47.5 -41s-13.5 -29.333 -13.5 -48c0 -12.667 2.66699 -24.334 8 -35.001c12.667 -2.66699 26 -4 40 -4c14.667 0 28.334 1.66699 41.001 5l7 -32
c-16 -7.33301 -34.667 -11 -56 -11c-26.667 0 -47 6.83301 -61 20.5z" />
    <glyph glyph-name="uni032E" unicode="&#x32e;" 
d="M50 -144c13.333 66.667 54.002 100 122.002 100s108.667 -33.333 122 -100l-45 -8c-4.66699 23.333 -12.334 40.666 -23.001 51.999s-28.667 17 -54 17s-43.333 -5.66699 -54 -17s-18.334 -28.666 -23.001 -51.999z" />
    <glyph glyph-name="uni0331" unicode="&#x331;" 
d="M-372 -63h282v-42h-282v42z" />
    <glyph glyph-name="pi" unicode="&#x3c0;" horiz-adv-x="593" 
d="M413.5 17.5c-14.333 15.667 -21.502 42.5 -21.502 80.5v329h-213v-427h-46v427h-87v41h481v-41h-89v-341c0 -20 1.33301 -35 4 -45c15.333 -3.33301 31 -5 47 -5c12.667 0 24.334 0.666992 35.001 2v-41c-8.66699 -2 -21.667 -3 -39 -3
c-33.333 0 -57.166 7.83301 -71.499 23.5z" />
    <glyph glyph-name="uni0E01" unicode="&#xe01;" horiz-adv-x="548" 
d="M138 312l-72.9971 100.001v34c70.667 50.667 147.667 76 231 76c35.333 0 65.666 -5 90.999 -15s44.5 -23.167 57.5 -39.5s19.5 -33.833 19.5 -52.5v-415h-46v450c-36.667 19.333 -79.334 29 -128.001 29c-34.667 0 -67.834 -4.33301 -99.501 -13
s-59.5 -21.334 -83.5 -38.001v-5l65 -85c6.66699 -8 10 -18.333 10 -31c0 -7.33301 -0.333008 -13 -1 -17l-49 -290h-44z" />
    <glyph glyph-name="uni0E02" unicode="&#xe02;" horiz-adv-x="491" 
d="M108 34c-26.667 29.333 -40.002 68.668 -40.002 118.001v79c0 20.667 3.83301 38.5 11.5 53.5s18.834 32.167 33.501 51.5c12.667 17.333 22 31.833 28 43.5s9 24.5 9 38.5c0 18.667 -3.66699 32 -11 40s-20.333 12 -39 12h-39v42h48c32 0 54.5 -8.33301 67.5 -25
s19.5 -38 19.5 -64c0 -18.667 -3.5 -35.167 -10.5 -49.5s-17.167 -30.833 -30.5 -49.5c-14 -21.333 -24.333 -38.833 -31 -52.5s-10 -29.834 -10 -48.501v-73c0 -38 9.5 -67 28.5 -87s54.167 -30 105.5 -30c44.667 0 82.334 6 113.001 18v461h46v-405
c0 -34 -13.167 -62 -39.5 -84s-66.166 -33 -119.499 -33c-66.667 0 -113.334 14.667 -140.001 44z" />
    </font>
</defs>
</svg>
