<svg width="44" height="39" viewBox="0 0 44 39" fill="none" xmlns="http://www.w3.org/2000/svg">
<path d="M19.9633 38.1502C20.5106 38.6959 21.2463 39 22.0179 39C22.7806 39 23.5343 38.6869 24.0726 38.1502L40.1958 22.0761C42.6452 19.6342 43.991 16.3872 44 12.9433C44 9.4906 42.6542 6.24358 40.2047 3.8016C37.7553 1.35963 34.5073 0.0178898 31.044 0.0178898C27.6436 0.0178898 24.4405 1.31491 22.009 3.67638C19.5685 1.30596 16.3564 0 12.947 0C9.49266 0 6.2447 1.34174 3.79527 3.77477C1.34584 6.21674 0 9.46376 0 12.9165C0 16.3603 1.35481 19.6073 3.80424 22.0493L19.9633 38.1502ZM5.35644 5.33119C7.38418 3.30963 10.0848 2.19151 12.956 2.19151C15.8271 2.19151 18.5367 3.30963 20.5734 5.34014L21.2374 6.00206C21.4437 6.2078 21.7219 6.32408 22.0179 6.32408C22.3051 6.32408 22.5922 6.2078 22.7985 6.00206L23.4445 5.35803C25.4812 3.32752 28.1819 2.2094 31.062 2.2094C33.9331 2.2094 36.6338 3.32752 38.6615 5.34908C40.6982 7.37959 41.8108 10.072 41.8108 12.9344C41.8108 15.7968 40.6892 18.4892 38.6525 20.5197L22.5204 36.6027C22.2602 36.8622 21.7847 36.8622 21.5155 36.6027L5.36542 20.5018C3.32871 18.4713 2.20718 15.7789 2.20718 12.9165C2.20718 10.0541 3.32871 7.3617 5.35644 5.33119Z" fill="#EA7A93"/>
</svg>
